<svg width="282" height="58" viewBox="0 0 282 58" fill="none" xmlns="http://www.w3.org/2000/svg">
<path d="M5.31738 26.55L7.11738 26.1V6.75H3.66738C3.66738 7.97 3.33738 9.14 2.67738 10.26C2.39738 10.72 2.07738 11.1 1.71738 11.4H0.817383V6H18.3674V11.4H17.4674C17.0874 11.1 16.7574 10.72 16.4774 10.26C15.8374 9.18 15.5174 8.01 15.5174 6.75H12.0674V26.1L13.8674 26.55V27H5.31738V26.55ZM20.3104 26.55L22.1104 26.1V6.9L20.3104 6.45V6H24.2104C26.0104 6 26.9104 6.9 26.9104 8.7V13.5C27.2104 13.1 27.5204 12.78 27.8404 12.54C28.7004 11.88 29.6904 11.55 30.8104 11.55C31.9304 11.55 32.9304 11.79 33.8104 12.27C34.7104 12.73 35.4104 13.34 35.9104 14.1C36.4104 14.86 36.6604 15.66 36.6604 16.5V26.1L38.4604 26.55V27H34.5604C32.7604 27 31.8604 26.1 31.8604 24.3V16.5C31.8604 15.24 31.6304 14.28 31.1704 13.62C30.7304 12.94 30.2104 12.6 29.6104 12.6C28.8504 12.6 28.1704 13 27.5704 13.8C27.3104 14.14 27.0904 14.54 26.9104 15V26.1L28.7104 26.55V27H20.3104V26.55ZM48.3615 27.45C45.8015 27.45 43.8115 26.75 42.3915 25.35C40.9715 23.93 40.2615 21.98 40.2615 19.5C40.2615 17.88 40.5715 16.47 41.1915 15.27C41.8115 14.07 42.6715 13.15 43.7715 12.51C44.8915 11.87 46.1715 11.55 47.6115 11.55C49.0515 11.55 50.3115 11.82 51.3915 12.36C52.4915 12.9 53.3315 13.63 53.9115 14.55C54.5115 15.45 54.8115 16.45 54.8115 17.55C54.8115 18.05 54.7615 18.48 54.6615 18.84L54.5115 19.35C53.6515 19.53 52.7215 19.68 51.7215 19.8C49.6215 20.1 47.5015 20.25 45.3615 20.25C45.3615 22.57 45.6815 24.23 46.3215 25.23C46.9615 26.21 47.8415 26.7 48.9615 26.7C49.7415 26.7 50.4615 26.52 51.1215 26.16C51.8015 25.78 52.3315 25.29 52.7115 24.69C53.1115 24.07 53.3115 23.44 53.3115 22.8H54.0615C54.0615 23.6 53.8215 24.36 53.3415 25.08C52.8615 25.8 52.1915 26.38 51.3315 26.82C50.4715 27.24 49.4815 27.45 48.3615 27.45ZM45.3615 19.5C46.6415 19.5 47.6815 19.45 48.4815 19.35C48.8215 19.33 49.1815 19.28 49.5615 19.2C49.5815 19.1 49.6315 18.88 49.7115 18.54C49.8115 18.04 49.8615 17.51 49.8615 16.95C49.8615 15.29 49.6415 14.08 49.2015 13.32C48.7615 12.54 48.2315 12.15 47.6115 12.15C46.1115 12.15 45.3615 14.6 45.3615 19.5ZM65.3068 6.75L63.6568 6.45V6H67.2568C68.3168 6 69.1868 6.24 69.8668 6.72C70.5468 7.2 71.0268 7.81 71.3068 8.55L75.8368 20.1L78.4768 12.36L76.2568 6.75L74.6068 6.45V6H78.2068C79.2668 6 80.1268 6.24 80.7868 6.72C81.4468 7.18 81.9368 7.79 82.2568 8.55L86.7868 20.1L91.1068 7.35L88.8568 6.45V6H94.4068V6.45L92.0068 7.35L85.2568 27.3H84.3568L78.9568 13.59L74.3068 27.3H73.4068L65.3068 6.75ZM101.623 27.45C99.0632 27.45 97.0732 26.75 95.6532 25.35C94.2332 23.93 93.5232 21.98 93.5232 19.5C93.5232 17.88 93.8332 16.47 94.4532 15.27C95.0732 14.07 95.9332 13.15 97.0332 12.51C98.1532 11.87 99.4332 11.55 100.873 11.55C102.313 11.55 103.573 11.82 104.653 12.36C105.753 12.9 106.593 13.63 107.173 14.55C107.773 15.45 108.073 16.45 108.073 17.55C108.073 18.05 108.023 18.48 107.923 18.84L107.773 19.35C106.913 19.53 105.983 19.68 104.983 19.8C102.883 20.1 100.763 20.25 98.6232 20.25C98.6232 22.57 98.9432 24.23 99.5832 25.23C100.223 26.21 101.103 26.7 102.223 26.7C103.003 26.7 103.723 26.52 104.383 26.16C105.063 25.78 105.593 25.29 105.973 24.69C106.373 24.07 106.573 23.44 106.573 22.8H107.323C107.323 23.6 107.083 24.36 106.603 25.08C106.123 25.8 105.453 26.38 104.593 26.82C103.733 27.24 102.743 27.45 101.623 27.45ZM98.6232 19.5C99.9032 19.5 100.943 19.45 101.743 19.35C102.083 19.33 102.443 19.28 102.823 19.2C102.843 19.1 102.893 18.88 102.973 18.54C103.073 18.04 103.123 17.51 103.123 16.95C103.123 15.29 102.903 14.08 102.463 13.32C102.023 12.54 101.493 12.15 100.873 12.15C99.3732 12.15 98.6232 14.6 98.6232 19.5ZM120.21 27.45C118.87 27.45 117.75 27 116.85 26.1C116.47 25.7 116.14 25.25 115.86 24.75C115.72 25.19 115.48 25.59 115.14 25.95C114.38 26.75 113.27 27.15 111.81 27.15H111.51V6.9L109.71 6.45V6H113.61C115.41 6 116.31 6.9 116.31 8.7V12.75C116.63 12.49 116.94 12.29 117.24 12.15C117.96 11.75 118.8 11.55 119.76 11.55C121.78 11.55 123.38 12.24 124.56 13.62C125.76 14.98 126.36 16.94 126.36 19.5C126.36 21.2 126.09 22.65 125.55 23.85C125.01 25.03 124.28 25.93 123.36 26.55C122.44 27.15 121.39 27.45 120.21 27.45ZM119.01 26.4C119.65 26.4 120.18 25.9 120.6 24.9C121.04 23.88 121.26 22.08 121.26 19.5C121.26 16.8 121.02 14.95 120.54 13.95C120.08 12.95 119.42 12.45 118.56 12.45C118.04 12.45 117.51 12.65 116.97 13.05C116.81 13.17 116.59 13.37 116.31 13.65V24C116.49 24.46 116.71 24.86 116.97 25.2C117.57 26 118.25 26.4 119.01 26.4ZM147.526 27.45C144.326 27.45 141.826 26.5 140.026 24.6C138.226 22.7 137.326 20 137.326 16.5C137.326 14.2 137.716 12.23 138.496 10.59C139.296 8.93 140.406 7.68 141.826 6.84C143.266 5.98 144.926 5.55 146.806 5.55C147.946 5.55 149.096 5.88 150.256 6.54C150.696 6.78 151.136 7.1 151.576 7.5C151.916 6.98 152.266 6.57 152.626 6.27C152.986 6.01 153.186 5.87 153.226 5.85H153.976V11.55H152.776C152.516 10.59 152.126 9.72 151.606 8.94C151.126 8.18 150.526 7.55 149.806 7.05C149.106 6.55 148.296 6.3 147.376 6.3C145.996 6.3 144.846 7.1 143.926 8.7C143.026 10.3 142.576 12.9 142.576 16.5C142.576 20.16 143.066 22.78 144.046 24.36C145.046 25.92 146.406 26.7 148.126 26.7C149.066 26.7 149.956 26.44 150.796 25.92C151.656 25.38 152.346 24.67 152.866 23.79C153.406 22.91 153.676 21.98 153.676 21H154.426C154.426 22.14 154.116 23.21 153.496 24.21C152.896 25.19 152.066 25.98 151.006 26.58C149.966 27.16 148.806 27.45 147.526 27.45ZM156.687 26.55L158.487 26.1V6.9L156.687 6.45V6H160.587C162.387 6 163.287 6.9 163.287 8.7V13.5C163.587 13.1 163.897 12.78 164.217 12.54C165.077 11.88 166.067 11.55 167.187 11.55C168.307 11.55 169.307 11.79 170.187 12.27C171.087 12.73 171.787 13.34 172.287 14.1C172.787 14.86 173.037 15.66 173.037 16.5V26.1L174.837 26.55V27H170.937C169.137 27 168.237 26.1 168.237 24.3V16.5C168.237 15.24 168.007 14.28 167.547 13.62C167.107 12.94 166.587 12.6 165.987 12.6C165.227 12.6 164.547 13 163.947 13.8C163.687 14.14 163.467 14.54 163.287 15V26.1L165.087 26.55V27H156.687V26.55ZM176.638 26.55L178.438 26.1V12.9L176.638 12.45V12H179.338C180.518 12 181.448 12.38 182.128 13.14C182.388 13.44 182.608 13.81 182.788 14.25C183.088 13.81 183.458 13.41 183.898 13.05C184.898 12.25 186.018 11.85 187.258 11.85C188.318 11.85 189.108 12.1 189.628 12.6C190.168 13.08 190.438 13.78 190.438 14.7C190.438 15.38 190.228 15.93 189.808 16.35C189.408 16.75 188.868 16.95 188.188 16.95C187.908 16.95 187.628 16.93 187.348 16.89L186.988 16.8V12.6C185.968 12.6 185.038 13 184.198 13.8C183.798 14.2 183.478 14.6 183.238 15V26.1L185.038 26.55V27H176.638V26.55ZM199.735 27.45C197.255 27.45 195.305 26.75 193.885 25.35C192.485 23.93 191.785 21.98 191.785 19.5C191.785 17.02 192.485 15.08 193.885 13.68C195.305 12.26 197.255 11.55 199.735 11.55C202.215 11.55 204.155 12.26 205.555 13.68C206.975 15.08 207.685 17.02 207.685 19.5C207.685 21.98 206.975 23.93 205.555 25.35C204.155 26.75 202.215 27.45 199.735 27.45ZM199.735 26.85C200.535 26.85 201.205 26.29 201.745 25.17C202.305 24.05 202.585 22.16 202.585 19.5C202.585 16.84 202.305 14.95 201.745 13.83C201.205 12.71 200.535 12.15 199.735 12.15C198.935 12.15 198.255 12.71 197.695 13.83C197.155 14.95 196.885 16.84 196.885 19.5C196.885 22.16 197.155 24.05 197.695 25.17C198.255 26.29 198.935 26.85 199.735 26.85ZM210.096 26.55L211.896 26.1V12.9L210.096 12.45V12H212.796C213.976 12 214.906 12.38 215.586 13.14C215.846 13.44 216.066 13.81 216.246 14.25C216.526 13.73 216.856 13.28 217.236 12.9C218.136 12 219.256 11.55 220.596 11.55C221.716 11.55 222.716 11.79 223.596 12.27C224.496 12.73 225.196 13.34 225.696 14.1C226.196 14.86 226.446 15.66 226.446 16.5V26.1L228.246 26.55V27H224.346C222.546 27 221.646 26.1 221.646 24.3V16.5C221.646 15.24 221.416 14.28 220.956 13.62C220.516 12.94 219.996 12.6 219.396 12.6C218.636 12.6 217.956 13 217.356 13.8C217.096 14.14 216.876 14.54 216.696 15V26.1L218.496 26.55V27H210.096V26.55ZM230.047 26.55L231.847 26.1V12.9L230.047 12.45V12H233.947C235.747 12 236.647 12.9 236.647 14.7V26.1L238.447 26.55V27H230.047V26.55ZM233.947 10.2C233.347 10.2 232.847 10 232.447 9.6C232.047 9.2 231.847 8.7 231.847 8.1C231.847 7.5 232.047 7 232.447 6.6C232.847 6.2 233.347 6 233.947 6C234.547 6 235.047 6.2 235.447 6.6C235.847 7 236.047 7.5 236.047 8.1C236.047 8.7 235.847 9.2 235.447 9.6C235.047 10 234.547 10.2 233.947 10.2ZM248.342 27.45C245.782 27.45 243.792 26.75 242.372 25.35C240.952 23.93 240.242 21.98 240.242 19.5C240.242 17.02 240.952 15.08 242.372 13.68C243.792 12.26 245.782 11.55 248.342 11.55C250.182 11.55 251.562 11.87 252.482 12.51C253.422 13.15 253.892 13.93 253.892 14.85C253.892 15.53 253.682 16.08 253.262 16.5C252.862 16.9 252.322 17.1 251.642 17.1C251.362 17.1 251.082 17.08 250.802 17.04L250.442 16.95V12.45L250.022 12.3C249.722 12.2 249.362 12.15 248.942 12.15C247.802 12.15 246.912 12.69 246.272 13.77C245.652 14.85 245.342 16.76 245.342 19.5C245.342 22.16 245.652 24.03 246.272 25.11C246.912 26.17 247.802 26.7 248.942 26.7C249.722 26.7 250.442 26.52 251.102 26.16C251.782 25.78 252.312 25.29 252.692 24.69C253.092 24.07 253.292 23.44 253.292 22.8H254.042C254.042 23.6 253.802 24.36 253.322 25.08C252.842 25.8 252.172 26.38 251.312 26.82C250.452 27.24 249.462 27.45 248.342 27.45ZM256.15 26.55L257.95 26.1V6.9L256.15 6.45V6H260.05C261.85 6 262.75 6.9 262.75 8.7V26.1L264.55 26.55V27H256.15V26.55ZM274.446 27.45C271.886 27.45 269.896 26.75 268.476 25.35C267.056 23.93 266.346 21.98 266.346 19.5C266.346 17.88 266.656 16.47 267.276 15.27C267.896 14.07 268.756 13.15 269.856 12.51C270.976 11.87 272.256 11.55 273.696 11.55C275.136 11.55 276.396 11.82 277.476 12.36C278.576 12.9 279.416 13.63 279.996 14.55C280.596 15.45 280.896 16.45 280.896 17.55C280.896 18.05 280.846 18.48 280.746 18.84L280.596 19.35C279.736 19.53 278.806 19.68 277.806 19.8C275.706 20.1 273.586 20.25 271.446 20.25C271.446 22.57 271.766 24.23 272.406 25.23C273.046 26.21 273.926 26.7 275.046 26.7C275.826 26.7 276.546 26.52 277.206 26.16C277.886 25.78 278.416 25.29 278.796 24.69C279.196 24.07 279.396 23.44 279.396 22.8H280.146C280.146 23.6 279.906 24.36 279.426 25.08C278.946 25.8 278.276 26.38 277.416 26.82C276.556 27.24 275.566 27.45 274.446 27.45ZM271.446 19.5C272.726 19.5 273.766 19.45 274.566 19.35C274.906 19.33 275.266 19.28 275.646 19.2C275.666 19.1 275.716 18.88 275.796 18.54C275.896 18.04 275.946 17.51 275.946 16.95C275.946 15.29 275.726 14.08 275.286 13.32C274.846 12.54 274.316 12.15 273.696 12.15C272.196 12.15 271.446 14.6 271.446 19.5Z" fill="#F5EDDD"/>
<path d="M59.014 54L59.91 51.48H64.166L65.076 54H66.518L62.808 43.878H61.282L57.586 54H59.014ZM61.87 46.062C61.94 45.852 62.01 45.614 62.038 45.474C62.066 45.628 62.136 45.866 62.206 46.062L63.76 50.29H60.33L61.87 46.062ZM73.0636 54V46.174L78.2436 54H79.6156V43.878H78.2436V51.704L73.0636 43.878H71.6916V54H73.0636ZM84.7029 54.168C86.3969 54.168 87.5449 53.342 87.8809 51.872H86.6489C86.4249 52.656 85.7529 53.076 84.7309 53.076C83.4289 53.076 82.6729 52.278 82.5749 50.836L87.8669 50.822V50.332C87.8669 48.302 86.5929 46.958 84.6469 46.958C82.6589 46.958 81.3009 48.442 81.3009 50.584C81.3009 52.712 82.6869 54.168 84.7029 54.168ZM84.6469 48.064C85.8089 48.064 86.5509 48.82 86.5509 49.954H82.6029C82.7709 48.75 83.4989 48.064 84.6469 48.064ZM90.5743 54H91.8763L93.0663 50.346C93.3183 49.52 93.4443 49.072 93.5143 48.736C93.5843 49.114 93.7243 49.646 93.9483 50.332L95.1383 54H96.3843L98.7223 47.154H97.3503L96.2023 50.71C96.0063 51.312 95.8803 51.788 95.7683 52.334C95.6563 51.844 95.4323 51.046 95.3203 50.71L94.1863 47.154H92.8423L91.6943 50.71C91.5403 51.158 91.3583 51.732 91.2463 52.334C91.1203 51.732 90.9803 51.214 90.8263 50.71L89.6923 47.154H88.3343L90.5743 54ZM99.1947 52.012C99.1947 53.314 100.217 54.168 101.827 54.168C103.451 54.168 104.571 53.342 104.571 52.04C104.571 51.018 103.997 50.486 102.835 50.206L101.631 49.912C100.959 49.744 100.623 49.436 100.623 48.974C100.623 48.344 101.085 47.98 101.911 47.98C102.709 47.98 103.171 48.414 103.199 49.1H104.459C104.431 47.798 103.451 46.958 101.953 46.958C100.441 46.958 99.3767 47.756 99.3767 49.016C99.3767 50.024 99.9507 50.626 101.169 50.92L102.373 51.2C103.087 51.382 103.311 51.662 103.311 52.124C103.311 52.754 102.779 53.132 101.855 53.132C100.987 53.132 100.455 52.712 100.455 52.012H99.1947ZM116.658 54H118.198L116.63 52.208C117.12 51.424 117.4 50.416 117.4 49.268H116.126C116.126 50.024 116 50.696 115.776 51.242L113.354 48.484C114.656 47.602 115.174 46.818 115.174 45.81C115.174 44.564 114.222 43.71 112.836 43.71C111.408 43.71 110.414 44.62 110.414 45.894C110.414 46.65 110.736 47.266 111.604 48.26C109.924 49.128 109.126 50.122 109.126 51.368C109.126 53.062 110.554 54.182 112.724 54.182C113.998 54.182 115.076 53.79 115.86 53.09L116.658 54ZM111.66 45.88C111.66 45.208 112.108 44.774 112.822 44.774C113.522 44.774 113.942 45.18 113.942 45.838C113.942 46.594 113.536 47.21 112.682 47.728C111.898 46.832 111.66 46.412 111.66 45.88ZM110.498 51.27C110.498 50.36 111.002 49.702 112.262 49.002L115.104 52.222C114.544 52.768 113.788 53.048 112.85 53.048C111.38 53.048 110.498 52.376 110.498 51.27ZM124.168 54V49.674C124.168 48.26 124.14 47.224 124.07 46.734L127.01 54H128.298L131.252 46.706C131.182 47.42 131.168 48.106 131.168 49.996V54H132.512V43.878H131.14L127.654 52.39L124.168 43.878H122.824V54H124.168ZM137.599 54.168C139.293 54.168 140.441 53.342 140.777 51.872H139.545C139.321 52.656 138.649 53.076 137.627 53.076C136.325 53.076 135.569 52.278 135.471 50.836L140.763 50.822V50.332C140.763 48.302 139.489 46.958 137.543 46.958C135.555 46.958 134.197 48.442 134.197 50.584C134.197 52.712 135.583 54.168 137.599 54.168ZM137.543 48.064C138.705 48.064 139.447 48.82 139.447 49.954H135.499C135.667 48.75 136.395 48.064 137.543 48.064ZM144.977 54.168C146.069 54.168 146.993 53.692 147.441 52.754L147.553 54H148.729V43.696H147.427V48.26C146.965 47.42 146.083 46.958 145.033 46.958C143.003 46.958 141.785 48.498 141.785 50.598C141.785 52.684 142.989 54.168 144.977 54.168ZM145.243 52.978C143.899 52.978 143.115 51.97 143.115 50.556C143.115 49.156 143.899 48.148 145.243 48.148C146.587 48.148 147.413 49.156 147.413 50.556C147.413 51.984 146.587 52.978 145.243 52.978ZM151.272 45.53C151.748 45.53 152.14 45.138 152.14 44.662C152.14 44.172 151.748 43.794 151.272 43.794C150.796 43.794 150.404 44.172 150.404 44.662C150.404 45.138 150.796 45.53 151.272 45.53ZM150.628 54H151.944V47.154H150.628V54ZM155.856 54.168C156.962 54.168 157.9 53.678 158.25 52.894L158.39 54H159.51V49.702C159.51 47.854 158.362 46.958 156.668 46.958C154.904 46.958 153.728 47.896 153.728 49.324H154.876C154.876 48.498 155.506 48.008 156.612 48.008C157.536 48.008 158.222 48.414 158.222 49.562V49.758L156.066 49.926C154.456 50.052 153.518 50.836 153.518 52.096C153.518 53.342 154.386 54.168 155.856 54.168ZM156.234 53.146C155.38 53.146 154.848 52.782 154.848 52.054C154.848 51.382 155.324 50.934 156.486 50.822L158.236 50.682V51.046C158.236 52.334 157.48 53.146 156.234 53.146ZM169.585 54.154C171.867 54.154 173.673 52.81 174.107 50.794H172.651C172.273 52.04 171.097 52.838 169.613 52.838C167.569 52.838 166.225 51.298 166.225 48.932C166.225 46.566 167.569 45.026 169.613 45.026C171.083 45.026 172.217 45.824 172.595 47.14H174.065C173.687 45.068 171.937 43.71 169.655 43.71C166.757 43.71 164.783 45.824 164.783 48.946C164.783 52.082 166.701 54.154 169.585 54.154ZM175.117 50.57C175.117 52.684 176.629 54.168 178.687 54.168C180.731 54.168 182.243 52.684 182.243 50.57C182.243 48.456 180.731 46.972 178.687 46.972C176.629 46.972 175.117 48.456 175.117 50.57ZM176.447 50.57C176.447 49.142 177.357 48.148 178.687 48.148C180.003 48.148 180.927 49.142 180.927 50.57C180.927 51.998 180.003 52.992 178.687 52.992C177.357 52.992 176.447 51.998 176.447 50.57ZM185.016 54V49.94C185.016 48.848 185.674 48.162 186.668 48.162C187.592 48.162 188.18 48.75 188.18 49.828V54H189.482V49.94C189.482 48.848 190.14 48.148 191.134 48.148C192.058 48.148 192.66 48.764 192.66 49.842V54H193.948V49.52C193.948 47.938 192.996 46.958 191.428 46.958C190.364 46.958 189.538 47.49 189.216 48.344C188.866 47.49 188.11 46.958 187.046 46.958C186.08 46.958 185.352 47.406 185.002 48.05L184.876 47.154H183.7V54H185.016ZM195.772 57.066H197.088V52.88C197.536 53.72 198.446 54.182 199.538 54.182C201.568 54.182 202.716 52.614 202.716 50.528C202.716 48.428 201.498 46.958 199.538 46.958C198.446 46.958 197.522 47.448 197.06 48.386L196.962 47.154H195.772V57.066ZM197.102 50.584C197.102 49.156 197.914 48.162 199.258 48.162C200.602 48.162 201.4 49.17 201.4 50.584C201.4 51.984 200.602 52.992 199.258 52.992C197.914 52.992 197.102 51.984 197.102 50.584ZM206.169 54.168C207.275 54.168 208.213 53.678 208.563 52.894L208.703 54H209.823V49.702C209.823 47.854 208.675 46.958 206.981 46.958C205.217 46.958 204.041 47.896 204.041 49.324H205.189C205.189 48.498 205.819 48.008 206.925 48.008C207.849 48.008 208.535 48.414 208.535 49.562V49.758L206.379 49.926C204.769 50.052 203.831 50.836 203.831 52.096C203.831 53.342 204.699 54.168 206.169 54.168ZM206.547 53.146C205.693 53.146 205.161 52.782 205.161 52.054C205.161 51.382 205.637 50.934 206.799 50.822L208.549 50.682V51.046C208.549 52.334 207.793 53.146 206.547 53.146ZM212.961 54V50.374C212.961 49.044 213.675 48.162 214.907 48.162C215.915 48.162 216.559 48.722 216.559 50.108V54H217.875V49.814C217.875 48.064 217.049 46.958 215.243 46.958C214.277 46.958 213.409 47.42 212.975 48.204L212.835 47.154H211.645V54H212.961ZM218.903 57.066C219.253 57.15 219.617 57.206 220.051 57.206C221.101 57.206 221.787 56.716 222.249 55.54L225.483 47.154H224.125L222.095 52.67L220.107 47.154H218.721L221.479 54.364L221.241 55.022C220.919 55.89 220.415 55.988 219.785 55.988H218.903V57.066Z" fill="#F5EDDD"/>
</svg>
