<svg width="80" height="80" viewBox="0 0 80 80" fill="none" xmlns="http://www.w3.org/2000/svg">
<rect x="62" y="8" width="3" height="23" fill="url(#paint0_linear_3_537)"/>
<rect x="46" y="26" width="4" height="9" fill="url(#paint1_linear_3_537)"/>
<path d="M29.5 39V50L38.5 44.5L29.5 39Z" fill="url(#paint2_linear_3_537)"/>
<circle cx="26" cy="66" r="3" fill="url(#paint3_linear_3_537)"/>
<path d="M63.6959 34.0816C63.3644 34.0816 63.0465 34.2133 62.812 34.4477C62.5776 34.6821 62.4459 35.0001 62.4459 35.3316V58.4005H4.375V31.288C4.375 30.5996 4.93516 30.0394 5.62375 30.0394H41.1516C41.4831 30.0394 41.801 29.9077 42.0354 29.6733C42.2699 29.4389 42.4016 29.1209 42.4016 28.7894C42.4016 28.4579 42.2699 28.1399 42.0354 27.9055C41.801 27.6711 41.4831 27.5394 41.1516 27.5394H5.62375C3.55672 27.5394 1.875 29.2211 1.875 31.288V70.1313C1.875 72.1983 3.55672 73.88 5.62375 73.88H61.197C63.2641 73.88 64.9458 72.1983 64.9458 70.1313V35.3316C64.9458 35.1674 64.9135 35.0049 64.8507 34.8533C64.7879 34.7016 64.6958 34.5638 64.5798 34.4477C64.4637 34.3316 64.3259 34.2396 64.1743 34.1768C64.0226 34.1139 63.8601 34.0816 63.6959 34.0816ZM61.1972 71.38H5.62375C4.93516 71.38 4.375 70.8199 4.375 70.1313V60.9005H62.4458V70.1313C62.4459 70.8199 61.8856 71.38 61.1972 71.38ZM29.6937 37.7299C29.5037 37.6201 29.2882 37.5623 29.0687 37.5623C28.8493 37.5623 28.6337 37.62 28.4437 37.7297C28.2536 37.8394 28.0958 37.9973 27.9861 38.1873C27.8764 38.3774 27.8187 38.5929 27.8187 38.8124V50.3578C27.8188 50.5773 27.8765 50.7928 27.9862 50.9828C28.0959 51.1729 28.2537 51.3306 28.4438 51.4404C28.6338 51.5501 28.8493 51.6078 29.0688 51.6078C29.2882 51.6078 29.5037 51.5501 29.6937 51.4403L39.6923 45.6675C39.8824 45.5579 40.0403 45.4001 40.15 45.21C40.2598 45.02 40.3176 44.8044 40.3176 44.585C40.3176 44.3655 40.2598 44.1499 40.15 43.9599C40.0403 43.7698 39.8824 43.612 39.6923 43.5024L29.6937 37.7299ZM30.3187 48.1927V40.9774L36.5673 44.5849L30.3187 48.1927ZM55.7845 64.8902H30.2495C29.717 63.1958 28.1317 61.9635 26.2639 61.9635C24.3961 61.9635 22.8108 63.1958 22.2783 64.8902H11.0366C10.705 64.8902 10.3871 65.0219 10.1527 65.2563C9.91826 65.4907 9.78656 65.8087 9.78656 66.1402C9.78656 66.4717 9.91826 66.7897 10.1527 67.0241C10.3871 67.2585 10.705 67.3902 11.0366 67.3902H22.2783C22.8108 69.0846 24.3961 70.3171 26.2639 70.3171C28.1317 70.3171 29.717 69.0846 30.2495 67.3902H55.7845C56.1161 67.3902 56.434 67.2585 56.6684 67.0241C56.9028 66.7897 57.0345 66.4717 57.0345 66.1402C57.0345 65.8087 56.9028 65.4907 56.6684 65.2563C56.434 65.0219 56.1161 64.8902 55.7845 64.8902ZM26.2639 67.8171C25.3394 67.8171 24.587 67.0649 24.587 66.1402C24.587 65.2157 25.3392 64.4635 26.2639 64.4635C27.1886 64.4635 27.9408 65.2157 27.9408 66.1402C27.9408 67.0649 27.1884 67.8171 26.2639 67.8171ZM70.6162 19.6174C70.6162 17.4811 69.1377 15.6846 67.1503 15.1952V9.07441C67.1503 8.01566 66.6047 7.06441 65.6906 6.52972C64.7767 5.99534 63.68 5.98597 62.7572 6.50472C62.1345 6.85488 61.5089 7.21613 60.8466 7.59863C57.3914 9.59378 53.48 11.8525 49.4933 12.7021L43.7463 12.7019C39.9734 12.7019 36.9039 15.7714 36.9039 19.5441C36.9039 23.3169 39.9734 26.3866 43.7463 26.3866H44.2238V32.2688C44.2238 34.6525 46.1631 36.5919 48.5469 36.5919H49.6225C49.954 36.5919 50.272 36.4602 50.5064 36.2258C50.7408 35.9914 50.8725 35.6734 50.8725 35.3419V26.6666C55.125 27.6857 58.8645 29.903 62.6245 32.2849C63.1117 32.5935 63.6545 32.7486 64.1994 32.7486C64.6852 32.7485 65.1727 32.6252 65.6233 32.3772C66.5794 31.8511 67.15 30.8855 67.15 29.7944V24.0394C69.1377 23.5499 70.6162 21.7535 70.6162 19.6174ZM50.8728 14.9427C54.137 14.1049 57.2358 12.5213 60.0842 10.9158V27.826C57.2363 26.2163 54.2002 24.8202 50.8727 24.1042L50.8728 14.9427ZM39.4042 19.5441C39.4042 17.1499 41.3522 15.2019 43.7466 15.2019L48.373 15.2021L48.3728 23.8866L43.7464 23.8867C41.352 23.8866 39.4042 21.9385 39.4042 19.5441ZM46.7239 32.2689V26.3866H48.3728V34.0838C47.4489 33.9957 46.7239 33.2153 46.7239 32.2689ZM64.6503 29.7944C64.6503 29.975 64.5766 30.0999 64.4184 30.1869C64.26 30.2744 64.115 30.2694 63.9625 30.173C63.5047 29.8828 63.0454 29.5951 62.5844 29.31V9.48222C63.0491 9.2136 63.5152 8.94745 63.9827 8.68378C64.1356 8.59816 64.2773 8.59925 64.4286 8.68753C64.58 8.77597 64.6505 8.89909 64.6505 9.07441V29.7944H64.6503ZM67.1503 21.3564V17.878C67.7294 18.2417 68.1162 18.8844 68.1162 19.6174C68.1162 20.3502 67.7294 20.9928 67.1503 21.3564ZM70.8894 14.2169C70.7733 14.1009 70.6812 13.9631 70.6184 13.8114C70.5556 13.6598 70.5233 13.4973 70.5233 13.3332C70.5233 13.169 70.5556 13.0065 70.6184 12.8549C70.6812 12.7032 70.7733 12.5655 70.8894 12.4494L72.7266 10.6122C72.9623 10.3845 73.2781 10.2585 73.6058 10.2614C73.9336 10.2642 74.2471 10.3957 74.4788 10.6274C74.7106 10.8592 74.8421 11.1727 74.8449 11.5005C74.8478 11.8282 74.7218 12.144 74.4941 12.3797L72.6569 14.2169C72.5408 14.333 72.4031 14.4251 72.2514 14.4879C72.0998 14.5507 71.9373 14.583 71.7731 14.583C71.609 14.583 71.4465 14.5507 71.2948 14.4879C71.1432 14.4251 71.0054 14.333 70.8894 14.2169ZM74.2061 26.7355C74.6942 27.2236 74.6942 28.0149 74.2061 28.503C73.718 28.9911 72.9266 28.9911 72.4386 28.503L70.6014 26.6657C70.4853 26.5496 70.3933 26.4118 70.3304 26.2602C70.2676 26.1086 70.2353 25.946 70.2353 25.7819C70.2353 25.6178 70.2676 25.4552 70.3304 25.3036C70.3933 25.152 70.4853 25.0142 70.6014 24.8982C70.7175 24.7821 70.8552 24.69 71.0069 24.6272C71.1585 24.5644 71.321 24.532 71.4852 24.532C71.6493 24.532 71.8118 24.5644 71.9634 24.6272C72.1151 24.69 72.2529 24.7821 72.3689 24.8982L74.2061 26.7355ZM78.125 19.6172C78.125 19.7814 78.0927 19.9439 78.0298 20.0956C77.967 20.2472 77.875 20.385 77.7589 20.5011C77.6428 20.6172 77.505 20.7093 77.3534 20.7721C77.2017 20.8349 77.0392 20.8672 76.875 20.8672H74.2767C73.9452 20.8672 73.6273 20.7355 73.3928 20.5011C73.1584 20.2667 73.0267 19.9487 73.0267 19.6172C73.0267 19.2857 73.1584 18.9678 73.3928 18.7333C73.6273 18.4989 73.9452 18.3672 74.2767 18.3672H76.875C77.2065 18.3672 77.5245 18.4989 77.7589 18.7333C77.9933 18.9678 78.125 19.2857 78.125 19.6172Z" fill="#050505"/>
<defs>
<linearGradient id="paint0_linear_3_537" x1="62.75" y1="9.64286" x2="70.0427" y2="11.9989" gradientUnits="userSpaceOnUse">
<stop stop-color="#F0C001"/>
<stop offset="0.5" stop-color="#4BB567"/>
<stop offset="1" stop-color="#0BC4FE"/>
</linearGradient>
<linearGradient id="paint1_linear_3_537" x1="47" y1="26.6429" x2="51.8549" y2="31.9874" gradientUnits="userSpaceOnUse">
<stop stop-color="#F0C001"/>
<stop offset="0.5" stop-color="#4BB567"/>
<stop offset="1" stop-color="#0BC4FE"/>
</linearGradient>
<linearGradient id="paint2_linear_3_537" x1="31.75" y1="39.7857" x2="36.4811" y2="49.3736" gradientUnits="userSpaceOnUse">
<stop stop-color="#F0C001"/>
<stop offset="0.5" stop-color="#4BB567"/>
<stop offset="1" stop-color="#0BC4FE"/>
</linearGradient>
<linearGradient id="paint3_linear_3_537" x1="24.5" y1="63.4286" x2="26.7575" y2="69.0203" gradientUnits="userSpaceOnUse">
<stop stop-color="#F0C001"/>
<stop offset="0.5" stop-color="#4BB567"/>
<stop offset="1" stop-color="#0BC4FE"/>
</linearGradient>
</defs>
</svg>
