<svg width="80" height="80" viewBox="0 0 80 80" fill="none" xmlns="http://www.w3.org/2000/svg">
<g clip-path="url(#clip0_3_452)">
<path d="M72 33.5H59V46H78L72 33.5Z" fill="url(#paint0_linear_3_452)"/>
<rect x="2" y="46" width="6" height="6" fill="url(#paint1_linear_3_452)"/>
<path d="M73.582 33.0515L71.3212 28.5298C70.5219 26.9311 68.9155 25.9381 67.1286 25.9381H54.0603V15.0011C54.0603 12.4165 51.9577 10.3137 49.373 10.3137H4.68734C2.10266 10.3137 0 12.4164 0 15.0011V55.6243C0 58.2089 2.10266 60.3117 4.68734 60.3117H9.37469C9.37469 62.7108 10.2817 64.9015 11.7694 66.5614H1.5625C0.699531 66.5614 0 67.2611 0 68.1239C0 68.9867 0.699531 69.6864 1.5625 69.6864H78.4344C79.2973 69.6864 79.9969 68.9867 79.9969 68.1239C79.9969 67.2611 79.2973 66.5614 78.4344 66.5614H74.4772C75.965 64.9014 76.8719 62.7108 76.8719 60.3117C76.8719 60.2226 76.8677 60.134 76.8652 60.0451C78.6872 59.402 79.9967 57.6637 79.9967 55.6243V46.9872C79.9967 45.1639 80.3578 46.8661 73.582 33.0515ZM71.2189 35.3126L75.9062 44.6873H60.31V35.3126H71.2189ZM3.12484 47.8122H6.24969V50.937H3.12484V47.8122ZM18.7492 66.5614C15.3031 66.5614 12.4995 63.7576 12.4995 60.3117C12.4995 59.8861 12.5417 59.4672 12.6261 59.0598C13.2137 56.1639 15.7889 54.0618 18.7492 54.0618C21.7095 54.0618 24.2848 56.1637 24.8723 59.0598L24.8738 59.0664C24.9569 59.467 24.9989 59.8861 24.9989 60.3117C24.9989 63.7578 22.1953 66.5614 18.7492 66.5614ZM18.7492 50.937C14.7459 50.937 11.213 53.5015 9.91047 57.1867H4.68734C3.82578 57.1867 3.12484 56.4858 3.12484 55.6242V54.0617H7.81219C8.67516 54.0617 9.37469 53.362 9.37469 52.4992V46.2495C9.37469 45.3867 8.67516 44.687 7.81219 44.687H3.12484V15.0011C3.12484 14.1395 3.82578 13.4386 4.68734 13.4386H49.373C50.2345 13.4386 50.9355 14.1395 50.9355 15.0011V57.1868H27.5872C26.2823 53.4997 22.7508 50.937 18.7492 50.937ZM25.7291 66.5614C27.2169 64.9014 28.1238 62.7108 28.1238 60.3117H58.1225C58.1225 62.7108 59.0295 64.9015 60.5172 66.5614H25.7291ZM67.4972 66.5614C64.0511 66.5614 61.2475 63.7576 61.2475 60.3117C61.2475 59.8861 61.2897 59.4672 61.3741 59.0598C61.9617 56.1639 64.5369 54.0618 67.4972 54.0618C70.4575 54.0618 73.0328 56.1637 73.6203 59.0598L73.6217 59.0664C73.7048 59.467 73.7469 59.8861 73.7469 60.3117C73.747 63.7578 70.9433 66.5614 67.4972 66.5614ZM76.8719 55.6243C76.8719 56.144 76.6158 56.6039 76.2244 56.8883C74.8383 53.3618 71.3898 50.9372 67.4972 50.9372C63.4939 50.9372 59.9609 53.5017 58.6584 57.1868H54.0602V29.0629H67.1284C67.4189 29.062 67.7038 29.1425 67.9508 29.2953C68.1978 29.448 68.3971 29.6669 68.5261 29.9272L69.6564 32.1878H58.7477C57.8847 32.1878 57.1852 32.8875 57.1852 33.7503V46.2498C57.1852 47.1126 57.8847 47.8123 58.7477 47.8123H76.8719V55.6243Z" fill="#050505"/>
<path d="M43.1229 19.6884H23.4362C22.5732 19.6884 21.8737 20.388 21.8737 21.2509C21.8737 22.1137 22.5732 22.8134 23.4362 22.8134H43.1229C43.9859 22.8134 44.6854 22.1137 44.6854 21.2509C44.6854 20.388 43.9857 19.6884 43.1229 19.6884ZM43.1229 25.938H29.6859C28.8229 25.938 28.1234 26.6377 28.1234 27.5005C28.1234 28.3634 28.8229 29.063 29.6859 29.063H43.1229C43.9859 29.063 44.6854 28.3634 44.6854 27.5005C44.6854 26.6377 43.9857 25.938 43.1229 25.938ZM67.4968 57.1868C65.7737 57.1868 64.372 58.5887 64.372 60.3116C64.372 62.0348 65.7739 63.4365 67.4968 63.4365C69.22 63.4365 70.6217 62.0346 70.6217 60.3116C70.6217 58.5885 69.22 57.1868 67.4968 57.1868ZM18.7489 57.1868C17.0257 57.1868 15.624 58.5887 15.624 60.3116C15.624 62.0348 17.0259 63.4365 18.7489 63.4365C20.472 63.4365 21.8737 62.0346 21.8737 60.3116C21.8737 58.5885 20.472 57.1868 18.7489 57.1868Z" fill="#050505"/>
</g>
<defs>
<linearGradient id="paint0_linear_3_452" x1="63.75" y1="34.3929" x2="67.1114" y2="47.0482" gradientUnits="userSpaceOnUse">
<stop stop-color="#F0C001"/>
<stop offset="0.5" stop-color="#4BB567"/>
<stop offset="1" stop-color="#0BC4FE"/>
</linearGradient>
<linearGradient id="paint1_linear_3_452" x1="3.5" y1="46.4286" x2="5.75751" y2="52.0203" gradientUnits="userSpaceOnUse">
<stop stop-color="#F0C001"/>
<stop offset="0.5" stop-color="#4BB567"/>
<stop offset="1" stop-color="#0BC4FE"/>
</linearGradient>
<clipPath id="clip0_3_452">
<rect width="80" height="80" fill="white"/>
</clipPath>
</defs>
</svg>
