<svg width="80" height="80" viewBox="0 0 80 80" fill="none" xmlns="http://www.w3.org/2000/svg">
<g clip-path="url(#clip0_3_503)">
<rect x="9" y="42" width="10" height="8" fill="url(#paint0_linear_3_503)"/>
<rect x="9" y="62" width="9" height="4" fill="url(#paint1_linear_3_503)"/>
<rect x="23" y="62" width="9" height="4" fill="url(#paint2_linear_3_503)"/>
<rect x="37" y="62" width="9" height="4" fill="url(#paint3_linear_3_503)"/>
<rect x="51" y="62" width="9" height="4" fill="url(#paint4_linear_3_503)"/>
<path d="M79.4359 37.6112L61.7875 7.04357C61.2244 6.06842 60.3125 5.37013 59.2194 5.07717C58.1264 4.7842 56.9875 4.93295 56.0122 5.49607L11.2911 31.3158H4.22797C1.89672 31.3158 0 33.2125 0 35.5436V70.8401C0 73.1714 1.89672 75.0679 4.22797 75.0679H63.8341C66.1653 75.0679 68.0619 73.1714 68.0619 70.8401V49.0601L77.8884 43.3867C79.9072 42.2209 80.6014 39.6301 79.4359 37.6112ZM31.3803 31.3158L62.5308 13.3309L64.5958 16.9075L39.6402 31.3156H31.3803V31.3158ZM57.2622 7.66107C57.6591 7.43185 58.1245 7.37185 58.5723 7.49185C59.0205 7.61201 59.3933 7.89654 59.6225 8.29342L61.2808 11.1658L26.3803 31.3158H16.2911L57.2622 7.66107ZM65.5617 70.8401C65.5617 71.7929 64.7867 72.5679 63.8339 72.5679H4.22797C3.27516 72.5679 2.5 71.7929 2.5 70.8401V35.5436C2.5 34.5908 3.27516 33.8156 4.22797 33.8156H63.8341C64.7869 33.8156 65.5619 34.5908 65.5619 35.5436V70.8401H65.5617ZM76.6383 41.2215L68.0617 46.1733V35.5436C68.0617 33.2123 66.1652 31.3156 63.8339 31.3156H44.6402L65.8458 19.0725L77.2708 38.8611C77.7472 39.6864 77.4634 40.7453 76.6383 41.2215ZM16.6087 60.3709H10.5684C9.06688 60.3709 7.84516 61.5925 7.84516 63.0942V64.715C7.84516 66.2165 9.06672 67.4383 10.5684 67.4383H16.6089C18.1105 67.4383 19.3322 66.2165 19.3322 64.715V63.0942C19.3322 61.5925 18.1105 60.3709 16.6087 60.3709ZM16.8322 64.7148C16.8322 64.8359 16.73 64.9381 16.6089 64.9381H10.5684C10.5095 64.9373 10.4531 64.9136 10.4114 64.8719C10.3697 64.8301 10.3459 64.7738 10.3452 64.7148V63.094C10.3452 62.9731 10.4473 62.8708 10.5684 62.8708H16.6089C16.73 62.8708 16.8322 62.9729 16.8322 63.094V64.7148ZM30.5683 60.3709H24.5278C23.0262 60.3709 21.8045 61.5925 21.8045 63.0942V64.715C21.8045 66.2165 23.0262 67.4383 24.5278 67.4383H30.5683C32.0698 67.4383 33.2916 66.2165 33.2916 64.715V63.0942C33.2916 61.5925 32.07 60.3709 30.5683 60.3709ZM30.7916 64.7148C30.7916 64.8359 30.6894 64.9381 30.5683 64.9381H24.5278C24.4688 64.9373 24.4125 64.9136 24.3708 64.8719C24.3291 64.8301 24.3053 64.7738 24.3045 64.7148V63.094C24.3045 62.9731 24.4067 62.8708 24.5278 62.8708H30.5683C30.6892 62.8708 30.7916 62.9729 30.7916 63.094V64.7148ZM44.5278 60.3709H38.4873C36.9858 60.3709 35.7641 61.5925 35.7641 63.0942V64.715C35.7641 66.2165 36.9856 67.4383 38.4873 67.4383H44.5278C46.0294 67.4383 47.2511 66.2165 47.2511 64.715V63.0942C47.2511 61.5925 46.0294 60.3709 44.5278 60.3709ZM44.7511 64.7148C44.7511 64.8359 44.6489 64.9381 44.5278 64.9381H38.4873C38.4284 64.9373 38.372 64.9136 38.3303 64.8719C38.2886 64.8301 38.2648 64.7738 38.2641 64.7148V63.094C38.2641 62.9731 38.3662 62.8708 38.4873 62.8708H44.5278C44.6489 62.8708 44.7511 62.9729 44.7511 63.094V64.7148ZM58.4873 60.3709H52.4469C50.9453 60.3709 49.7236 61.5925 49.7236 63.0942V64.715C49.7236 66.2165 50.9452 67.4383 52.4469 67.4383H58.4873C59.9889 67.4383 61.2106 66.2165 61.2106 64.715V63.0942C61.2106 61.5925 59.9889 60.3709 58.4873 60.3709ZM58.7106 64.7148C58.7106 64.8359 58.6084 64.9381 58.4873 64.9381H52.4469C52.3879 64.9373 52.3316 64.9136 52.2898 64.8719C52.2481 64.8301 52.2244 64.7738 52.2236 64.7148V63.094C52.2236 62.9731 52.3258 62.8708 52.4469 62.8708H58.4873C58.6083 62.8708 58.7106 62.9729 58.7106 63.094V64.7148ZM18.4847 40.9969H10.0922C8.85312 40.9969 7.84516 42.005 7.84516 43.2439V49.2267C7.84516 50.4658 8.85312 51.4737 10.0922 51.4737H18.4847C19.7238 51.4737 20.7317 50.4656 20.7317 49.2267V43.2439C20.7317 42.005 19.7236 40.9969 18.4847 40.9969ZM18.2317 48.9739H10.3452V43.4969H18.2317V48.9739ZM61.2106 39.6609C61.2106 39.9924 61.0789 40.3104 60.8445 40.5448C60.6101 40.7792 60.2921 40.9109 59.9606 40.9109H38.3031C37.9716 40.9109 37.6537 40.7792 37.4192 40.5448C37.1848 40.3104 37.0531 39.9924 37.0531 39.6609C37.0531 39.3294 37.1848 39.0115 37.4192 38.777C37.6537 38.5426 37.9716 38.4109 38.3031 38.4109H59.9606C60.2921 38.4109 60.6101 38.5426 60.8445 38.777C61.0789 39.0115 61.2106 39.3294 61.2106 39.6609ZM61.2106 44.0554C61.2106 44.387 61.0789 44.7049 60.8445 44.9393C60.6101 45.1737 60.2921 45.3054 59.9606 45.3054H47.7742C47.4427 45.3054 47.1248 45.1737 46.8903 44.9393C46.6559 44.7049 46.5242 44.387 46.5242 44.0554C46.5242 43.7239 46.6559 43.406 46.8903 43.1716C47.1248 42.9371 47.4427 42.8054 47.7742 42.8054H59.9606C60.2921 42.8054 60.6101 42.9371 60.8445 43.1716C61.0789 43.406 61.2106 43.7239 61.2106 44.0554Z" fill="#050505"/>
</g>
<defs>
<linearGradient id="paint0_linear_3_503" x1="11.5" y1="42.5714" x2="14.036" y2="50.4232" gradientUnits="userSpaceOnUse">
<stop stop-color="#F0C001"/>
<stop offset="0.5" stop-color="#4BB567"/>
<stop offset="1" stop-color="#0BC4FE"/>
</linearGradient>
<linearGradient id="paint1_linear_3_503" x1="11.25" y1="62.2857" x2="12.0037" y2="66.4859" gradientUnits="userSpaceOnUse">
<stop stop-color="#F0C001"/>
<stop offset="0.5" stop-color="#4BB567"/>
<stop offset="1" stop-color="#0BC4FE"/>
</linearGradient>
<linearGradient id="paint2_linear_3_503" x1="25.25" y1="62.2857" x2="26.0037" y2="66.4859" gradientUnits="userSpaceOnUse">
<stop stop-color="#F0C001"/>
<stop offset="0.5" stop-color="#4BB567"/>
<stop offset="1" stop-color="#0BC4FE"/>
</linearGradient>
<linearGradient id="paint3_linear_3_503" x1="39.25" y1="62.2857" x2="40.0037" y2="66.4859" gradientUnits="userSpaceOnUse">
<stop stop-color="#F0C001"/>
<stop offset="0.5" stop-color="#4BB567"/>
<stop offset="1" stop-color="#0BC4FE"/>
</linearGradient>
<linearGradient id="paint4_linear_3_503" x1="53.25" y1="62.2857" x2="54.0037" y2="66.4859" gradientUnits="userSpaceOnUse">
<stop stop-color="#F0C001"/>
<stop offset="0.5" stop-color="#4BB567"/>
<stop offset="1" stop-color="#0BC4FE"/>
</linearGradient>
<clipPath id="clip0_3_503">
<rect width="80" height="80" fill="white"/>
</clipPath>
</defs>
</svg>
