<svg width="81" height="65" viewBox="0 0 81 65" fill="none" xmlns="http://www.w3.org/2000/svg">
<path d="M1.30395 59.4562C2.06657 60.2188 3.10061 60.6477 4.17912 60.6488H32.5758C33.3247 60.6488 33.9318 60.0417 33.9318 59.2929C33.9318 58.544 33.3247 57.9369 32.5758 57.9369H4.17912C3.81951 57.9369 3.47462 57.7941 3.22034 57.5398C2.96605 57.2855 2.82319 56.9406 2.82319 56.581V5.05559C2.82319 4.69597 2.96605 4.35109 3.22034 4.0968C3.47462 3.84251 3.81951 3.69966 4.17912 3.69966H76.0435C76.4032 3.69966 76.748 3.84251 77.0023 4.0968C77.2566 4.35109 77.3995 4.69597 77.3995 5.05559V56.581C77.3995 56.9406 77.2566 57.2855 77.0023 57.5398C76.748 57.7941 76.4032 57.9369 76.0435 57.9369H55.0949C54.3461 57.9369 53.739 58.544 53.739 59.2929C53.739 60.0417 54.3461 60.6488 55.0949 60.6488H76.0435C77.122 60.6477 78.1561 60.2188 78.9187 59.4562C79.6813 58.6936 80.1103 57.6595 80.1113 56.581V5.05559C80.1103 3.97707 79.6813 2.94304 78.9187 2.18041C78.1561 1.41779 77.122 0.98887 76.0435 0.987793H4.17912C3.10061 0.98887 2.06657 1.41779 1.30395 2.18041C0.541321 2.94304 0.112405 3.97707 0.111328 5.05559V56.581C0.112405 57.6595 0.541321 58.6936 1.30395 59.4562Z" fill="black"/>
<path d="M78.7554 15.6336H1.46726C1.10764 15.6336 0.762758 15.4908 0.508471 15.2365C0.254185 14.9822 0.111328 14.6373 0.111328 14.2777C0.111328 13.9181 0.254185 13.5732 0.508471 13.3189C0.762758 13.0646 1.10764 12.9218 1.46726 12.9218H78.7554C79.115 12.9218 79.4599 13.0646 79.7142 13.3189C79.9685 13.5732 80.1113 13.9181 80.1113 14.2777C80.1113 14.6373 79.9685 14.9822 79.7142 15.2365C79.4599 15.4908 79.115 15.6336 78.7554 15.6336ZM72.6537 10.2099C72.2514 10.2099 71.8582 10.0906 71.5237 9.86711C71.1893 9.64363 70.9286 9.32597 70.7746 8.95433C70.6207 8.58268 70.5804 8.17373 70.6589 7.77919C70.7374 7.38466 70.9311 7.02225 71.2155 6.73781C71.5 6.45336 71.8624 6.25965 72.2569 6.18117C72.6514 6.10269 73.0604 6.14297 73.432 6.29691C73.8037 6.45085 74.1213 6.71154 74.3448 7.04602C74.5683 7.38049 74.6876 7.77372 74.6876 8.17599C74.6876 8.71541 74.4733 9.23274 74.0919 9.61417C73.7105 9.9956 73.1931 10.2099 72.6537 10.2099ZM66.552 10.2099C66.1497 10.2099 65.7565 10.0906 65.422 9.86711C65.0876 9.64363 64.8269 9.32597 64.6729 8.95433C64.519 8.58268 64.4787 8.17373 64.5572 7.77919C64.6357 7.38466 64.8294 7.02225 65.1138 6.73781C65.3983 6.45336 65.7607 6.25965 66.1552 6.18117C66.5498 6.10269 66.9587 6.14297 67.3303 6.29691C67.702 6.45085 68.0196 6.71154 68.2431 7.04602C68.4666 7.38049 68.5859 7.77372 68.5859 8.17599C68.5859 8.71541 68.3716 9.23274 67.9902 9.61417C67.6088 9.9956 67.0914 10.2099 66.552 10.2099ZM60.4503 10.2099C60.048 10.2099 59.6548 10.0906 59.3203 9.86711C58.9859 9.64363 58.7252 9.32597 58.5712 8.95433C58.4173 8.58268 58.377 8.17373 58.4555 7.77919C58.534 7.38466 58.7277 7.02225 59.0121 6.73781C59.2966 6.45336 59.659 6.25965 60.0535 6.18117C60.4481 6.10269 60.857 6.14297 61.2286 6.29691C61.6003 6.45085 61.9179 6.71154 62.1414 7.04602C62.3649 7.38049 62.4842 7.77372 62.4842 8.17599C62.4842 8.71541 62.2699 9.23274 61.8885 9.61417C61.5071 9.9956 60.9897 10.2099 60.4503 10.2099Z" fill="black"/>
<path d="M50.5292 43.9181L49.3543 29.1134C49.2811 28.1596 48.4744 27.4124 47.5178 27.4124H45.1972V27.3081C45.1972 24.504 42.9159 22.2227 40.1117 22.2227C37.3076 22.2227 35.0262 24.504 35.0262 27.3081V27.4124H32.7056C31.749 27.4124 30.9423 28.1596 30.8693 29.1114L29.6941 43.9201C29.6031 45.1058 30.0145 46.2862 30.8225 47.1587C31.6306 48.0311 32.7761 48.5315 33.9653 48.5315H46.2581C47.4472 48.5315 48.5928 48.0311 49.4009 47.1587C50.209 46.2862 50.6202 45.1058 50.5292 43.9181ZM36.5673 27.3081C36.5673 25.3537 38.1573 23.7637 40.1117 23.7637C42.0661 23.7637 43.6562 25.3538 43.6562 27.3081V27.4124H36.5673V27.3081Z" fill="url(#paint0_linear_107_80)"/>
<path d="M43.5804 35.2892C43.2796 34.9882 42.7917 34.9882 42.4909 35.2892L39.0504 38.7297L37.7274 37.4067C37.4266 37.1058 36.9387 37.1058 36.6378 37.4067C36.3369 37.7076 36.3369 38.1955 36.6378 38.4964L38.5056 40.3641C38.656 40.5146 38.8532 40.5899 39.0503 40.5899C39.2475 40.5899 39.4447 40.5146 39.5951 40.3641L43.5804 36.3789C43.8814 36.0779 43.8814 35.5901 43.5804 35.2892Z" fill="black"/>
<path d="M51.4158 54.5204L49.3381 49.8861C48.9061 49.0326 47.8594 48.6885 46.9979 49.1246C46.7249 49.2627 46.5043 49.463 46.3456 49.7019C45.8618 48.9951 44.9135 48.7387 44.1232 49.1387C43.86 49.2721 43.6353 49.4704 43.4702 49.7149C42.9858 49.0098 42.0379 48.7526 41.2484 49.1529C40.9811 49.2882 40.7642 49.483 40.6052 49.7141L39.5763 47.6814C39.1443 46.828 38.0976 46.4839 37.2362 46.9199C36.3819 47.3516 36.0387 48.3986 36.4712 49.2532L40.4241 57.0624L36.7563 56.4664C35.7696 56.2922 34.7902 56.878 34.4778 57.8309C34.2436 58.5453 34.6343 59.3172 35.3487 59.5515L43.4939 62.222C44.763 62.6381 46.1179 62.5351 47.3097 61.9318L49.114 61.0185C50.3044 60.4167 51.1885 59.3863 51.604 58.119C51.992 56.9355 51.9251 55.6575 51.4158 54.5204ZM48.7035 60.2075L46.8992 61.1208C45.9242 61.6143 44.8155 61.6986 43.7771 61.3581L35.6319 58.6876C35.3935 58.6094 35.2634 58.3524 35.3416 58.114C35.5138 57.5888 36.0541 57.2656 36.6048 57.3629L41.1602 58.1026C41.3291 58.1302 41.4984 58.0604 41.6001 57.9225C41.7006 57.7851 41.7158 57.6016 41.6385 57.4491L37.2822 48.8427C37.0761 48.4355 37.2398 47.9361 37.653 47.7263C37.849 47.6274 38.0761 47.6104 38.2847 47.6789C38.486 47.7449 38.662 47.8878 38.7654 48.0919L41.6702 53.8308C41.7834 54.0544 42.0573 54.1442 42.281 54.031C42.3925 53.9738 42.4711 53.8771 42.5074 53.7665C42.5436 53.656 42.5376 53.5315 42.4807 53.4191L41.2944 51.0756C41.0883 50.6685 41.2518 50.17 41.6658 49.9604C42.0719 49.7549 42.5721 49.9188 42.7776 50.3249L43.9644 52.6695C44.0776 52.8932 44.3515 52.983 44.5751 52.8697C44.6826 52.8149 44.764 52.7199 44.8015 52.6053C44.8378 52.4947 44.8317 52.3703 44.7748 52.2579L44.1692 51.0614C43.9631 50.6543 44.1265 50.1558 44.5406 49.9462C44.9467 49.7407 45.4468 49.9046 45.6524 50.3107L46.2609 51.5128C46.2623 51.5142 46.2614 51.514 46.2614 51.514L46.262 51.5151L46.2626 51.5162L46.2632 51.5173L46.264 51.5176C46.2649 51.5179 46.2646 51.5187 46.2646 51.5187C46.3812 51.7349 46.6501 51.8193 46.8695 51.7075C47.0932 51.5943 47.183 51.3205 47.0697 51.0968L47.0448 51.0475C46.9449 50.8502 46.9277 50.6254 46.9965 50.4155C47.0654 50.2056 47.2111 50.0353 47.4153 49.9319C47.8231 49.727 48.3204 49.891 48.5181 50.2772L50.5869 54.8924C51.0025 55.8218 51.0577 56.8674 50.7402 57.8358C50.4003 58.8724 49.6774 59.7146 48.7035 60.2075Z" fill="black"/>
<path d="M42.0863 48.0346C41.9137 46.4367 40.8198 45.0812 39.2994 44.5827C37.1562 43.88 34.8403 45.0523 34.1376 47.1955C33.6391 48.7159 34.0838 50.4 35.269 51.4861C35.3183 51.5309 35.3749 51.5629 35.4345 51.5824C35.5986 51.6362 35.787 51.5928 35.9117 51.4576C36.0807 51.2719 36.0677 50.9845 35.8832 50.8149C34.9605 49.97 34.614 48.6605 35.0015 47.4787C35.5481 45.8115 37.349 44.8999 39.0162 45.4465C40.198 45.834 41.0481 46.8886 41.1827 48.1324C41.209 48.3821 41.4336 48.5639 41.6829 48.5356C41.9329 48.5085 42.1134 48.2846 42.0863 48.0346Z" fill="black"/>
<defs>
<linearGradient id="paint0_linear_107_80" x1="29.6816" y1="23.4054" x2="46.4489" y2="49.1372" gradientUnits="userSpaceOnUse">
<stop stop-color="#F0C001"/>
<stop offset="0.5" stop-color="#4BB567"/>
<stop offset="1" stop-color="#0BC4FE"/>
</linearGradient>
</defs>
</svg>
