<svg width="80" height="80" viewBox="0 0 80 80" fill="none" xmlns="http://www.w3.org/2000/svg">
<rect x="42" y="29" width="10" height="14" fill="url(#paint0_linear_3_444)"/>
<path fill-rule="evenodd" clip-rule="evenodd" d="M27.891 24.054C28.7177 24.1876 29.5653 24.0847 30.336 23.7571V41.3012C30.336 43.0018 31.7196 44.3854 33.4203 44.3854H61.3548C63.0554 44.3854 64.4388 43.0018 64.4388 41.3012V23.757C64.9862 23.9904 65.5751 24.1108 66.1701 24.1109C66.4092 24.1108 66.6479 24.0917 66.884 24.054C68.0624 23.8659 69.0971 23.2301 69.7974 22.2637C70.4977 21.2973 70.7798 20.116 70.5917 18.9376C70.4035 17.7592 69.7677 16.7245 68.8026 16.0251L61.0521 10.394V4.26479C61.0521 3.93327 60.9204 3.61533 60.686 3.38091C60.4516 3.14649 60.1336 3.01479 59.8021 3.01479H55.6626C55.3311 3.01479 55.0131 3.14649 54.7787 3.38091C54.5443 3.61533 54.4126 3.93327 54.4126 4.26479V5.5701L50.0757 2.41917C48.4988 1.23073 46.367 1.21057 44.7646 2.37167L25.9735 16.0242C25.0071 16.7243 24.3713 17.7592 24.1832 18.9376C23.9951 20.116 24.2771 21.2975 24.9774 22.2637C25.6779 23.2301 26.7126 23.8659 27.891 24.054ZM51.0096 41.8854H43.7657V31.9999C43.7657 30.8274 44.7195 29.8737 45.892 29.8737H48.8834C50.0559 29.8737 51.0096 30.8274 51.0096 31.9999V41.8854ZM61.3549 41.8854H53.5096V31.9999C53.5096 29.449 51.4343 27.3737 48.8834 27.3737H45.892C43.341 27.3737 41.2657 29.449 41.2657 31.9999V41.8854H33.4204C33.1037 41.8854 32.8362 41.6179 32.8362 41.3012V22.0835L47.3878 11.5114L61.9392 22.0835V41.3012C61.939 41.6179 61.6715 41.8854 61.3549 41.8854ZM56.9128 5.51479H58.5523V8.57776L56.9128 7.38651V5.51479ZM27.442 18.0476L46.2331 4.3951C46.929 3.89104 47.8926 3.90089 48.5763 4.41948L48.597 4.43479L67.3346 18.0485C68.2132 18.6853 68.4101 19.9182 67.7735 20.7968C67.6224 21.0066 67.4312 21.1843 67.2109 21.3197C66.9906 21.4551 66.7457 21.5454 66.4902 21.5854C66.2353 21.627 65.9747 21.6176 65.7234 21.5577C65.4722 21.4979 65.2353 21.3887 65.0265 21.2367L48.1223 8.95495C47.9088 8.79965 47.6516 8.71599 47.3876 8.71599C47.1236 8.71599 46.8664 8.79965 46.6529 8.95495L29.7495 21.236C29.5406 21.3882 29.3036 21.4974 29.0523 21.5573C28.8009 21.6173 28.5402 21.6268 28.2851 21.5853C28.0297 21.5452 27.7847 21.4549 27.5645 21.3195C27.3442 21.1842 27.1529 21.0065 27.0018 20.7967C26.3653 19.9181 26.5621 18.6853 27.442 18.0476ZM76.9798 48.5015C76.2484 47.2806 73.2468 43.6543 65.3279 48.2662L51.3829 56.3884C50.6929 56.7901 49.9913 57.0753 49.2595 57.2471C49.5298 56.8121 49.742 56.3203 49.8876 55.7768C50.6021 53.1098 49.0173 50.3253 46.279 49.4376C46.2254 49.4204 46.1708 49.4067 46.1154 49.3965C42.1087 48.6739 38.1538 47.2442 34.9759 46.0953C33.8715 45.6959 32.8282 45.3187 31.941 45.031C28.3635 43.8703 25.134 45.306 22.4465 46.8632L12.0846 52.8665L11.3409 51.5525C10.4442 49.9673 8.42495 49.4076 6.83917 50.3048L2.92651 52.5192C1.34135 53.416 0.78151 55.4356 1.67885 57.0209L13.182 77.346C13.789 78.4185 14.9098 79.0217 16.0623 79.0217C16.6131 79.0217 17.1712 78.8839 17.6837 78.5939L21.5964 76.3793C23.1815 75.4823 23.7412 73.4628 22.844 71.8776L21.4343 69.3867L23.7838 68.0301L41.6396 72.8146C42.6496 73.0853 43.6409 73.2204 44.6109 73.2204C46.5446 73.2204 48.3935 72.6832 50.1334 71.6121L75.4404 56.0293C77.7527 54.6053 78.4867 51.0174 76.9798 48.5015ZM20.3649 74.2035L16.4523 76.4179C16.0737 76.6325 15.5723 76.4935 15.3576 76.1146L3.85448 55.7895C3.6401 55.4106 3.77917 54.9093 4.15792 54.6948L8.07057 52.4806C8.18886 52.4139 8.32244 52.3791 8.45823 52.3795C8.74073 52.3795 9.01932 52.5262 9.16495 52.784H9.1651L20.6682 73.109C20.8828 73.4878 20.7438 73.989 20.3649 74.2035ZM74.1296 53.9003L48.8226 69.4831C46.819 70.7165 44.6201 71.025 42.2868 70.3996L23.9307 65.4812C23.7722 65.4386 23.6068 65.4277 23.4441 65.4492C23.2813 65.4706 23.1244 65.524 22.9823 65.6062L20.2029 67.2109L13.316 55.0424L23.6999 49.0265C26.0213 47.6814 28.5335 46.5537 31.1698 47.4093C32.0174 47.6842 32.9946 48.0375 34.126 48.4464C37.369 49.6189 41.3993 51.0759 45.5813 51.8406C47.0318 52.3478 47.8429 53.7489 47.4726 55.1301C46.992 56.9242 45.4751 57.145 44.2682 57.0057C42.0938 56.5684 36.1696 54.8881 35.1623 54.6182C34.8439 54.5381 34.5069 54.5864 34.2238 54.7527C33.9408 54.919 33.7345 55.1899 33.6496 55.507C33.5646 55.8241 33.6078 56.1619 33.7697 56.4474C33.9317 56.7329 34.1995 56.9433 34.5153 57.0331C35.5049 57.2982 41.5359 59.0089 43.811 59.4642L43.8315 59.4682C44.4032 59.5823 44.9904 59.6889 45.5979 59.786C48.1942 60.201 50.4981 59.7967 52.6409 58.549L66.586 50.4268C70.5937 48.0928 73.6774 47.8534 74.8351 49.7864C75.6327 51.1178 75.2767 53.194 74.1296 53.9003ZM8.96979 55.9889C8.99744 56.1709 8.98884 56.3566 8.94447 56.5353C8.9001 56.714 8.82085 56.8821 8.71126 57.0301C8.60168 57.178 8.46393 57.3028 8.30594 57.3974C8.14794 57.4919 7.97282 57.5542 7.79064 57.5809C7.60846 57.6075 7.42281 57.5978 7.24438 57.5524C7.06595 57.507 6.89826 57.4268 6.75094 57.3164C6.60361 57.2059 6.47958 57.0675 6.38596 56.9089C6.29234 56.7504 6.23098 56.5749 6.20542 56.3926C6.15417 56.0271 6.24966 55.6562 6.47103 55.3608C6.69241 55.0655 7.02167 54.8698 7.38688 54.8164C7.75209 54.7631 8.12358 54.8565 8.42017 55.0761C8.71676 55.2958 8.91436 55.624 8.96979 55.9889Z" fill="#050505"/>
<defs>
<linearGradient id="paint0_linear_3_444" x1="44.5" y1="30" x2="51" y2="41.5" gradientUnits="userSpaceOnUse">
<stop stop-color="#F0C001"/>
<stop offset="0.5" stop-color="#4BB567"/>
<stop offset="1" stop-color="#0BC4FE"/>
</linearGradient>
</defs>
</svg>
