<svg width="75" height="75" viewBox="0 0 75 75" fill="none" xmlns="http://www.w3.org/2000/svg">
<g clip-path="url(#clip0_3_550)">
<path d="M5.15625 15.4688L4.21875 17.8125L5.15625 22.5L16.875 21.0938L26.25 19.6875L26.7187 15.9375L24.8437 13.125L5.15625 15.4688Z" fill="url(#paint0_linear_3_550)"/>
<path d="M9.84375 68.4375L8.90625 62.8125L30 60.4688L31.875 63.2812L31.4062 67.0312L11.7187 69.375L9.84375 68.4375Z" fill="url(#paint1_linear_3_550)"/>
<path d="M52.25 36.375C51.5028 36.2931 50.7517 36.2514 50 36.25C49.6685 36.25 49.3505 36.3817 49.1161 36.6161C48.8817 36.8505 48.75 37.1685 48.75 37.5C48.75 37.8315 48.8817 38.1495 49.1161 38.3839C49.3505 38.6183 49.6685 38.75 50 38.75C50.6614 38.7505 51.3224 38.7864 51.98 38.8575C55.9808 39.3433 59.6952 41.1827 62.5066 44.0703C65.3181 46.9579 67.0575 50.7201 67.4363 54.7325C67.4623 55.0457 67.6055 55.3376 67.8371 55.55C68.0688 55.7625 68.372 55.8798 68.6863 55.8787H68.7913C69.1216 55.8511 69.4274 55.6933 69.6415 55.4401C69.8555 55.1869 69.9602 54.8591 69.9325 54.5288C69.4992 49.9393 67.509 45.6361 64.2924 42.3338C61.0759 39.0315 56.8265 36.9289 52.25 36.375Z" fill="#050505"/>
<path d="M72.0309 25.2501C71.7899 22.7818 70.6376 20.492 68.7989 18.8278C66.9602 17.1636 64.5672 16.2446 62.0872 16.2501H37.9122C36.5285 16.2503 35.1601 16.5394 33.8946 17.0991C32.6292 17.6588 31.4945 18.4765 30.5634 19.5001C29.8639 19.0622 29.0383 18.87 28.2172 18.9538L27.9909 18.9776C28.094 18.5639 28.1261 18.1358 28.0859 17.7113L27.8222 15.2263C27.7704 14.7365 27.6227 14.2616 27.3873 13.8288C27.152 13.3961 26.8337 13.0139 26.4506 12.7042C26.0675 12.3945 25.6272 12.1633 25.1548 12.0239C24.6823 11.8844 24.187 11.8393 23.6972 11.8913L21.0859 12.1676C20.7457 11.0896 20.1195 10.1242 19.274 9.37392C18.4285 8.62368 17.3954 8.11678 16.2846 7.9072C15.1739 7.69762 14.027 7.79319 12.9663 8.18376C11.9056 8.57432 10.9706 9.24524 10.2609 10.1251C9.49679 11.0784 9.0272 12.2339 8.90969 13.4501L6.29594 13.7263C5.80607 13.7781 5.33119 13.9259 4.89844 14.1612C4.4657 14.3966 4.08355 14.7148 3.77385 15.0979C3.46415 15.481 3.23295 15.9213 3.09347 16.3938C2.95399 16.8662 2.90895 17.3615 2.96094 17.8513L3.22344 20.3376C3.27266 20.7616 3.39355 21.1741 3.58094 21.5576L3.35594 21.5813C2.86607 21.6331 2.39119 21.7809 1.95844 22.0162C1.5257 22.2516 1.14355 22.5698 0.833851 22.9529C0.524148 23.336 0.292951 23.7763 0.15347 24.2488C0.0139883 24.7212 -0.031045 25.2165 0.0209423 25.7063L0.283442 28.1913C0.380013 29.1119 0.813629 29.9642 1.50085 30.5843C2.18807 31.2044 3.08033 31.5484 4.00594 31.5501C4.13995 31.5503 4.27387 31.5436 4.40719 31.5301L10.6247 30.8751L12.9909 53.2501L6.77594 53.9076C6.28607 53.9594 5.81119 54.1071 5.37844 54.3425C4.9457 54.5778 4.56355 54.8961 4.25385 55.2792C3.94415 55.6622 3.71295 56.1026 3.57347 56.575C3.43399 57.0474 3.38895 57.5427 3.44094 58.0326L3.70344 60.5188C3.80195 61.4386 4.23639 62.2897 4.92352 62.909C5.61065 63.5284 6.50215 63.8723 7.42719 63.8751C7.55997 63.8749 7.69265 63.8678 7.82469 63.8538L8.05219 63.8301C7.94787 64.2436 7.91573 64.6719 7.95719 65.0963L8.21969 67.5838C8.3171 68.5035 8.75092 69.3547 9.43779 69.974C10.1247 70.5933 11.0161 70.9369 11.9409 70.9388C12.0754 70.9392 12.2098 70.9321 12.3434 70.9176L14.9547 70.6426C15.3559 71.9055 16.1481 73.0081 17.217 73.7914C18.2858 74.5746 19.5759 74.9979 20.9009 75.0001C21.1243 75.0002 21.3475 74.9885 21.5697 74.9651C23.0033 74.8165 24.341 74.1756 25.3552 73.1516C26.3694 72.1276 26.9974 70.7838 27.1322 69.3488L28.6522 69.1888C29.292 70.2685 30.0151 71.2966 30.8147 72.2638C31.5229 73.1184 32.4106 73.8065 33.4148 74.2794C34.4189 74.7523 35.5148 74.9984 36.6247 75.0001H63.3747C64.4694 74.9996 65.5509 74.7606 66.5439 74.2997C67.5369 73.8388 68.4176 73.1671 69.1247 72.3313C73.1552 67.548 75.237 61.4225 74.9559 55.1738C74.9825 55.0764 74.9972 54.9761 74.9997 54.8751L72.0309 25.2501ZM37.9122 18.7501H62.0872C63.9469 18.7463 65.7413 19.4357 67.12 20.6838C68.4987 21.932 69.3628 23.6491 69.5434 25.5001L71.3134 43.1988C70.1577 41.3401 68.7666 39.6385 67.1747 38.1363L65.6247 27.8301C65.399 26.3518 64.6529 25.0026 63.5209 24.0254C62.3888 23.0483 60.9451 22.5074 59.4497 22.5001H40.5497C39.0546 22.5073 37.6112 23.0478 36.4792 24.0245C35.3472 25.0011 34.6009 26.3497 34.3747 27.8276L32.8372 38.0963C31.2313 39.619 29.8337 41.3473 28.6809 43.2363L30.1422 28.6888C30.9305 28.4053 31.6012 27.866 32.0473 27.1569C32.4934 26.4478 32.6892 25.6097 32.6034 24.7763L32.3409 22.2901C32.3088 22.0142 32.2468 21.7426 32.1559 21.4801C32.8535 20.6274 33.7317 19.9401 34.7272 19.468C35.7226 18.9959 36.8105 18.7507 37.9122 18.7501ZM64.2872 35.7738C60.8878 33.3636 56.9296 31.8607 52.7872 31.4076C46.7597 30.7498 40.6976 32.292 35.7172 35.7501L36.8422 28.1988C36.977 27.3111 37.4247 26.5007 38.1046 25.9141C38.7845 25.3275 39.6517 25.0033 40.5497 25.0001H59.4497C60.3466 25.0048 61.2123 25.3297 61.8909 25.9161C62.5695 26.5026 63.0163 27.3121 63.1509 28.1988L64.2872 35.7738ZM25.3559 51.3276L23.0534 29.5576L27.5897 29.0776L25.3559 51.3276ZM12.2047 11.7013C12.8334 10.9269 13.7429 10.4327 14.7347 10.3263C15.5045 10.2414 16.2816 10.3998 16.9569 10.7791C17.6322 11.1584 18.1717 11.7397 18.4997 12.4413L11.4997 13.1813C11.6238 12.6424 11.8644 12.1373 12.2047 11.7013ZM6.16719 20.9188C6.03907 20.8161 5.93264 20.689 5.8541 20.5448C5.77555 20.4006 5.72647 20.2422 5.70969 20.0788L5.44719 17.5926C5.42986 17.4293 5.44486 17.2643 5.49132 17.1068C5.53779 16.9494 5.61482 16.8026 5.71801 16.6749C5.8212 16.5472 5.94854 16.4411 6.09274 16.3627C6.23694 16.2842 6.39519 16.2349 6.55844 16.2176L10.2847 15.8226L23.9609 14.3751C24.0049 14.3702 24.0492 14.3677 24.0934 14.3676C24.4031 14.3679 24.7016 14.4831 24.9312 14.691C25.1607 14.8988 25.305 15.1845 25.3359 15.4926L25.5984 17.9776C25.6158 18.1408 25.6008 18.3059 25.5543 18.4634C25.5078 18.6208 25.4308 18.7676 25.3276 18.8953C25.2244 19.0229 25.0971 19.129 24.9529 19.2075C24.8087 19.286 24.6504 19.3353 24.4872 19.3526L7.80969 21.1138L7.08344 21.1901C6.92035 21.2083 6.75526 21.1937 6.5979 21.1471C6.44054 21.1005 6.2941 21.0229 6.16719 20.9188ZM4.14469 29.0438C3.98144 29.0612 3.81637 29.0462 3.65892 28.9997C3.50146 28.9532 3.3547 28.8762 3.22702 28.773C3.09934 28.6698 2.99323 28.5425 2.91476 28.3983C2.83629 28.2541 2.787 28.0958 2.76969 27.9326L2.50719 25.4463C2.48986 25.2831 2.50486 25.118 2.55132 24.9606C2.59779 24.8031 2.67482 24.6563 2.77801 24.5287C2.8812 24.401 3.00854 24.2949 3.15274 24.2164C3.29694 24.1379 3.45519 24.0886 3.61844 24.0713L7.34594 23.6763L13.3122 23.0513L28.4784 21.4476C28.5229 21.4426 28.5675 21.4401 28.6122 21.4401C28.9214 21.441 29.2193 21.5565 29.4484 21.7643C29.6774 21.9721 29.8213 22.2574 29.8522 22.5651L30.1159 25.0513C30.1333 25.2146 30.1183 25.3797 30.0718 25.5371C30.0253 25.6946 29.9483 25.8413 29.8451 25.969C29.7419 26.0967 29.6146 26.2028 29.4704 26.2813C29.3262 26.3597 29.1679 26.409 29.0047 26.4263L21.5472 27.2151L11.6047 28.2501L4.14469 29.0438ZM13.1097 30.6101L20.5672 29.8213L22.9334 52.1963L15.4759 52.9851L13.1097 30.6101ZM7.56219 61.3626C7.39877 61.3809 7.23333 61.3667 7.07546 61.3206C6.9176 61.2745 6.77045 61.1976 6.64254 61.0942C6.51464 60.9908 6.40853 60.8631 6.33037 60.7184C6.2522 60.5737 6.20354 60.415 6.18719 60.2513L5.92469 57.7651C5.90736 57.6018 5.92236 57.4368 5.96882 57.2793C6.01529 57.1219 6.09232 56.9751 6.19551 56.8474C6.2987 56.7197 6.42604 56.6136 6.57024 56.5352C6.71444 56.4567 6.87269 56.4074 7.03594 56.3901L14.4947 55.6026L31.8984 53.7626C31.9428 53.7559 31.9874 53.7518 32.0322 53.7501C32.3414 53.751 32.6393 53.8665 32.8684 54.0743C33.0974 54.2821 33.2413 54.5674 33.2722 54.8751L33.5347 57.3613C33.552 57.5246 33.537 57.6897 33.4906 57.8471C33.4441 58.0046 33.3671 58.1513 33.2639 58.279C33.1607 58.4067 33.0333 58.5128 32.8891 58.5913C32.7449 58.6697 32.5867 58.719 32.4234 58.7363L28.6947 59.1301L19.9997 60.0476L7.56219 61.3626ZM12.0797 68.4263C11.7502 68.4614 11.4203 68.3641 11.1624 68.156C10.9046 67.9478 10.7399 67.6458 10.7047 67.3163L10.4422 64.8288C10.4249 64.6656 10.4399 64.5005 10.4863 64.3431C10.5328 64.1856 10.6098 64.0388 10.713 63.9112C10.8162 63.7835 10.9435 63.6774 11.0877 63.5989C11.2319 63.5204 11.3902 63.4711 11.5534 63.4538L20.2547 62.5338L28.9572 61.6138C28.9987 61.6091 29.0404 61.6066 29.0822 61.6063C29.3909 61.6065 29.6886 61.7209 29.918 61.9274C30.1474 62.134 30.2923 62.4181 30.3247 62.7251L30.5872 65.2101C30.6045 65.3733 30.5895 65.5384 30.5431 65.6959C30.4966 65.8533 30.4196 66.0001 30.3164 66.1278C30.2132 66.2554 30.0858 66.3616 29.9416 66.44C29.7974 66.5185 29.6392 66.5678 29.4759 66.5851L25.7472 66.9788L12.0797 68.4263ZM23.8372 71.1026C23.2085 71.877 22.299 72.3713 21.3072 72.4776C20.5371 72.5631 19.7596 72.4051 19.084 72.0257C18.4084 71.6463 17.8687 71.0647 17.5409 70.3626L24.5472 69.6213C24.422 70.1612 24.1796 70.6669 23.8372 71.1026ZM67.2222 70.7163C66.7489 71.2752 66.1595 71.7243 65.4951 72.0324C64.8306 72.3404 64.1071 72.5 63.3747 72.5001H36.6247C35.88 72.4979 35.145 72.3315 34.472 72.0128C33.799 71.6942 33.2045 71.231 32.7309 70.6563C32.1853 69.9988 31.6807 69.3083 31.2197 68.5888C31.851 68.2293 32.3636 67.6931 32.6942 67.0462C33.0249 66.3993 33.1593 65.6699 33.0809 64.9476L32.8184 62.4626C32.7692 62.0388 32.6466 61.6268 32.4559 61.2451L32.6859 61.2201C33.1758 61.1683 33.6507 61.0206 34.0834 60.7852C34.5162 60.5499 34.8983 60.2316 35.208 59.8485C35.5177 59.4654 35.7489 59.0251 35.8884 58.5527C36.0279 58.0802 36.0729 57.5849 36.0209 57.0951L35.7584 54.6088C35.7067 54.119 35.5589 53.6441 35.3236 53.2113C35.0882 52.7786 34.7699 52.3965 34.3869 52.0867C34.0038 51.777 33.5635 51.5458 33.091 51.4064C32.6186 51.2669 32.1233 51.2219 31.6334 51.2738L27.9922 51.6588C29.1259 46.1714 32.2704 41.3062 36.808 38.0189C41.3457 34.7316 46.9485 33.2598 52.5159 33.8926C57.6797 34.4863 62.4802 36.8443 66.1064 40.5683C69.7326 44.2922 71.9622 49.1536 72.4184 54.3313C72.4397 54.5626 72.4509 54.7938 72.4647 55.0638C72.7745 60.7586 70.8994 66.3569 67.2222 70.7163Z" fill="#050505"/>
</g>
<defs>
<linearGradient id="paint0_linear_3_550" x1="9.84375" y1="13.7946" x2="11.506" y2="23.6761" gradientUnits="userSpaceOnUse">
<stop stop-color="#F0C001"/>
<stop offset="0.5" stop-color="#4BB567"/>
<stop offset="1" stop-color="#0BC4FE"/>
</linearGradient>
<linearGradient id="paint1_linear_3_550" x1="14.6484" y1="61.1049" x2="16.1234" y2="70.527" gradientUnits="userSpaceOnUse">
<stop stop-color="#F0C001"/>
<stop offset="0.5" stop-color="#4BB567"/>
<stop offset="1" stop-color="#0BC4FE"/>
</linearGradient>
<clipPath id="clip0_3_550">
<rect width="75" height="75" fill="white"/>
</clipPath>
</defs>
</svg>
