<svg width="80" height="61" viewBox="0 0 80 61" fill="none" xmlns="http://www.w3.org/2000/svg">
<path d="M75.9322 60.1002H4.0678C2.98928 60.0992 1.95525 59.6702 1.19262 58.9076C0.429993 58.145 0.0010769 57.111 0 56.0324V4.50701C0.0010769 3.42849 0.429993 2.39445 1.19262 1.63183C1.95525 0.869202 2.98928 0.440286 4.0678 0.439209H75.9322C77.0107 0.440286 78.0448 0.869202 78.8074 1.63183C79.57 2.39445 79.9989 3.42849 80 4.50701V30.2697V56.0324C79.9989 57.111 79.57 58.145 78.8074 58.9076C78.0448 59.6702 77.0107 60.0992 75.9322 60.1002ZM4.0678 3.15107C3.70818 3.15107 3.36329 3.29393 3.10901 3.54822C2.85472 3.8025 2.71186 4.14739 2.71186 4.50701V56.0324C2.71186 56.392 2.85472 56.7369 3.10901 56.9912C3.36329 57.2455 3.70818 57.3884 4.0678 57.3884H75.9322C76.2918 57.3884 76.6367 57.2455 76.891 56.9912C77.1453 56.7369 77.2881 56.392 77.2881 56.0324V4.50701C77.2881 4.14739 77.1453 3.8025 76.891 3.54822C76.6367 3.29393 76.2918 3.15107 75.9322 3.15107H4.0678Z" fill="black"/>
<path d="M78.6441 15.3546H1.35593C0.996317 15.3546 0.65143 15.2117 0.397143 14.9574C0.142857 14.7031 0 14.3582 0 13.9986C0 13.639 0.142857 13.2941 0.397143 13.0398C0.65143 12.7856 0.996317 12.6427 1.35593 12.6427H78.6441C79.0037 12.6427 79.3486 12.7856 79.6029 13.0398C79.8571 13.2941 80 13.639 80 13.9986C80 14.3582 79.8571 14.7031 79.6029 14.9574C79.3486 15.2117 79.0037 15.3546 78.6441 15.3546ZM72.5424 9.93083C72.1401 9.93083 71.7469 9.81155 71.4124 9.58806C71.0779 9.36457 70.8172 9.04692 70.6633 8.67527C70.5094 8.30363 70.4691 7.89468 70.5476 7.50014C70.626 7.1056 70.8197 6.7432 71.1042 6.45875C71.3886 6.17431 71.751 5.9806 72.1456 5.90212C72.5401 5.82364 72.9491 5.86392 73.3207 6.01786C73.6924 6.1718 74.01 6.43249 74.2335 6.76696C74.457 7.10144 74.5763 7.49467 74.5763 7.89694C74.5763 8.43636 74.362 8.95369 73.9806 9.33512C73.5991 9.71655 73.0818 9.93083 72.5424 9.93083ZM66.4407 9.93083C66.0384 9.93083 65.6452 9.81155 65.3107 9.58806C64.9762 9.36457 64.7155 9.04692 64.5616 8.67527C64.4077 8.30363 64.3674 7.89468 64.4459 7.50014C64.5243 7.1056 64.718 6.7432 65.0025 6.45875C65.2869 6.17431 65.6493 5.9806 66.0439 5.90212C66.4384 5.82364 66.8474 5.86392 67.219 6.01786C67.5907 6.1718 67.9083 6.43249 68.1318 6.76696C68.3553 7.10144 68.4746 7.49467 68.4746 7.89694C68.4746 8.43636 68.2603 8.95369 67.8789 9.33512C67.4974 9.71655 66.9801 9.93083 66.4407 9.93083ZM60.339 9.93083C59.9367 9.93083 59.5435 9.81155 59.209 9.58806C58.8745 9.36457 58.6138 9.04692 58.4599 8.67527C58.306 8.30363 58.2657 7.89468 58.3442 7.50014C58.4226 7.1056 58.6164 6.7432 58.9008 6.45875C59.1852 6.17431 59.5476 5.9806 59.9422 5.90212C60.3367 5.82364 60.7457 5.86392 61.1173 6.01786C61.489 6.1718 61.8066 6.43249 62.0301 6.76696C62.2536 7.10144 62.3729 7.49467 62.3729 7.89694C62.3729 8.43636 62.1586 8.95369 61.7772 9.33512C61.3957 9.71655 60.8784 9.93083 60.339 9.93083Z" fill="black"/>
<path d="M42.0335 41.7951H8.13523C7.77561 41.7951 7.43073 41.6523 7.17644 41.398C6.92215 41.1437 6.7793 40.7988 6.7793 40.4392V20.1002C6.7793 19.7406 6.92215 19.3957 7.17644 19.1414C7.43073 18.8871 7.77561 18.7443 8.13523 18.7443H42.0335C42.3932 18.7443 42.738 18.8871 42.9923 19.1414C43.2466 19.3957 43.3895 19.7406 43.3895 20.1002V40.4392C43.3895 40.7988 43.2466 41.1437 42.9923 41.398C42.738 41.6523 42.3932 41.7951 42.0335 41.7951ZM9.49116 39.0832H40.6776V21.4561H9.49116V39.0832ZM58.3047 30.9477H48.8132C48.4536 30.9477 48.1087 30.8048 47.8544 30.5505C47.6001 30.2962 47.4573 29.9513 47.4573 29.5917C47.4573 29.2321 47.6001 28.8872 47.8544 28.6329C48.1087 28.3786 48.4536 28.2358 48.8132 28.2358H58.3047C58.6643 28.2358 59.0092 28.3786 59.2635 28.6329C59.5178 28.8872 59.6607 29.2321 59.6607 29.5917C59.6607 29.9513 59.5178 30.2962 59.2635 30.5505C59.0092 30.8048 58.6643 30.9477 58.3047 30.9477Z" fill="black"/>
<path d="M47.5975 53.3205H42.1738C41.8142 53.3205 41.4693 53.1777 41.215 52.9234C40.9607 52.6691 40.8179 52.3242 40.8179 51.9646C40.8179 51.605 40.9607 51.2601 41.215 51.0058C41.4693 50.7515 41.8142 50.6086 42.1738 50.6086H47.5975C47.9571 50.6086 48.302 50.7515 48.5563 51.0058C48.8106 51.2601 48.9535 51.605 48.9535 51.9646C48.9535 52.3242 48.8106 52.6691 48.5563 52.9234C48.302 53.1777 47.9571 53.3205 47.5975 53.3205ZM20.4789 53.3205H15.0552C14.6955 53.3205 14.3506 53.1777 14.0964 52.9234C13.8421 52.6691 13.6992 52.3242 13.6992 51.9646C13.6992 51.605 13.8421 51.2601 14.0964 51.0058C14.3506 50.7515 14.6955 50.6086 15.0552 50.6086H20.4789C20.8385 50.6086 21.1834 50.7515 21.4377 51.0058C21.692 51.2601 21.8348 51.605 21.8348 51.9646C21.8348 52.3242 21.692 52.6691 21.4377 52.9234C21.1834 53.1777 20.8385 53.3205 20.4789 53.3205ZM74.7162 53.3205H69.2924C68.9328 53.3205 68.5879 53.1777 68.3336 52.9234C68.0794 52.6691 67.9365 52.3242 67.9365 51.9646C67.9365 51.605 68.0794 51.2601 68.3336 51.0058C68.5879 50.7515 68.9328 50.6086 69.2924 50.6086H74.7162C75.0758 50.6086 75.4207 50.7515 75.675 51.0058C75.9292 51.2601 76.0721 51.605 76.0721 51.9646C76.0721 52.3242 75.9292 52.6691 75.675 52.9234C75.4207 53.1777 75.0758 53.3205 74.7162 53.3205Z" fill="black"/>
<path d="M71.8648 36.3714H48.8139C48.4543 36.3714 48.1094 36.2286 47.8552 35.9743C47.6009 35.72 47.458 35.3751 47.458 35.0155C47.458 34.6559 47.6009 34.311 47.8552 34.0567C48.1094 33.8024 48.4543 33.6595 48.8139 33.6595H71.8648C72.2244 33.6595 72.5693 33.8024 72.8236 34.0567C73.0779 34.311 73.2207 34.6559 73.2207 35.0155C73.2207 35.3751 73.0779 35.72 72.8236 35.9743C72.5693 36.2286 72.2244 36.3714 71.8648 36.3714ZM71.8648 41.7951H48.8139C48.4543 41.7951 48.1094 41.6523 47.8552 41.398C47.6009 41.1437 47.458 40.7988 47.458 40.4392C47.458 40.0796 47.6009 39.7347 47.8552 39.4804C48.1094 39.2261 48.4543 39.0833 48.8139 39.0833H71.8648C72.2244 39.0833 72.5693 39.2261 72.8236 39.4804C73.0779 39.7347 73.2207 40.0796 73.2207 40.4392C73.2207 40.7988 73.0779 41.1437 72.8236 41.398C72.5693 41.6523 72.2244 41.7951 71.8648 41.7951Z" fill="url(#paint0_linear_3_253)"/>
<defs>
<linearGradient id="paint0_linear_3_253" x1="47.458" y1="34.0253" x2="49.2595" y2="45.0671" gradientUnits="userSpaceOnUse">
<stop stop-color="#F0C001"/>
<stop offset="0.5" stop-color="#4BB567"/>
<stop offset="1" stop-color="#0BC4FE"/>
</linearGradient>
</defs>
</svg>
