<svg width="80" height="80" viewBox="0 0 80 80" fill="none" xmlns="http://www.w3.org/2000/svg">
<rect x="42" y="50" width="12" height="12" fill="url(#paint0_linear_3_482)"/>
<rect x="59" y="50" width="12" height="12" fill="url(#paint1_linear_3_482)"/>
<path fill-rule="evenodd" clip-rule="evenodd" d="M77.5 61.4019H72.7105V50.4691C72.7105 50.1376 72.5788 49.8196 72.3444 49.5852C72.1099 49.3508 71.792 49.2191 71.4605 49.2191H59.2777C58.9461 49.2191 58.6282 49.3508 58.3938 49.5852C58.1594 49.8196 58.0277 50.1376 58.0277 50.4691V61.4019H55.5608V50.4691C55.5608 50.1376 55.4291 49.8196 55.1947 49.5852C54.9602 49.3508 54.6423 49.2191 54.3108 49.2191H42.128C41.7964 49.2191 41.4785 49.3508 41.2441 49.5852C41.0097 49.8196 40.878 50.1376 40.878 50.4691V61.4019H34.4128V60.6983C34.4128 58.9317 32.9756 57.4946 31.2091 57.4946H30.4797L24.8739 36.3061L46.3816 17.1132C46.4727 17.1333 46.5647 17.1511 46.6575 17.1666L56.5164 25.7838C56.5708 26.8677 56.9853 27.858 57.6419 28.6383C54.4186 30.0611 52.1623 33.2858 52.1623 37.0294C52.1623 40.2897 53.9167 43.3314 56.7406 44.9675C56.9306 45.0775 57.1463 45.1355 57.3658 45.1358C57.5854 45.136 57.8011 45.0784 57.9913 44.9687C58.1816 44.8591 58.3396 44.7013 58.4495 44.5113C58.5593 44.3212 58.6173 44.1055 58.6173 43.886V37.6374L61.2502 36.1174L63.8828 37.6374V43.9775C63.8828 44.1946 63.9393 44.408 64.0468 44.5965C64.1543 44.7851 64.3091 44.9425 64.4959 45.0531C64.6827 45.1637 64.895 45.2238 65.1121 45.2274C65.3292 45.231 65.5434 45.178 65.7337 45.0736C68.6738 43.4616 70.5003 40.3792 70.5003 37.0296C70.5003 33.286 68.2441 30.0613 65.0208 28.6385C65.7264 27.7999 66.1525 26.7188 66.1525 25.5397C66.1525 22.9635 64.1211 20.8527 61.5758 20.725L52.9594 10.8716C52.5297 8.27925 50.2733 6.29565 47.5609 6.29565C46.1003 6.29565 44.7728 6.87175 43.7903 7.80737L15.4694 25.2007C15.4548 25.2096 15.4417 25.2199 15.4278 25.2292C13.2739 26.4999 11.8209 28.8353 11.7991 31.5069L11.7989 31.513C11.7987 31.5313 13.2292 57.4946 13.2292 57.4946H12.8919C11.1255 57.4946 9.68844 58.9317 9.68844 60.6983V61.4019H2.5C2.16848 61.4019 1.85054 61.5336 1.61612 61.768C1.3817 62.0024 1.25 62.3204 1.25 62.6519V72.4544C1.25 72.7859 1.3817 73.1039 1.61612 73.3383C1.85054 73.5727 2.16848 73.7044 2.5 73.7044H77.5C77.8315 73.7044 78.1495 73.5727 78.3839 73.3383C78.6183 73.1039 78.75 72.7859 78.75 72.4544V62.6519C78.75 62.3204 78.6183 62.0024 78.3839 61.768C78.1495 61.5336 77.8315 61.4019 77.5 61.4019ZM64.5795 51.7191H66.1586V54.1897H64.5795V51.7191ZM60.5277 51.7191H62.0795V55.4397C62.0795 55.7712 62.2112 56.0892 62.4456 56.3236C62.6801 56.558 62.998 56.6897 63.3295 56.6897H67.4086C67.7401 56.6897 68.0581 56.558 68.2925 56.3236C68.5269 56.0892 68.6586 55.7712 68.6586 55.4397V51.7191H70.2105V61.4019H60.5277V51.7191ZM47.4298 51.7191H49.0089V54.1897H47.4298V51.7191ZM43.378 51.7191H44.9298V55.4397C44.9298 55.7712 45.0615 56.0892 45.296 56.3236C45.5304 56.558 45.8483 56.6897 46.1798 56.6897H50.2589C50.5904 56.6897 50.9084 56.558 51.1428 56.3236C51.3772 56.0892 51.5089 55.7712 51.5089 55.4397V51.7191H53.0608V61.4019H43.378V51.7191ZM14.3159 31.545C14.3589 28.9375 16.527 26.7125 19.1525 26.7125C21.8295 26.7125 24.0073 28.8905 24.0073 31.5675C24.0073 34.2446 21.8295 36.4225 19.1525 36.4225C16.5616 36.4225 14.2731 34.1521 14.3159 31.545ZM26.5056 31.4994C26.4756 28.2288 24.3014 25.4613 21.3227 24.5396L42.0877 11.7866C42.0928 13.4299 42.8266 14.9038 43.9813 15.9046L26.5056 31.4994ZM52.4942 14.1378L58.8511 21.4074C58.174 21.8155 57.6068 22.3828 57.1987 23.0599L49.9269 16.7039C51.048 16.1632 51.953 15.2587 52.4942 14.1378ZM68 37.0296C68 38.6278 67.426 40.1729 66.3825 41.3835V36.9158C66.3825 36.6964 66.3248 36.4808 66.2151 36.2908C66.1054 36.1008 65.9475 35.943 65.7575 35.8333L61.875 33.5916C61.685 33.4818 61.4694 33.4241 61.25 33.424C61.0306 33.424 60.815 33.4818 60.625 33.5916L56.7422 35.8333C56.5521 35.943 56.3943 36.1008 56.2846 36.2908C56.1749 36.4808 56.1172 36.6964 56.1172 36.9158V41.1828C55.1916 40.018 54.6622 38.5567 54.6622 37.0296C54.6622 33.3524 57.6538 30.3607 61.3311 30.3607C65.0084 30.3607 68 33.3524 68 37.0296ZM63.6522 25.5397C63.6522 26.8194 62.6109 27.8607 61.3312 27.8607C60.0516 27.8607 59.0103 26.8194 59.0103 25.5397C59.0103 24.26 60.0514 23.2188 61.3312 23.2188C62.6111 23.2188 63.6522 24.26 63.6522 25.5397ZM50.5339 11.7691C50.5339 13.4086 49.2002 14.7425 47.5606 14.7425C45.9211 14.7425 44.5873 13.4086 44.5873 11.7691C44.5873 10.1296 45.9211 8.79565 47.5606 8.79565C49.2002 8.79565 50.5339 10.1296 50.5339 11.7691ZM14.6192 37.353C15.8694 38.3349 17.4431 38.9225 19.1525 38.9225C20.4064 38.9236 21.6396 38.6021 22.7333 37.9888L27.8939 57.4946H15.733L14.6192 37.353ZM12.1884 60.6983C12.1884 60.3169 12.5106 59.9946 12.8919 59.9946H14.5444L14.5491 59.9947L14.5575 59.9946H29.5103C29.5125 59.9946 29.5145 59.995 29.5167 59.995C29.5195 59.995 29.5222 59.9946 29.525 59.9946H31.2091C31.5905 59.9946 31.9128 60.3167 31.9128 60.6983V61.4019H12.1884V60.6983ZM76.25 71.2044H3.75V63.9019H76.25V71.2044ZM16.9644 31.5675C16.9644 30.3591 17.9441 29.3794 19.1525 29.3794C20.3609 29.3794 21.3405 30.3591 21.3405 31.5675C21.3405 32.776 20.3608 33.7557 19.1525 33.7557C17.9442 33.7557 16.9644 32.776 16.9644 31.5675Z" fill="#050505"/>
<defs>
<linearGradient id="paint0_linear_3_482" x1="45" y1="50.8571" x2="49.515" y2="62.0405" gradientUnits="userSpaceOnUse">
<stop stop-color="#F0C001"/>
<stop offset="0.5" stop-color="#4BB567"/>
<stop offset="1" stop-color="#0BC4FE"/>
</linearGradient>
<linearGradient id="paint1_linear_3_482" x1="62" y1="50.8571" x2="66.515" y2="62.0405" gradientUnits="userSpaceOnUse">
<stop stop-color="#F0C001"/>
<stop offset="0.5" stop-color="#4BB567"/>
<stop offset="1" stop-color="#0BC4FE"/>
</linearGradient>
</defs>
</svg>
