<svg width="80" height="80" viewBox="0 0 80 80" fill="none" xmlns="http://www.w3.org/2000/svg">
<g clip-path="url(#clip0_3_492)">
<circle cx="41.5" cy="6.5" r="5.5" fill="url(#paint0_linear_3_492)"/>
<circle cx="26.5" cy="32.5" r="5.5" fill="url(#paint1_linear_3_492)"/>
<circle cx="56.5" cy="32.5" r="5.5" fill="url(#paint2_linear_3_492)"/>
<path d="M77.9924 49.0702C77.2527 47.8352 74.2156 44.1677 66.1975 48.8377L52.0524 57.0766C51.3391 57.4919 50.6135 57.7847 49.8556 57.9586C50.1375 57.5092 50.358 57 50.5092 56.4361C50.8736 55.0766 50.6302 53.5995 49.9011 52.3995C49.3033 51.4158 48.387 50.6494 47.3299 50.2005C47.1283 50.1148 46.9138 50.0248 46.697 49.9864C42.6313 49.2533 38.6186 47.8023 35.3944 46.6367C34.2744 46.2317 33.2164 45.8494 32.3169 45.5577C28.6953 44.3828 25.4235 45.8372 22.7008 47.4147L12.1745 53.5133L11.4113 52.1645C10.9739 51.3919 10.2599 50.835 9.40033 50.5969C8.54111 50.3589 7.6422 50.4684 6.86939 50.9058L2.90048 53.1519C1.30126 54.057 0.736577 56.0945 1.64158 57.6936L13.3097 78.3105C13.9222 79.3925 15.053 80.0009 16.2158 80.0009C16.7714 80.0009 17.3344 79.8619 17.8516 79.5692L21.8203 77.3231C22.593 76.8858 23.1499 76.1717 23.388 75.3122C23.6263 74.4528 23.5166 73.5539 23.0792 72.7812L21.6405 70.2391L24.0456 68.8505L42.1649 73.7056C43.1877 73.9797 44.1914 74.1166 45.1736 74.1166C47.132 74.1164 49.0044 73.5725 50.7664 72.4878L76.4366 56.6811C78.7745 55.2417 79.516 51.6141 77.9924 49.0702ZM20.9789 74.6445C20.9504 74.75 20.9013 74.8487 20.8343 74.935C20.7674 75.0214 20.6841 75.0936 20.5891 75.1475L16.6203 77.3936C16.2274 77.6163 15.7078 77.472 15.4855 77.0791L3.8172 56.462C3.59486 56.0692 3.73908 55.5495 4.13173 55.3272L8.10064 53.0811C8.22392 53.0111 8.36327 52.9744 8.50501 52.9745C8.58064 52.9745 8.65705 52.9847 8.73236 53.0056C8.83782 53.0342 8.93657 53.0833 9.0229 53.1503C9.10924 53.2172 9.18144 53.3006 9.23533 53.3956L20.9036 74.0123C20.9573 74.1075 20.9916 74.2124 21.0046 74.3209C21.0175 74.4294 21.0088 74.5394 20.9789 74.6445ZM75.126 54.5522L49.4558 70.3589C47.4188 71.6127 45.1835 71.9264 42.812 71.2908L24.1927 66.3016C24.0341 66.259 23.8687 66.2482 23.7059 66.2696C23.5432 66.2911 23.3862 66.3444 23.2441 66.4266L20.4091 68.0633L13.4056 55.6889L23.9538 49.5777C26.3125 48.2109 28.8647 47.0656 31.5453 47.9355C32.4053 48.2144 33.3966 48.5728 34.5442 48.9877C37.8336 50.1769 41.9214 51.6547 46.1628 52.43C47.6439 52.9473 48.4722 54.3781 48.0941 55.7888C47.6341 57.5056 46.276 57.8309 45.102 57.7594C42.7849 57.3081 40.7016 56.7172 38.5177 56.0978C37.5783 55.8314 36.6069 55.5558 35.5852 55.282C35.4266 55.2395 35.2612 55.2287 35.0985 55.2501C34.9357 55.2716 34.7788 55.3248 34.6366 55.4069C34.4945 55.489 34.3699 55.5983 34.2699 55.7285C34.17 55.8587 34.0967 56.0074 34.0542 56.1659C34.0118 56.3245 34.0009 56.4899 34.0223 56.6526C34.0438 56.8154 34.097 56.9723 34.1791 57.1145C34.2612 57.2566 34.3705 57.3812 34.5007 57.4812C34.6309 57.5811 34.7796 57.6544 34.9381 57.6969C35.942 57.9659 36.9045 58.2389 37.8353 58.5028C39.9141 59.0923 41.9044 59.657 44.1083 60.1102C44.2192 60.1597 45.6956 60.4117 46.1778 60.4889C48.8078 60.9098 51.1405 60.5 53.31 59.2364L67.4553 50.9975C71.53 48.6244 74.667 48.3837 75.8472 50.3542C76.6611 51.713 76.2969 53.8314 75.126 54.5522ZM9.02142 56.6555C9.13455 57.4298 8.59876 58.1494 7.82439 58.2625C7.05001 58.3758 6.33048 57.8398 6.21736 57.0655C6.10423 56.2911 6.64017 55.5716 7.41439 55.4584C7.59851 55.4315 7.78613 55.4411 7.96654 55.4867C8.14694 55.5323 8.31661 55.6129 8.46583 55.7241C8.61506 55.8353 8.74094 55.9747 8.83626 56.1345C8.93159 56.2943 8.99451 56.4713 9.02142 56.6555ZM24.2106 22.452C24.5389 22.498 24.872 22.4116 25.1367 22.212C25.4014 22.0125 25.5759 21.7159 25.622 21.3877C26.4133 15.7448 30.2177 10.9414 35.4572 8.82828C36.411 11.1836 38.721 12.85 41.4142 12.85C44.957 12.85 47.8394 9.96781 47.8394 6.425C47.8394 2.88219 44.957 0 41.4142 0C37.9036 0 35.0433 2.83062 34.9916 6.32922C28.69 8.67188 24.0852 14.3452 23.1463 21.0405C23.1003 21.3688 23.1866 21.7019 23.3862 21.9666C23.5858 22.2313 23.8823 22.4059 24.2106 22.452ZM41.4142 2.5C43.5786 2.5 45.3394 4.26094 45.3394 6.42516C45.3394 8.58937 43.5786 10.3502 41.4142 10.3502C39.2499 10.3502 37.4891 8.58937 37.4891 6.42516C37.4891 4.26094 39.25 2.5 41.4142 2.5ZM56.3086 25.7977C52.7658 25.7977 49.8835 28.6798 49.8835 32.2227C49.8835 35.7655 52.7658 38.6478 56.3086 38.6478C59.8514 38.6478 62.7338 35.7655 62.7338 32.2227C62.7338 29.8841 61.4774 27.8341 59.6047 26.71C59.7765 25.6901 59.8628 24.6577 59.8628 23.6234C59.8628 17.9175 57.2841 12.6233 52.7878 9.09828C52.5269 8.89377 52.1955 8.80127 51.8664 8.84112C51.5373 8.88097 51.2375 9.04991 51.033 9.31078C50.8285 9.57167 50.736 9.90312 50.7758 10.2322C50.8157 10.5613 50.9846 10.8611 51.2455 11.0656C55.1331 14.1136 57.3628 18.6906 57.3628 23.6233C57.3628 24.3736 57.31 25.1223 57.2064 25.8614C56.909 25.8194 56.609 25.7981 56.3086 25.7977ZM56.3086 36.148C54.1442 36.148 52.3835 34.387 52.3835 32.2228C52.3835 30.0586 54.1442 28.2978 56.3086 28.2978C58.473 28.2978 60.2338 30.0586 60.2338 32.2228C60.2338 34.387 58.4728 36.148 56.3086 36.148ZM26.52 38.648C27.6159 38.6489 28.6935 38.3678 29.6492 37.8316C32.9541 40.5725 37.0941 42.072 41.4144 42.072C43.7988 42.072 46.12 41.6231 48.3139 40.7378C48.6214 40.6137 48.8669 40.3726 48.9966 40.0674C49.1262 39.7623 49.1293 39.4181 49.0053 39.1107C48.8812 38.8033 48.64 38.5577 48.3349 38.4281C48.0297 38.2984 47.6856 38.2953 47.3781 38.4194C45.4831 39.1844 43.4766 39.572 41.4144 39.572C37.8242 39.572 34.3797 38.3719 31.5806 36.1747C32.4344 35.0838 32.9453 33.7122 32.9453 32.2228C32.9453 28.68 30.063 25.7978 26.5202 25.7978C22.9774 25.7978 20.095 28.68 20.095 32.2228C20.095 35.7656 22.9772 38.648 26.52 38.648ZM26.52 28.2977C28.6844 28.2977 30.4452 30.0584 30.4452 32.2227C30.4452 34.3869 28.6844 36.1478 26.52 36.1478C24.3556 36.1478 22.5949 34.3869 22.5949 32.2227C22.5949 30.0584 24.3556 28.2977 26.52 28.2977Z" fill="#050505"/>
</g>
<defs>
<linearGradient id="paint0_linear_3_492" x1="38.75" y1="1.78571" x2="42.8888" y2="12.0371" gradientUnits="userSpaceOnUse">
<stop stop-color="#F0C001"/>
<stop offset="0.5" stop-color="#4BB567"/>
<stop offset="1" stop-color="#0BC4FE"/>
</linearGradient>
<linearGradient id="paint1_linear_3_492" x1="23.75" y1="27.7857" x2="27.8888" y2="38.0371" gradientUnits="userSpaceOnUse">
<stop stop-color="#F0C001"/>
<stop offset="0.5" stop-color="#4BB567"/>
<stop offset="1" stop-color="#0BC4FE"/>
</linearGradient>
<linearGradient id="paint2_linear_3_492" x1="53.75" y1="27.7857" x2="57.8888" y2="38.0371" gradientUnits="userSpaceOnUse">
<stop stop-color="#F0C001"/>
<stop offset="0.5" stop-color="#4BB567"/>
<stop offset="1" stop-color="#0BC4FE"/>
</linearGradient>
<clipPath id="clip0_3_492">
<rect width="80" height="80" fill="white"/>
</clipPath>
</defs>
</svg>
