<svg width="80" height="81" viewBox="0 0 80 81" fill="none" xmlns="http://www.w3.org/2000/svg">
<g clip-path="url(#clip0_3_179)">
<path d="M58.7018 15.7475C59.0362 15.971 59.4295 16.0903 59.8317 16.0903C60.3712 16.0903 60.8885 15.876 61.2699 15.4945C61.6514 15.1131 61.8656 14.5958 61.8656 14.0564C61.8656 13.6541 61.7464 13.2609 61.5229 12.9264C61.2994 12.5919 60.9817 12.3312 60.6101 12.1773C60.2384 12.0233 59.8295 11.9831 59.435 12.0615C59.0404 12.14 58.678 12.3337 58.3936 12.6182C58.1091 12.9026 57.9154 13.265 57.8369 13.6596C57.7585 14.0541 57.7987 14.4631 57.9527 14.8347C58.1066 15.2063 58.3673 15.524 58.7018 15.7475Z" fill="black"/>
<path d="M70.8365 15.7475C71.171 15.971 71.5642 16.0903 71.9665 16.0903C72.5059 16.0903 73.0233 15.876 73.4047 15.4945C73.7861 15.1131 74.0004 14.5958 74.0004 14.0564C74.0004 13.6541 73.8811 13.2609 73.6576 12.9264C73.4341 12.5919 73.1165 12.3312 72.7448 12.1773C72.3732 12.0233 71.9643 11.9831 71.5697 12.0615C71.1752 12.14 70.8128 12.3337 70.5283 12.6182C70.2439 12.9026 70.0502 13.265 69.9717 13.6596C69.8932 14.0541 69.9335 14.4631 70.0874 14.8347C70.2414 15.2063 70.5021 15.524 70.8365 15.7475Z" fill="black"/>
<path d="M64.7692 15.7475C65.1036 15.971 65.4969 16.0903 65.8991 16.0903C66.4386 16.0903 66.9559 15.876 67.3373 15.4945C67.7187 15.1131 67.933 14.5958 67.933 14.0564C67.933 13.6541 67.8137 13.2609 67.5903 12.9264C67.3668 12.5919 67.0491 12.3312 66.6775 12.1773C66.3058 12.0233 65.8969 11.9831 65.5023 12.0615C65.1078 12.14 64.7454 12.3337 64.4609 12.6182C64.1765 12.9026 63.9828 13.265 63.9043 13.6596C63.8258 14.0541 63.8661 14.4631 64.0201 14.8347C64.174 15.2063 64.4347 15.524 64.7692 15.7475Z" fill="black"/>
<path d="M19.7447 71.9438H74.9219C77.0792 71.9438 78.8281 70.1949 78.8281 68.0375V18.5552M78.8281 18.5552H1.17188M78.8281 18.5552V12.7544C78.8281 10.5971 77.0792 8.84814 74.9219 8.84814H14.1645M1.17188 18.5552V68.0377C1.17188 70.195 2.92078 71.9439 5.07812 71.9439H14.2759M1.17188 18.5552V12.7544C1.17188 10.5971 2.92078 8.84814 5.07812 8.84814H8.69578" stroke="black" stroke-width="3" stroke-miterlimit="10" stroke-linecap="round" stroke-linejoin="round"/>
<path d="M73.6367 49.9763H72.7894C72.6338 49.9766 72.4819 49.929 72.3543 49.84C72.2266 49.7509 72.1295 49.6248 72.0761 49.4787C71.9825 49.2335 71.8813 48.9912 71.7726 48.7523C71.7067 48.6106 71.6861 48.452 71.7137 48.2981C71.7413 48.1443 71.8156 48.0027 71.9266 47.8927L72.5305 47.288C73.4271 46.3836 73.4254 44.925 72.5267 44.0227L70.3498 41.8458C69.4464 40.9477 67.9872 40.9477 67.0838 41.8458L66.4799 42.449C66.3696 42.5596 66.228 42.6337 66.0743 42.6612C65.9205 42.6888 65.762 42.6685 65.6202 42.603C65.3803 42.4946 65.1379 42.3918 64.8931 42.2949C64.7462 42.2419 64.6193 42.1447 64.5298 42.0167C64.4403 41.8888 64.3926 41.7362 64.3931 41.5801V40.7328C64.3931 39.4565 63.3585 38.4219 62.0822 38.4219H59.0011C57.7248 38.4219 56.6902 39.4565 56.6902 40.7328V41.5801C56.6905 41.7357 56.6429 41.8876 56.5538 42.0152C56.4648 42.1428 56.3387 42.2399 56.1926 42.2934C55.9461 42.3874 55.705 42.4883 55.4662 42.5969C55.3244 42.6625 55.1659 42.6829 55.0121 42.6553C54.8583 42.6277 54.7167 42.5536 54.6065 42.4428L54.0018 41.8389C53.0985 40.9413 51.6399 40.9413 50.7366 41.8389L48.5597 44.0227C47.6615 44.9262 47.6615 46.3853 48.5597 47.2887L49.1628 47.8927C49.2739 48.0027 49.3482 48.1443 49.3758 48.2981C49.4034 48.452 49.3828 48.6106 49.3169 48.7523C49.2081 48.9915 49.1066 49.234 49.0126 49.4795C48.9589 49.6264 48.8609 49.753 48.7322 49.842C48.6035 49.931 48.4504 49.9779 48.294 49.9763H47.4466C46.1703 49.9763 45.1357 51.0109 45.1357 52.2872V55.3684C45.1357 56.6447 46.1703 57.6793 47.4466 57.6793H48.294C48.4495 57.679 48.6015 57.7266 48.7291 57.8156C48.8567 57.9046 48.9538 58.0308 49.0072 58.1769C49.1012 58.4234 49.2021 58.6645 49.3107 58.9033C49.3766 59.045 49.3972 59.2036 49.3696 59.3575C49.3421 59.5113 49.2677 59.6529 49.1567 59.7629L48.5528 60.3676C47.6552 61.271 47.6552 62.7295 48.5528 63.6329L50.7296 65.8097C51.6331 66.7079 53.0922 66.7079 53.9957 65.8097L54.5996 65.2066C54.7099 65.096 54.8514 65.0219 55.0052 64.9943C55.1589 64.9668 55.3174 64.9871 55.4592 65.0525C55.6992 65.161 55.9416 65.2637 56.1864 65.3607C56.334 65.4131 56.4617 65.51 56.5519 65.638C56.6421 65.766 56.6904 65.9189 56.6902 66.0755V66.9228C56.6902 68.1991 57.7248 69.2337 59.0011 69.2337H62.0822C63.3585 69.2337 64.3931 68.1991 64.3931 66.9228V66.0755C64.3929 65.9199 64.4405 65.768 64.5295 65.6404C64.6185 65.5128 64.7446 65.4157 64.8907 65.3622C65.1372 65.2682 65.3783 65.1673 65.6171 65.0587C65.7589 64.9931 65.9175 64.9727 66.0712 65.0003C66.225 65.0278 66.3666 65.102 66.4768 65.2128L67.0815 65.8167C67.9861 66.7128 69.4443 66.7111 70.3468 65.8128L72.5236 63.636C73.4218 62.7325 73.4218 61.2734 72.5236 60.3699L71.9205 59.766C71.8095 59.656 71.7351 59.5144 71.7075 59.3605C71.6799 59.2067 71.7005 59.0481 71.7664 58.9063C71.8749 58.6664 71.9776 58.424 72.0745 58.1792C72.1276 58.0323 72.2248 57.9054 72.3527 57.816C72.4807 57.7265 72.6332 57.6787 72.7894 57.6793H73.6367C74.913 57.6793 75.9476 56.6447 75.9476 55.3684V52.2872C75.9476 51.0109 74.913 49.9763 73.6367 49.9763ZM74.407 55.3684C74.407 55.5727 74.3258 55.7686 74.1814 55.9131C74.0369 56.0575 73.841 56.1387 73.6367 56.1387H72.7894C72.3215 56.1404 71.8652 56.2836 71.4802 56.5495C71.0953 56.8154 70.7998 57.1915 70.6325 57.6284C70.5511 57.8436 70.4627 58.056 70.3675 58.2655C70.1741 58.6925 70.1147 59.1683 70.1972 59.6298C70.2797 60.0913 70.5003 60.517 70.8297 60.8506L71.4321 61.4537C71.5037 61.5252 71.5605 61.6101 71.5992 61.7035C71.638 61.797 71.658 61.8971 71.658 61.9983C71.6581 62.0995 71.6382 62.1996 71.5995 62.2931C71.5609 62.3866 71.5042 62.4715 71.4327 62.5431L71.4321 62.5437L69.2552 64.7205C69.1108 64.8649 68.9149 64.9461 68.7106 64.9461C68.5064 64.9461 68.3105 64.8649 68.166 64.7205L67.5621 64.1174C67.2287 63.7877 66.803 63.5669 66.3414 63.4844C65.8798 63.4019 65.404 63.4614 64.977 63.6552C64.768 63.7501 64.556 63.8384 64.3415 63.9202C63.9049 64.0874 63.5291 64.3827 63.2634 64.7673C62.9976 65.152 62.8544 65.608 62.8525 66.0755V66.9228C62.8525 67.1271 62.7714 67.323 62.6269 67.4675C62.4825 67.612 62.2865 67.6931 62.0822 67.6931H59.0011C58.7968 67.6931 58.6008 67.612 58.4564 67.4675C58.3119 67.323 58.2308 67.1271 58.2308 66.9228V66.0755C58.229 65.6077 58.0858 65.1513 57.8199 64.7663C57.5541 64.3814 57.1779 64.0859 56.741 63.9187C56.5259 63.8372 56.3134 63.7489 56.104 63.6537C55.6769 63.4603 55.2012 63.401 54.7397 63.4835C54.2782 63.566 53.8525 63.7865 53.5189 64.1159L52.9157 64.7182C52.8442 64.7898 52.7593 64.8466 52.6659 64.8854C52.5725 64.9241 52.4723 64.9441 52.3712 64.9441C52.27 64.9442 52.1698 64.9243 52.0763 64.8857C51.9829 64.847 51.8979 64.7903 51.8263 64.7188L51.8258 64.7182L49.6489 62.5437C49.5045 62.3992 49.4234 62.2033 49.4234 61.9991C49.4234 61.7948 49.5045 61.5989 49.6489 61.4545L50.252 60.8506C50.5815 60.517 50.8021 60.0913 50.8846 59.6298C50.9671 59.1683 50.9077 58.6925 50.7142 58.2655C50.6194 58.0564 50.531 57.8445 50.4492 57.63C50.2824 57.1929 49.9873 56.8166 49.6026 56.5504C49.2179 56.2843 48.7617 56.1407 48.294 56.1387H47.4466C47.2423 56.1387 47.0464 56.0575 46.9019 55.9131C46.7575 55.7686 46.6763 55.5727 46.6763 55.3684V52.2872C46.6763 52.0829 46.7575 51.887 46.9019 51.7425C47.0464 51.5981 47.2423 51.5169 47.4466 51.5169H48.294C48.7618 51.5152 49.2182 51.372 49.6031 51.1061C49.988 50.8402 50.2835 50.4641 50.4508 50.0272C50.5324 49.8115 50.6207 49.5992 50.7158 49.3901C50.9092 48.963 50.9686 48.4873 50.8861 48.0258C50.8036 47.5643 50.583 47.1386 50.2536 46.805L49.6481 46.2019C49.5766 46.1304 49.5198 46.0455 49.481 45.952C49.4422 45.8586 49.4223 45.7584 49.4222 45.6573C49.4222 45.5561 49.442 45.4559 49.4807 45.3625C49.5194 45.269 49.5761 45.184 49.6476 45.1125L49.6481 45.1119L51.825 42.935C51.9694 42.7906 52.1653 42.7095 52.3696 42.7095C52.5738 42.7095 52.7697 42.7906 52.9142 42.935L53.5181 43.5382C53.8515 43.8679 54.2772 44.0887 54.7388 44.1712C55.2004 44.2537 55.6762 44.1941 56.1032 44.0004C56.3123 43.9055 56.5242 43.8171 56.7387 43.7354C57.1759 43.5687 57.5524 43.2736 57.8187 42.8889C58.085 42.5042 58.2287 42.048 58.2308 41.5801V40.7328C58.2308 40.5285 58.3119 40.3325 58.4564 40.1881C58.6008 40.0436 58.7968 39.9625 59.0011 39.9625H62.0822C62.2865 39.9625 62.4825 40.0436 62.6269 40.1881C62.7714 40.3325 62.8525 40.5285 62.8525 40.7328V41.5801C62.8543 42.0479 62.9975 42.5043 63.2634 42.8892C63.5293 43.2742 63.9054 43.5697 64.3423 43.7369C64.558 43.8186 64.7703 43.9069 64.9793 44.0019C65.4063 44.1957 65.8821 44.2553 66.3437 44.1727C66.8054 44.0902 67.231 43.8695 67.5644 43.5397L68.1676 42.9373C68.3127 42.7938 68.5085 42.7133 68.7126 42.7133C68.9166 42.7133 69.1125 42.7938 69.2576 42.9373L71.4344 45.1142C71.5788 45.2587 71.6599 45.4545 71.6599 45.6588C71.6599 45.8631 71.5788 46.059 71.4344 46.2034L70.8313 46.8073C70.5018 47.1409 70.2813 47.5666 70.1988 48.0281C70.1163 48.4896 70.1756 48.9653 70.3691 49.3924C70.4639 49.6015 70.5523 49.8134 70.6341 50.0279C70.8013 50.4645 71.0966 50.8403 71.4812 51.1061C71.8658 51.3718 72.3219 51.515 72.7894 51.5169H73.6367C73.841 51.5169 74.0369 51.5981 74.1814 51.7425C74.3258 51.887 74.407 52.0829 74.407 52.2872V55.3684Z" fill="black"/>
<path d="M65.9339 53.5858C65.9284 53.4419 65.9172 53.2984 65.9003 53.1554C65.8811 53.0018 65.8582 52.8493 65.8264 52.6999C65.8054 52.602 65.7778 52.5054 65.7514 52.4081C65.7179 52.285 65.6801 52.1631 65.638 52.0426C65.6086 51.9592 65.5779 51.8763 65.5467 51.7941C65.4695 51.6019 65.3811 51.4143 65.282 51.2323C65.2742 51.2185 65.2694 51.2035 65.2616 51.1897C65.1055 50.9117 64.9247 50.6484 64.7214 50.4028C64.704 50.3812 64.6842 50.3608 64.6662 50.3398C64.584 50.2421 64.4981 50.1476 64.4087 50.0564C64.3619 50.0078 64.3127 49.9622 64.2634 49.9154C64.2034 49.8596 64.1434 49.8044 64.0834 49.7515C64.0107 49.6884 63.9365 49.6272 63.8607 49.5679L63.7623 49.4946C62.8335 48.799 61.7042 48.4232 60.5438 48.4238C60.4838 48.4238 60.4238 48.4328 60.3638 48.4352C60.2351 48.4385 60.1065 48.4465 59.9784 48.4592C59.9106 48.4664 59.8422 48.4742 59.7743 48.4839C59.5787 48.5096 59.3845 48.5459 59.1927 48.5925C56.3026 49.3393 54.565 52.2878 55.3119 55.178C55.5535 56.1131 56.0414 56.9664 56.7246 57.6491C57.4079 58.3318 58.2616 58.819 59.1969 59.0599C59.2065 59.0599 59.2167 59.0629 59.2269 59.0653C59.4342 59.117 59.6442 59.1571 59.856 59.1853C59.9958 59.2027 60.1357 59.2063 60.2761 59.2129C60.3698 59.2177 60.4562 59.2315 60.554 59.2315C60.7251 59.2315 60.9028 59.2201 61.084 59.2021C61.1032 59.2021 61.1225 59.1967 61.1441 59.1943C61.293 59.1781 61.4412 59.1555 61.5882 59.1265C61.6483 59.1151 61.7041 59.1001 61.7617 59.0869C61.8687 59.0626 61.975 59.0351 62.0804 59.0046C62.1644 58.9794 62.2461 58.95 62.3283 58.9212C62.4105 58.8924 62.4958 58.8612 62.581 58.8288C62.6662 58.7964 62.7377 58.7591 62.8151 58.7231C62.9159 58.6769 63.0162 58.6313 63.1152 58.5773H63.1188C63.679 58.2774 64.1964 57.9037 64.6572 57.4663C64.7817 57.3501 64.8899 57.2176 64.9789 57.0725C65.4474 56.3215 65.7552 55.4815 65.8829 54.6056C65.8997 54.4897 65.9147 54.3739 65.9237 54.2556C65.9321 54.147 65.9381 54.039 65.9405 53.9309C65.9405 53.8967 65.9453 53.8643 65.9453 53.8301C65.9459 53.7454 65.9375 53.6674 65.9339 53.5858Z" fill="url(#paint0_linear_3_179)"/>
<path d="M10.491 24.616L5.63757 29.4694L10.491 34.323M25.0516 24.616L29.9051 29.4694L25.0516 34.323M20.198 24.616L15.3446 34.323" stroke="black" stroke-width="2" stroke-miterlimit="10" stroke-linecap="round" stroke-linejoin="round"/>
</g>
<defs>
<linearGradient id="paint0_linear_3_179" x1="55.1387" y1="48.9097" x2="61.2801" y2="60.7953" gradientUnits="userSpaceOnUse">
<stop stop-color="#F0C001"/>
<stop offset="0.5" stop-color="#4BB567"/>
<stop offset="1" stop-color="#0BC4FE"/>
</linearGradient>
<clipPath id="clip0_3_179">
<rect width="80" height="80" fill="white" transform="translate(0 0.395996)"/>
</clipPath>
</defs>
</svg>
