<svg width="75" height="75" viewBox="0 0 75 75" fill="none" xmlns="http://www.w3.org/2000/svg">
<g clip-path="url(#clip0_3_462)">
<path d="M15.4694 32.3437C15.4694 36.0937 19.5319 38.9062 21.5632 39.8437C26.7197 40.7812 29.5317 37.9687 30.9379 37.0312C32.3442 36.0937 33.2817 32.8125 37.0317 32.8125C40.0317 32.8125 42.9692 35.625 44.0629 37.0312C45.9379 38.5937 50.9067 41.0625 55.7817 38.4375C60.6567 35.8125 59.3754 27.0312 58.1254 22.9687C57.6567 22.1875 54.4692 19.9687 45.4692 17.3437C34.2192 14.0625 21.5632 19.6875 18.2819 21.5625C15.0007 23.4375 15.4694 27.6562 15.4694 32.3437Z" fill="url(#paint0_linear_3_462)"/>
<path d="M25.8413 24.75C25.808 24.5892 25.7435 24.4365 25.6512 24.3007C25.559 24.1648 25.4409 24.0485 25.3037 23.9583C25.1665 23.8681 25.0129 23.8058 24.8516 23.775C24.6903 23.7442 24.5245 23.7455 24.3637 23.7788C22.8211 24.0958 21.4141 24.8816 20.335 26.0288C20.121 26.2587 20.0014 26.5608 20 26.875V28.75C20 29.0815 20.1317 29.3995 20.3661 29.6339C20.6005 29.8683 20.9185 30 21.25 30C21.5815 30 21.8995 29.8683 22.1339 29.6339C22.3683 29.3995 22.5 29.0815 22.5 28.75V27.4C23.1762 26.8085 23.9947 26.4031 24.875 26.2238C25.198 26.1555 25.481 25.9622 25.662 25.6861C25.843 25.41 25.9075 25.0735 25.8413 24.75ZM1.25 13.75C1.58152 13.75 1.89946 13.6183 2.13388 13.3839C2.3683 13.1495 2.5 12.8315 2.5 12.5V3.75C2.5 3.41848 2.6317 3.10054 2.86612 2.86612C3.10054 2.6317 3.41848 2.5 3.75 2.5H12.5C12.8315 2.5 13.1495 2.3683 13.3839 2.13388C13.6183 1.89946 13.75 1.58152 13.75 1.25C13.75 0.918479 13.6183 0.600537 13.3839 0.366117C13.1495 0.131696 12.8315 0 12.5 0L3.75 0C2.75544 0 1.80161 0.395088 1.09835 1.09835C0.395088 1.80161 0 2.75544 0 3.75L0 12.5C0 12.8315 0.131696 13.1495 0.366117 13.3839C0.600537 13.6183 0.918479 13.75 1.25 13.75ZM71.25 0H62.5C62.1685 0 61.8505 0.131696 61.6161 0.366117C61.3817 0.600537 61.25 0.918479 61.25 1.25C61.25 1.58152 61.3817 1.89946 61.6161 2.13388C61.8505 2.3683 62.1685 2.5 62.5 2.5H71.25C71.5815 2.5 71.8995 2.6317 72.1339 2.86612C72.3683 3.10054 72.5 3.41848 72.5 3.75V12.5C72.5 12.8315 72.6317 13.1495 72.8661 13.3839C73.1005 13.6183 73.4185 13.75 73.75 13.75C74.0815 13.75 74.3995 13.6183 74.6339 13.3839C74.8683 13.1495 75 12.8315 75 12.5V3.75C75 2.75544 74.6049 1.80161 73.9016 1.09835C73.1984 0.395088 72.2446 0 71.25 0ZM3.75 60H12.5C12.8315 60 13.1495 59.8683 13.3839 59.6339C13.6183 59.3995 13.75 59.0815 13.75 58.75C13.75 58.4185 13.6183 58.1005 13.3839 57.8661C13.1495 57.6317 12.8315 57.5 12.5 57.5H3.75C3.41848 57.5 3.10054 57.3683 2.86612 57.1339C2.6317 56.8995 2.5 56.5815 2.5 56.25V47.5C2.5 47.1685 2.3683 46.8505 2.13388 46.6161C1.89946 46.3817 1.58152 46.25 1.25 46.25C0.918479 46.25 0.600537 46.3817 0.366117 46.6161C0.131696 46.8505 0 47.1685 0 47.5L0 56.25C0 57.2446 0.395088 58.1984 1.09835 58.9017C1.80161 59.6049 2.75544 60 3.75 60ZM73.75 46.25C73.4185 46.25 73.1005 46.3817 72.8661 46.6161C72.6317 46.8505 72.5 47.1685 72.5 47.5V56.25C72.5 56.5815 72.3683 56.8995 72.1339 57.1339C71.8995 57.3683 71.5815 57.5 71.25 57.5H62.5C62.1685 57.5 61.8505 57.6317 61.6161 57.8661C61.3817 58.1005 61.25 58.4185 61.25 58.75C61.25 59.0815 61.3817 59.3995 61.6161 59.6339C61.8505 59.8683 62.1685 60 62.5 60H71.25C72.2446 60 73.1984 59.6049 73.9016 58.9017C74.6049 58.1984 75 57.2446 75 56.25V47.5C75 47.1685 74.8683 46.8505 74.6339 46.6161C74.3995 46.3817 74.0815 46.25 73.75 46.25Z" fill="#050505"/>
<path d="M5.05362 7.13388C4.8192 6.89946 4.6875 6.58152 4.6875 6.25C4.6875 5.91848 4.8192 5.60054 5.05362 5.36612C5.28804 5.1317 5.60598 5 5.9375 5H10.9375C11.269 5 11.587 5.1317 11.8214 5.36612C12.0558 5.60054 12.1875 5.91848 12.1875 6.25C12.1875 6.58152 12.0558 6.89946 11.8214 7.13388C11.587 7.3683 11.269 7.5 10.9375 7.5H5.9375C5.60598 7.5 5.28804 7.3683 5.05362 7.13388Z" fill="#050505"/>
<path d="M69.6025 67.0363C62.837 66.1579 56.2241 64.3553 49.9487 61.6787C49.5587 59.6375 49.4402 57.5536 49.5962 55.4812C52.9508 51.4826 54.8551 46.4674 55 41.25C55 41.07 55.0163 40.8937 55.0225 40.715C59.0088 39.275 60.88 34.0813 60.3 25.8925C60.2457 24.843 59.9477 23.8206 59.4295 22.9062C58.9114 21.9919 58.1874 21.2109 57.315 20.625C57.015 20.4338 56.71 20.265 56.4075 20.0875L56.3737 19.3087C55.6912 4.6575 38.985 3.75875 38.7625 3.75H36.1825C36.015 3.7575 19.3075 4.65625 18.6262 19.2975L18.5925 20.0825C18.29 20.26 17.9837 20.4288 17.685 20.6188C16.8123 21.2052 16.0882 21.9869 15.57 22.9019C15.0519 23.8168 14.754 24.8399 14.7 25.89C14.12 34.08 15.9913 39.2738 19.9775 40.7137C19.9838 40.8975 20 41.075 20 41.2638C20.1463 46.4771 22.0507 51.4879 25.4037 55.4825C25.56 57.5538 25.4413 59.6375 25.05 61.6775C18.7763 64.3578 12.1633 66.161 5.3975 67.0363C3.904 67.2458 2.53613 67.9868 1.54474 69.1233C0.553353 70.2598 0.00491141 71.7156 0 73.2237L0 73.75C0 74.0815 0.131696 74.3995 0.366117 74.6339C0.600537 74.8683 0.918479 75 1.25 75H73.75C74.0815 75 74.3995 74.8683 74.6339 74.6339C74.8683 74.3995 75 74.0815 75 73.75V73.2237C74.9951 71.7156 74.4466 70.2598 73.4553 69.1233C72.4639 67.9868 71.096 67.2458 69.6025 67.0363ZM36.2375 6.25H38.7062C39.29 6.2775 52.7413 7.04375 53.8175 18.715C48.6759 16.4145 43.1307 15.152 37.5 15C31.8695 15.1516 26.3244 16.4132 21.1825 18.7125C22.25 7.0425 35.7087 6.27625 36.2375 6.25ZM17.1925 26.0675C17.2194 25.4068 17.3992 24.7614 17.7178 24.1821C18.0364 23.6027 18.4852 23.1052 19.0287 22.7288C27.125 17.5738 37.3975 17.5 37.5 17.5C37.6025 17.5 47.8563 17.56 55.9713 22.73C57.0737 23.4925 57.7537 24.73 57.8075 26.0687C58.0575 29.5375 58.1263 37.6938 53.5225 38.5488C51.6961 38.948 49.7942 38.8249 48.0345 38.1936C46.2748 37.5622 44.7285 36.4481 43.5725 34.9788C41.1975 30.4788 33.8025 30.4788 31.4275 34.9788C30.2725 36.4492 28.7263 37.5643 26.9663 38.1959C25.2064 38.8276 23.304 38.9503 21.4775 38.55C16.875 37.6987 16.9475 29.5375 17.1925 26.0675ZM22.5 41.205C24.6032 41.4051 26.7226 41.062 28.6552 40.2084C30.5877 39.3548 32.2689 38.0194 33.5375 36.33C33.5737 36.2738 33.6063 36.2162 33.635 36.1562C34.025 35.4891 34.5933 34.944 35.2761 34.5821C35.9588 34.2201 36.729 34.0558 37.5 34.1075C38.2687 34.0552 39.0369 34.2176 39.7187 34.5765C40.4005 34.9354 40.9692 35.4767 41.3613 36.14C41.3904 36.2054 41.4251 36.2681 41.465 36.3275C42.6161 37.8615 44.1095 39.1053 45.8264 39.9599C47.5432 40.8146 49.436 41.2563 51.3538 41.25C51.7288 41.25 52.11 41.23 52.5013 41.1975C52.5013 48.9163 46.8112 57.26 39.1112 60.0725C38.1138 60.6475 36.8838 60.6475 35.8862 60.0725C32.074 58.5521 28.7824 55.9625 26.4075 52.6151C24.0326 49.2678 22.6757 45.3055 22.5 41.205ZM2.57125 72.5C2.72472 71.7356 3.11178 71.0377 3.67896 70.5028C4.24614 69.9679 4.96544 69.6223 5.7375 69.5137C8.59315 69.1236 11.4269 68.587 14.2275 67.9062C14.8377 69.5673 15.7127 71.1186 16.8188 72.5H2.57125ZM54.5925 72.5H20.4075C18.7071 71.1288 17.411 69.3216 16.6575 67.2713C18.9539 66.6424 21.2182 65.9019 23.4425 65.0525C22.9909 65.5967 22.4513 66.0614 21.8462 66.4275C21.5625 66.5992 21.3585 66.8767 21.2793 67.1987C21.2001 67.5208 21.252 67.8612 21.4237 68.145C21.5955 68.4288 21.8729 68.6327 22.195 68.712C22.5171 68.7912 22.8575 68.7392 23.1413 68.5675C27.18 66.125 27.8837 61.7062 27.9387 58.1187C30.2138 60.1761 32.8917 61.7379 35.8025 62.705C36.8968 63.0944 38.0919 63.0944 39.1863 62.705C42.0964 61.7378 44.7738 60.1764 47.0488 58.12C47.1037 61.7075 47.8075 66.1263 51.8463 68.5687C52.13 68.7405 52.4704 68.7924 52.7925 68.7132C53.1146 68.634 53.392 68.43 53.5638 68.1462C53.7355 67.8625 53.7874 67.5221 53.7082 67.2C53.629 66.8779 53.425 66.6005 53.1413 66.4288C52.5362 66.0627 51.9966 65.5979 51.545 65.0537C53.7693 65.9032 56.0336 66.6436 58.33 67.2725C57.5798 69.3209 56.2881 71.1276 54.5925 72.5ZM58.1812 72.5C59.2873 71.1186 60.1623 69.5673 60.7725 67.9062C63.5731 68.587 66.4069 69.1236 69.2625 69.5137C70.0346 69.6223 70.7539 69.9679 71.321 70.5028C71.8882 71.0377 72.2753 71.7356 72.4287 72.5H58.1812Z" fill="#050505"/>
<path d="M14.3214 10.3662C14.5558 10.6007 14.6875 10.9186 14.6875 11.2501C14.6875 11.5816 14.5558 11.8996 14.3214 12.134C14.087 12.3684 13.769 12.5001 13.4375 12.5001H5.9375C5.60598 12.5001 5.28804 12.3684 5.05362 12.134C4.8192 11.8996 4.6875 11.5816 4.6875 11.2501C4.6875 10.9186 4.8192 10.6007 5.05362 10.3662C5.28804 10.1318 5.60598 10.0001 5.9375 10.0001H13.4375C13.769 10.0001 14.087 10.1318 14.3214 10.3662Z" fill="#050505"/>
<path d="M69.6339 7.13388C69.8683 6.89946 70 6.58152 70 6.25C70 5.91848 69.8683 5.60054 69.6339 5.36612C69.3995 5.1317 69.0815 5 68.75 5H63.75C63.4185 5 63.1005 5.1317 62.8661 5.36612C62.6317 5.60054 62.5 5.91848 62.5 6.25C62.5 6.58152 62.6317 6.89946 62.8661 7.13388C63.1005 7.3683 63.4185 7.5 63.75 7.5H68.75C69.0815 7.5 69.3995 7.3683 69.6339 7.13388Z" fill="#050505"/>
<path d="M60.3661 10.3661C60.1317 10.6005 60 10.9185 60 11.25C60 11.5815 60.1317 11.8995 60.3661 12.1339C60.6005 12.3683 60.9185 12.5 61.25 12.5H68.75C69.0815 12.5 69.3995 12.3683 69.6339 12.1339C69.8683 11.8995 70 11.5815 70 11.25C70 10.9185 69.8683 10.6005 69.6339 10.3661C69.3995 10.1317 69.0815 10 68.75 10H61.25C60.9185 10 60.6005 10.1317 60.3661 10.3661Z" fill="#050505"/>
<path d="M5.05362 53.1786C4.8192 53.413 4.6875 53.731 4.6875 54.0625C4.6875 54.394 4.8192 54.712 5.05362 54.9464C5.28804 55.1808 5.60598 55.3125 5.9375 55.3125H10.9375C11.269 55.3125 11.587 55.1808 11.8214 54.9464C12.0558 54.712 12.1875 54.394 12.1875 54.0625C12.1875 53.731 12.0558 53.413 11.8214 53.1786C11.587 52.9442 11.269 52.8125 10.9375 52.8125H5.9375C5.60598 52.8125 5.28804 52.9442 5.05362 53.1786Z" fill="#050505"/>
<path d="M14.3214 49.9464C14.5558 49.712 14.6875 49.394 14.6875 49.0625C14.6875 48.731 14.5558 48.413 14.3214 48.1786C14.087 47.9442 13.769 47.8125 13.4375 47.8125H5.9375C5.60598 47.8125 5.28804 47.9442 5.05362 48.1786C4.8192 48.413 4.6875 48.731 4.6875 49.0625C4.6875 49.394 4.8192 49.712 5.05362 49.9464C5.28804 50.1808 5.60598 50.3125 5.9375 50.3125H13.4375C13.769 50.3125 14.087 50.1808 14.3214 49.9464Z" fill="#050505"/>
<path d="M69.6339 53.1786C69.8683 53.413 70 53.731 70 54.0625C70 54.394 69.8683 54.712 69.6339 54.9464C69.3995 55.1808 69.0815 55.3125 68.75 55.3125H63.75C63.4185 55.3125 63.1005 55.1808 62.8661 54.9464C62.6317 54.712 62.5 54.394 62.5 54.0625C62.5 53.731 62.6317 53.413 62.8661 53.1786C63.1005 52.9442 63.4185 52.8125 63.75 52.8125H68.75C69.0815 52.8125 69.3995 52.9442 69.6339 53.1786Z" fill="#050505"/>
<path d="M60.3661 49.9464C60.1317 49.712 60 49.394 60 49.0625C60 48.731 60.1317 48.413 60.3661 48.1786C60.6005 47.9442 60.9185 47.8125 61.25 47.8125H68.75C69.0815 47.8125 69.3995 47.9442 69.6339 48.1786C69.8683 48.413 70 48.731 70 49.0625C70 49.394 69.8683 49.712 69.6339 49.9464C69.3995 50.1808 69.0815 50.3125 68.75 50.3125H61.25C60.9185 50.3125 60.6005 50.1808 60.3661 49.9464Z" fill="#050505"/>
</g>
<defs>
<linearGradient id="paint0_linear_3_462" x1="26.4018" y1="18.029" x2="31.7535" y2="42.5435" gradientUnits="userSpaceOnUse">
<stop stop-color="#F0C001"/>
<stop offset="0.5" stop-color="#4BB567"/>
<stop offset="1" stop-color="#0BC4FE"/>
</linearGradient>
<clipPath id="clip0_3_462">
<rect width="75" height="75" fill="white"/>
</clipPath>
</defs>
</svg>
