<svg width="94" height="61" viewBox="0 0 94 61" fill="none" xmlns="http://www.w3.org/2000/svg">
<path d="M17.3578 60.2866H89.2222C90.3008 60.2856 91.3348 59.8566 92.0974 59.094C92.86 58.3314 93.289 57.2974 93.29 56.2188V4.69341C93.289 3.61489 92.86 2.58086 92.0974 1.81823C91.3348 1.0556 90.3008 0.626687 89.2222 0.62561H17.3578C16.2793 0.626687 15.2453 1.0556 14.4827 1.81823C13.72 2.58086 13.2911 3.61489 13.29 4.69341V16.636C13.29 17.3848 13.8971 17.9919 14.646 17.9919C15.3948 17.9919 16.0019 17.3848 16.0019 16.636V4.69341C16.0019 4.33379 16.1448 3.9889 16.399 3.73462C16.6533 3.48033 16.9982 3.33747 17.3578 3.33747H89.2222C89.5819 3.33747 89.9268 3.48033 90.181 3.73462C90.4353 3.9889 90.5782 4.33379 90.5782 4.69341V56.2188C90.5782 56.5784 90.4353 56.9233 90.181 57.1776C89.9268 57.4319 89.5819 57.5748 89.2222 57.5748H17.3578C16.9982 57.5748 16.6533 57.4319 16.399 57.1776C16.2842 57.0628 16.1921 56.6158 16.1257 56.1269C16.0229 55.371 15.3203 54.7876 14.5669 54.9067C13.9632 55.0021 13.5145 55.5233 13.5695 56.132C13.6679 57.2207 13.925 58.5364 14.4827 59.094C15.2453 59.8566 16.2793 60.2856 17.3578 60.2866Z" fill="black"/>
<path d="M91.9341 15.541H14.646C14.2864 15.541 13.9415 15.3981 13.6872 15.1438C13.4329 14.8895 13.29 14.5446 13.29 14.185C13.29 13.8254 13.4329 13.4805 13.6872 13.2262C13.9415 12.972 14.2864 12.8291 14.646 12.8291H91.9341C92.2937 12.8291 92.6386 12.972 92.8929 13.2262C93.1472 13.4805 93.29 13.8254 93.29 14.185C93.29 14.5446 93.1472 14.8895 92.8929 15.1438C92.6386 15.3981 92.2937 15.541 91.9341 15.541ZM85.8324 10.1172C85.4301 10.1172 85.0369 9.99795 84.7024 9.77446C84.368 9.55097 84.1073 9.23332 83.9533 8.86168C83.7994 8.49003 83.7591 8.08108 83.8376 7.68654C83.9161 7.29201 84.1098 6.9296 84.3942 6.64515C84.6787 6.36071 85.0411 6.167 85.4356 6.08852C85.8302 6.01004 86.2391 6.05032 86.6107 6.20426C86.9824 6.3582 87.3 6.61889 87.5235 6.95337C87.747 7.28784 87.8663 7.68107 87.8663 8.08334C87.8663 8.62276 87.652 9.14009 87.2706 9.52152C86.8892 9.90295 86.3718 10.1172 85.8324 10.1172ZM79.7307 10.1172C79.3285 10.1172 78.9352 9.99795 78.6007 9.77446C78.2663 9.55097 78.0056 9.23332 77.8516 8.86168C77.6977 8.49003 77.6574 8.08108 77.7359 7.68654C77.8144 7.29201 78.0081 6.9296 78.2925 6.64515C78.577 6.36071 78.9394 6.167 79.3339 6.08852C79.7285 6.01004 80.1374 6.05032 80.5091 6.20426C80.8807 6.3582 81.1984 6.61889 81.4218 6.95337C81.6453 7.28784 81.7646 7.68107 81.7646 8.08334C81.7646 8.62276 81.5503 9.14009 81.1689 9.52152C80.7875 9.90295 80.2701 10.1172 79.7307 10.1172ZM73.629 10.1172C73.2268 10.1172 72.8335 9.99795 72.4991 9.77446C72.1646 9.55097 71.9039 9.23332 71.7499 8.86168C71.596 8.49003 71.5557 8.08108 71.6342 7.68654C71.7127 7.29201 71.9064 6.9296 72.1908 6.64515C72.4753 6.36071 72.8377 6.167 73.2322 6.08852C73.6268 6.01004 74.0357 6.05032 74.4074 6.20426C74.779 6.3582 75.0967 6.61889 75.3201 6.95337C75.5436 7.28784 75.6629 7.68107 75.6629 8.08334C75.6629 8.62276 75.4486 9.14009 75.0672 9.52152C74.6858 9.90295 74.1684 10.1172 73.629 10.1172Z" fill="black"/>
<path d="M32.994 53.4521C33.2845 53.4463 33.5154 53.2062 33.5096 52.9156C33.5039 52.625 33.2637 52.3942 32.9731 52.4L30.8688 52.4416C30.5785 52.4474 30.3474 52.6875 30.3532 52.9781C30.3589 53.2686 30.5993 53.4995 30.8897 53.4938L32.994 53.4521Z" fill="black"/>
<path d="M32.994 53.4521C33.2845 53.4463 33.5154 53.2062 33.5096 52.9156C33.5039 52.625 33.2637 52.3942 32.9731 52.4L30.8688 52.4416C30.5785 52.4474 30.3474 52.6875 30.3532 52.9781C30.3589 53.2686 30.5993 53.4995 30.8897 53.4938L32.994 53.4521Z" fill="url(#paint0_linear_3_264)"/>
<path d="M16.6511 20.1132L16.0069 45.6272L16.007 45.6283C16.0061 45.6883 16.015 45.7481 16.0333 45.8053L18.4838 53.2347C18.6043 53.6004 19.0675 53.7175 19.3468 53.4519L29.2851 53.4519C29.4957 53.2516 30.0442 53.1244 29.8439 52.9138C29.6436 52.7032 29.1526 52.282 28.942 52.4823L19.8296 52.4823L22.2841 45.961C22.3052 45.9052 22.317 45.8462 22.3189 45.7865L22.3191 45.7849C22.3444 44.7853 22.9312 21.5559 22.9637 20.2712C23.0073 18.5275 21.6305 17.0796 19.8863 17.0358C18.1464 16.9926 16.6953 18.3732 16.6511 20.1132ZM21.7921 24.9791L17.5836 24.8737L17.6234 23.2955L21.832 23.4008L21.7921 24.9791ZM21.2805 45.2328L17.0723 45.1277L17.5571 25.9257L19.1359 25.9653L18.7422 41.4848C18.735 41.7751 18.9644 42.0167 19.2549 42.0241C19.5453 42.0315 19.7869 41.802 19.7943 41.5113L20.188 25.9916L21.7656 26.0311L21.2805 45.2328ZM18.3167 49.3691L19.8296 49.4071L19.0215 51.5061L18.3167 49.3691Z" fill="url(#paint1_linear_3_264)"/>
<path fill-rule="evenodd" clip-rule="evenodd" d="M35.2696 28.8369C35.2718 27.8199 35.6767 26.8452 36.3959 26.1261C37.115 25.407 38.0897 25.002 39.1067 24.9998C39.3842 24.9998 39.6504 25.1101 39.8467 25.3063C40.0429 25.5026 40.1532 25.7688 40.1532 26.0463C40.1532 26.3239 40.0429 26.59 39.8467 26.7863C39.6504 26.9825 39.3842 27.0928 39.1067 27.0928C38.1495 27.0928 37.3625 27.8798 37.3625 28.8369C37.3625 29.7941 38.1495 30.5811 39.1067 30.5811C40.0639 30.5811 40.8508 29.7941 40.8508 28.8369C40.8508 28.5594 40.9611 28.2932 41.1573 28.097C41.3536 27.9007 41.6198 27.7905 41.8973 27.7905C42.1749 27.7905 42.441 27.9007 42.6373 28.097C42.8335 28.2932 42.9438 28.5594 42.9438 28.8369C42.9416 29.8539 42.5366 30.8286 41.8175 31.5477C41.0984 32.2669 40.1237 32.6718 39.1067 32.6741C38.0897 32.6718 37.115 32.2669 36.3959 31.5477C35.6767 30.8286 35.2718 29.8539 35.2696 28.8369ZM57.2458 30.5811C57.5233 30.5811 57.7895 30.6913 57.9858 30.8876C58.182 31.0838 58.2923 31.35 58.2923 31.6276V38.6042C58.2923 42.1957 57.5807 44.9808 55.7179 46.8435C53.8566 48.7062 51.0701 49.4179 47.4786 49.4179H39.1067C35.5151 49.4179 32.7301 48.7062 30.8673 46.8435C29.0046 44.9821 28.293 42.1957 28.293 38.6042V35.7996C28.293 35.522 28.4032 35.2558 28.5995 35.0596C28.7957 34.8633 29.0619 34.7531 29.3395 34.7531C29.617 34.7531 29.8832 34.8633 30.0794 35.0596C30.2757 35.2558 30.3859 35.522 30.3859 35.7996V38.6042C30.3859 41.9892 31.0696 44.0877 32.3464 45.3645C33.6245 46.6412 35.7216 47.3249 39.1067 47.3249H47.4786C50.8636 47.3249 52.9622 46.6412 54.2389 45.3645C55.5156 44.0864 56.1993 41.9892 56.1993 38.6042V31.6276C56.1993 31.35 56.3096 31.0838 56.5058 30.8876C56.7021 30.6913 56.9683 30.5811 57.2458 30.5811Z" fill="black"/>
<path fill-rule="evenodd" clip-rule="evenodd" d="M30.8673 21.9929C32.7287 20.1302 35.5151 19.4186 39.1067 19.4186H44.6879C44.9655 19.4186 45.2317 19.5288 45.4279 19.7251C45.6242 19.9213 45.7344 20.1875 45.7344 20.4651C45.7344 20.7426 45.6242 21.0088 45.4279 21.205C45.2317 21.4013 44.9655 21.5116 44.6879 21.5116H39.1067C35.7216 21.5116 33.6231 22.1953 32.3464 23.472C31.0696 24.7487 30.3859 26.8472 30.3859 30.2323C30.3859 30.5098 30.2757 30.776 30.0794 30.9723C29.8832 31.1685 29.617 31.2788 29.3395 31.2788C29.0619 31.2788 28.7957 31.1685 28.5995 30.9723C28.4032 30.776 28.293 30.5098 28.293 30.2323C28.293 26.6407 29.0046 23.8557 30.8673 21.9929ZM47.4786 24.651C47.4786 24.3735 47.5888 24.1073 47.7851 23.911C47.9813 23.7148 48.2475 23.6045 48.5251 23.6045H56.1993C56.4769 23.6045 56.743 23.7148 56.9393 23.911C57.1355 24.1073 57.2458 24.3735 57.2458 24.651C57.2458 24.9286 57.1355 25.1947 56.9393 25.391C56.743 25.5873 56.4769 25.6975 56.1993 25.6975H48.5251C48.2475 25.6975 47.9813 25.5873 47.7851 25.391C47.5888 25.1947 47.4786 24.9286 47.4786 24.651Z" fill="black"/>
<path fill-rule="evenodd" clip-rule="evenodd" d="M52.3622 19.7674C52.6398 19.7674 52.9059 19.8776 53.1022 20.0739C53.2985 20.2702 53.4087 20.5363 53.4087 20.8139V28.4881C53.4087 28.7657 53.2985 29.0318 53.1022 29.2281C52.9059 29.4244 52.6398 29.5346 52.3622 29.5346C52.0847 29.5346 51.8185 29.4244 51.6222 29.2281C51.426 29.0318 51.3157 28.7657 51.3157 28.4881V20.8139C51.3157 20.5363 51.426 20.2702 51.6222 20.0739C51.8185 19.8776 52.0847 19.7674 52.3622 19.7674ZM54.2892 35.9098C53.5929 35.3112 52.4152 35.3112 51.719 35.9098L45.9145 40.8911C44.434 42.1622 42.0955 42.1622 40.615 40.8911L40.6067 40.8827L40.1504 40.4823C39.5253 39.9493 38.4565 39.8823 37.7365 40.3665L30.8576 44.985C30.7434 45.0615 30.6153 45.1149 30.4805 45.142C30.3458 45.1691 30.207 45.1693 30.0721 45.1428C29.9372 45.1162 29.8089 45.0633 29.6944 44.9872C29.58 44.911 29.4817 44.8131 29.4051 44.6989C29.3285 44.5848 29.2751 44.4566 29.248 44.3219C29.221 44.1871 29.2207 44.0483 29.2473 43.9134C29.2738 43.7785 29.3267 43.6502 29.4028 43.5358C29.479 43.4213 29.577 43.323 29.6911 43.2464L36.57 38.6279C38.0532 37.633 40.163 37.7349 41.5192 38.8986L41.5276 38.907L41.9825 39.306C42.6801 39.9018 43.855 39.9004 44.5498 39.3032L50.3544 34.3219C51.8348 33.0508 54.1733 33.0508 55.6538 34.3219L57.9281 36.2754C58.1387 36.4563 58.2688 36.7135 58.2897 36.9904C58.3106 37.2672 58.2207 37.5411 58.0398 37.7516C57.8588 37.9622 57.6016 38.0923 57.3248 38.1132C57.0479 38.1341 56.7741 38.0442 56.5635 37.8633L54.2892 35.9098Z" fill="black"/>
<defs>
<linearGradient id="paint0_linear_3_264" x1="30.3437" y1="52.4993" x2="30.6171" y2="53.9183" gradientUnits="userSpaceOnUse">
<stop stop-color="#F0C001"/>
<stop offset="0.5" stop-color="#4BB567"/>
<stop offset="1" stop-color="#0BC4FE"/>
</linearGradient>
<linearGradient id="paint1_linear_3_264" x1="15.0516" y1="16.7749" x2="26.1889" y2="50.4346" gradientUnits="userSpaceOnUse">
<stop stop-color="#F0C001"/>
<stop offset="0.5" stop-color="#4BB567"/>
<stop offset="1" stop-color="#0BC4FE"/>
</linearGradient>
</defs>
</svg>
