<svg width="80" height="80" viewBox="0 0 80 80" fill="none" xmlns="http://www.w3.org/2000/svg">
<g clip-path="url(#clip0_3_573)">
<circle cx="16" cy="37" r="6" fill="url(#paint0_linear_3_573)"/>
<path d="M50.2828 33.5671C51.8086 31.7527 54.1522 30.8435 56.4674 31.0982L49.8203 55.9052C46.597 55.0584 43.2489 54.604 39.8278 54.604C27.4435 54.604 15.9503 60.3566 8.29377 70.3868C8.17153 70.547 8.09648 70.7382 8.07707 70.9388C8.05767 71.1394 8.09467 71.3414 8.18392 71.5221C8.27337 71.7028 8.41151 71.8548 8.58276 71.9611C8.75401 72.0674 8.95157 72.1238 9.15314 72.1238H70.5031C70.9142 72.1238 71.29 71.8905 71.4724 71.5221C71.6547 71.1537 71.6117 70.7137 71.3625 70.3868C66.2791 63.728 59.4995 58.969 51.8966 56.5123L58.5536 31.668C60.5895 32.5793 62.097 34.4255 62.5716 36.6357C62.5623 36.886 62.6402 37.1318 62.7921 37.3309C62.9439 37.5301 63.1603 37.6704 63.4041 37.7277C63.4059 37.7282 63.408 37.728 63.41 37.7285C63.4127 37.7293 63.4147 37.731 63.4174 37.7316C63.822 37.841 64.2536 37.7046 64.5245 37.3832C66.2806 35.2945 69.12 34.403 71.7517 35.107C74.5791 35.8646 76.6675 38.3299 76.9483 41.2413C76.9741 41.509 77.0987 41.7574 77.2978 41.9382C77.4969 42.1189 77.7563 42.2189 78.0252 42.2187C78.259 42.2184 78.4864 42.1424 78.6734 42.0021C78.8605 41.8618 78.997 41.6646 79.0627 41.4402C79.1091 41.2798 79.1556 41.119 79.1984 40.9591C82.4495 28.8265 75.5227 16.3241 63.6761 12.5504L64.5642 9.23695C64.6383 8.96003 64.5994 8.66503 64.4561 8.41678C64.3127 8.16853 64.0767 7.98735 63.7999 7.91305C63.6627 7.87616 63.5196 7.86668 63.3787 7.88514C63.2379 7.90361 63.1021 7.94965 62.9791 8.02064C62.856 8.09163 62.7482 8.18618 62.6617 8.29887C62.5753 8.41157 62.5119 8.5402 62.4752 8.67742L61.5877 11.9896C49.4255 9.30648 37.1502 16.6729 33.8938 28.8224C33.8516 28.9823 33.812 29.142 33.7727 29.3018C33.6481 29.8054 33.8986 30.3266 34.3702 30.5434C34.8417 30.7601 35.4006 30.6113 35.7019 30.1893C37.4017 27.8082 40.4424 26.7182 43.2697 27.4749C45.9035 28.1809 47.9144 30.3734 48.3916 33.0604C48.4814 33.513 48.8327 33.8634 49.2686 33.9404C49.8577 34.0443 50.2636 33.5895 50.2828 33.5671ZM68.2389 69.9616H11.4175C18.6228 61.5474 28.8577 56.7662 39.8278 56.7662C50.798 56.7662 61.033 61.5474 68.2389 69.9616ZM43.8292 25.3865C41.5424 24.7738 39.15 25.0866 37.1314 26.152C40.9728 17.6019 50.087 12.5177 59.4255 13.7987C55.3672 16.8129 52.0002 22.119 49.3781 29.6327C48.1689 27.5815 46.1974 26.0209 43.8292 25.3865ZM58.1266 29.221C58.1152 29.2174 58.1053 29.2116 58.0936 29.2085C58.0906 29.2077 58.0877 29.2077 58.0847 29.2071C58.0802 29.2059 58.0758 29.2038 58.0711 29.2026C55.8677 28.6113 53.5619 28.8876 51.5816 29.871C54.2995 22.2618 57.7694 17.176 61.9275 14.7177C64.2947 18.9171 64.7599 25.0402 63.3194 32.9671C62.1059 31.1701 60.2809 29.8132 58.1266 29.221ZM77.7291 37.0293C76.5134 35.0979 74.5977 33.6307 72.3122 33.0184C71.5399 32.8116 70.7439 32.707 69.9444 32.7073C68.3238 32.7073 66.7311 33.1415 65.3309 33.9446C66.825 26.1059 66.5636 19.8127 64.5511 15.166C73.3088 18.7134 78.678 27.686 77.7291 37.0293ZM15.8124 43.9024C19.8138 43.9024 23.0691 40.6471 23.0691 36.6457C23.0691 32.6446 19.8138 29.3893 15.8124 29.3893C11.811 29.3893 8.55564 32.6446 8.55564 36.6457C8.55564 40.6471 11.811 43.9024 15.8124 43.9024ZM15.8124 31.5516C18.6214 31.5516 20.9069 33.8366 20.9069 36.6459C20.9069 39.4551 18.6214 41.7404 15.8124 41.7404C13.0033 41.7404 10.7178 39.4549 10.7178 36.6459C10.7178 33.8368 13.0033 31.5516 15.8124 31.5516ZM14.7313 25.6143V21.9152C14.7361 21.6317 14.8521 21.3614 15.0543 21.1626C15.2565 20.9638 15.5288 20.8524 15.8124 20.8524C16.0959 20.8524 16.3682 20.9638 16.5704 21.1626C16.7726 21.3614 16.8886 21.6317 16.8935 21.9152V25.6143C16.8886 25.8978 16.7726 26.1681 16.5704 26.3669C16.3682 26.5658 16.0959 26.6772 15.8124 26.6772C15.5288 26.6772 15.2565 26.5658 15.0543 26.3669C14.8521 26.1681 14.7361 25.8978 14.7313 25.6143ZM22.8488 29.6096C22.7483 29.5093 22.6687 29.3901 22.6143 29.2589C22.56 29.1278 22.532 28.9872 22.532 28.8452C22.532 28.7033 22.56 28.5627 22.6143 28.4315C22.6687 28.3004 22.7483 28.1812 22.8488 28.0809L25.4642 25.4649C25.5646 25.3645 25.6837 25.2848 25.8149 25.2305C25.9461 25.1761 26.0866 25.1482 26.2286 25.1482C26.3706 25.1482 26.5112 25.1761 26.6423 25.2305C26.7735 25.2848 26.8926 25.3645 26.993 25.4649C27.0934 25.5653 27.1731 25.6844 27.2274 25.8156C27.2818 25.9467 27.3097 26.0873 27.3097 26.2293C27.3097 26.3713 27.2818 26.5118 27.2274 26.643C27.1731 26.7742 27.0934 26.8933 26.993 26.9937L24.3775 29.6096C24.2773 29.7101 24.1581 29.7899 24.0269 29.8442C23.8958 29.8986 23.7551 29.9265 23.6131 29.9263C23.4711 29.9265 23.3305 29.8987 23.1993 29.8443C23.0681 29.79 22.949 29.7102 22.8488 29.6096ZM26.8439 35.5646H30.5435C30.827 35.5694 31.0973 35.6854 31.2961 35.8877C31.4949 36.0899 31.6063 36.3621 31.6063 36.6457C31.6063 36.9293 31.4949 37.2015 31.2961 37.4037C31.0973 37.606 30.827 37.722 30.5435 37.7268H26.8439C26.5604 37.722 26.2901 37.606 26.0913 37.4037C25.8925 37.2015 25.7811 36.9293 25.7811 36.6457C25.7811 36.3621 25.8925 36.0899 26.0913 35.8877C26.2901 35.6854 26.5604 35.5694 26.8439 35.5646ZM24.3777 43.6818L26.9931 46.2977C27.0936 46.3981 27.1732 46.5172 27.2276 46.6484C27.2819 46.7796 27.3099 46.9201 27.3099 47.0621C27.3099 47.2041 27.2819 47.3447 27.2276 47.4758C27.1732 47.607 27.0936 47.7261 26.9931 47.8265C26.782 48.0376 26.5053 48.1432 26.2288 48.1432C25.9522 48.1432 25.6755 48.0376 25.4644 47.8265L22.8489 45.2105C22.7485 45.1102 22.6688 44.991 22.6145 44.8599C22.5601 44.7287 22.5322 44.5881 22.5322 44.4462C22.5322 44.3042 22.5601 44.1636 22.6145 44.0325C22.6688 43.9013 22.7485 43.7822 22.8489 43.6818C22.9493 43.5814 23.0684 43.5017 23.1996 43.4474C23.3307 43.393 23.4713 43.365 23.6133 43.365C23.7553 43.365 23.8958 43.393 24.027 43.4474C24.1582 43.5017 24.2773 43.5814 24.3777 43.6818ZM15.8124 46.5962C16.0991 46.5962 16.374 46.7101 16.5768 46.9129C16.7795 47.1156 16.8934 47.3906 16.8935 47.6773V51.3763C16.8886 51.6599 16.7726 51.9302 16.5704 52.129C16.3682 52.3278 16.0959 52.4392 15.8124 52.4392C15.5288 52.4392 15.2565 52.3278 15.0543 52.129C14.8521 51.9302 14.7361 51.6599 14.7313 51.3763V47.6773C14.7313 47.3906 14.8452 47.1156 15.048 46.9129C15.2507 46.7101 15.5256 46.5962 15.8124 46.5962ZM8.77595 45.2105L6.16049 47.8265C5.94939 48.0376 5.67267 48.1432 5.39611 48.1432C5.11955 48.1432 4.84283 48.0376 4.63174 47.8265C4.53131 47.7261 4.45165 47.607 4.3973 47.4758C4.34295 47.3447 4.31497 47.2041 4.31497 47.0621C4.31497 46.9201 4.34295 46.7796 4.3973 46.6484C4.45165 46.5172 4.53131 46.3981 4.63174 46.2977L7.2472 43.6818C7.34756 43.5814 7.46672 43.5017 7.59787 43.4474C7.72903 43.393 7.86961 43.365 8.01158 43.365C8.15355 43.365 8.29413 43.393 8.42528 43.4474C8.55644 43.5017 8.6756 43.5814 8.77595 43.6818C8.87638 43.7822 8.95604 43.9013 9.01039 44.0325C9.06474 44.1636 9.09272 44.3042 9.09272 44.4462C9.09272 44.5881 9.06474 44.7287 9.01039 44.8599C8.95604 44.991 8.87638 45.1102 8.77595 45.2105ZM4.78095 37.727H1.08142C0.797883 37.7221 0.527585 37.6061 0.328774 37.4039C0.129963 37.2017 0.0185547 36.9294 0.0185547 36.6459C0.0185547 36.3623 0.129963 36.09 0.328774 35.8878C0.527585 35.6856 0.797883 35.5696 1.08142 35.5648H4.78095C5.0645 35.5696 5.33479 35.6856 5.5336 35.8878C5.73241 36.09 5.84382 36.3623 5.84382 36.6459C5.84382 36.9294 5.73241 37.2017 5.5336 37.4039C5.33479 37.6061 5.0645 37.7221 4.78095 37.727ZM4.63174 26.9938C4.53131 26.8935 4.45165 26.7743 4.3973 26.6432C4.34295 26.512 4.31497 26.3714 4.31497 26.2295C4.31497 26.0875 4.34295 25.9469 4.3973 25.8157C4.45165 25.6846 4.53131 25.5654 4.63174 25.4651C4.73209 25.3647 4.85125 25.285 4.9824 25.2306C5.11356 25.1763 5.25414 25.1483 5.39611 25.1483C5.53808 25.1483 5.67866 25.1763 5.80982 25.2306C5.94097 25.285 6.06013 25.3647 6.16049 25.4651L8.77595 28.081C8.87638 28.1814 8.95604 28.3005 9.01039 28.4317C9.06474 28.5628 9.09272 28.7034 9.09272 28.8454C9.09272 28.9874 9.06474 29.1279 9.01039 29.2591C8.95604 29.3902 8.87638 29.5094 8.77595 29.6098C8.56486 29.8209 8.28814 29.9265 8.01158 29.9265C7.73502 29.9265 7.4583 29.8209 7.2472 29.6098L4.63174 26.9938Z" fill="#050505"/>
</g>
<defs>
<linearGradient id="paint0_linear_3_573" x1="13" y1="31.8571" x2="17.515" y2="43.0405" gradientUnits="userSpaceOnUse">
<stop stop-color="#F0C001"/>
<stop offset="0.5" stop-color="#4BB567"/>
<stop offset="1" stop-color="#0BC4FE"/>
</linearGradient>
<clipPath id="clip0_3_573">
<rect width="80" height="80" fill="white"/>
</clipPath>
</defs>
</svg>
