<svg width="80" height="80" viewBox="0 0 80 80" fill="none" xmlns="http://www.w3.org/2000/svg">
<g clip-path="url(#clip0_3_528)">
<path d="M24.5 10.5L7.5 20L24.5 29.5L41.5 20L24.5 10.5Z" fill="url(#paint0_linear_3_528)"/>
<path d="M72.0482 49.297H70.9245V35.8703C70.9245 32.9952 68.5853 30.6559 65.7101 30.6559H50.8164V12.7652C50.8164 12.601 50.784 12.4385 50.7212 12.2868C50.6584 12.1351 50.5663 11.9973 50.4503 11.8813L38.9353 0.36625C38.8192 0.250138 38.6814 0.158032 38.5297 0.0951899C38.378 0.0323482 38.2154 2.51709e-06 38.0512 0L1.25012 0C0.918601 0 0.600659 0.131696 0.366239 0.366117C0.131818 0.600537 0.00012207 0.918479 0.00012207 1.25V62.5619C0.00012207 62.8934 0.131818 63.2113 0.366239 63.4458C0.600659 63.6802 0.918601 63.8119 1.25012 63.8119H49.5664C49.8979 63.8119 50.2158 63.6802 50.4503 63.4458C50.6847 63.2113 50.8164 62.8934 50.8164 62.5619V33.1559H65.7101C67.2068 33.1559 68.4245 34.3736 68.4245 35.8703V49.297H67.3009C62.9164 49.297 59.3493 52.8641 59.3493 57.2486V72.0484C59.3493 76.433 62.9164 80 67.3009 80H72.0484C76.4329 80 80 76.433 80 72.0484V57.2486C79.9998 52.8641 76.4328 49.297 72.0482 49.297ZM39.3012 4.26781L46.5486 11.5152H39.3012V4.26781ZM48.3164 61.312H2.50012V2.5H36.8012V12.765C36.8012 13.0965 36.9329 13.4145 37.1673 13.6489C37.4018 13.8833 37.7197 14.015 38.0512 14.015H48.3162V61.312H48.3164ZM72.0482 51.797C75.0542 51.797 77.4998 54.2427 77.4998 57.2486V59.6984H70.9245V51.797H72.0482ZM67.3009 51.797H68.4245V59.6984H61.8493V57.2486C61.8493 54.2427 64.2948 51.797 67.3009 51.797ZM72.0482 77.5H67.3008C64.2948 77.5 61.8492 75.0545 61.8492 72.0484V62.1984H77.4996V72.0484C77.4998 75.0544 75.0543 77.5 72.0482 77.5ZM43.9423 28.567L43.0867 28.0731V20.0458L43.0868 20.0436C43.0869 19.8175 43.0255 19.5957 42.9094 19.4017C42.7933 19.2077 42.6267 19.0488 42.4275 18.942L25.2586 9.73578C25.0769 9.63831 24.874 9.5873 24.6679 9.5873C24.4617 9.5873 24.2588 9.63831 24.0772 9.73578L6.90825 18.942C6.70895 19.0488 6.54235 19.2076 6.4262 19.4016C6.31005 19.5956 6.24871 19.8175 6.24871 20.0436C6.24871 20.2697 6.31005 20.4916 6.4262 20.6855C6.54235 20.8795 6.70895 21.0384 6.90825 21.1452L13.7795 24.8295V34.1791C13.7795 34.4051 13.8408 34.627 13.9569 34.821C14.073 35.015 14.2396 35.1738 14.4389 35.2806L22.1653 39.4236C22.9606 39.85 23.8143 40.0633 24.6679 40.0633C25.5217 40.0633 26.3754 39.85 27.1707 39.4236L34.897 35.2806C35.0963 35.1738 35.2628 35.015 35.379 34.821C35.4951 34.627 35.5564 34.4051 35.5564 34.1791V24.8295L40.5867 22.1322V28.073L39.7312 28.5669C39.5412 28.6766 39.3834 28.8343 39.2736 29.0244C39.1639 29.2144 39.1062 29.43 39.1062 29.6494V33.9561C39.1061 34.1755 39.1638 34.3912 39.2735 34.5812C39.3832 34.7713 39.541 34.9291 39.7311 35.0389C39.9211 35.1486 40.1367 35.2063 40.3562 35.2063C40.5756 35.2062 40.7912 35.1484 40.9812 35.0386L41.8367 34.5447L42.6923 35.0386C42.8823 35.1483 43.0979 35.2061 43.3173 35.2061C43.5367 35.2061 43.7523 35.1483 43.9423 35.0386C44.1323 34.9289 44.2901 34.7711 44.3998 34.5811C44.5095 34.3911 44.5673 34.1755 44.5673 33.9561V29.6494C44.5673 29.43 44.5095 29.2145 44.3998 29.0245C44.2901 28.8345 44.1323 28.6767 43.9423 28.567ZM33.0565 33.4309L25.9895 37.2203C25.1251 37.6839 24.2112 37.6839 23.3468 37.2203L16.2798 33.4309V26.17L24.0775 30.3512C24.2591 30.4487 24.462 30.4997 24.6681 30.4997C24.8742 30.4997 25.0771 30.4487 25.2587 30.3512L33.0564 26.17L33.0565 33.4309ZM33.7172 22.9791L33.7057 22.9852L24.6681 27.8312L15.6293 22.9847L15.6203 22.9798L10.1442 20.0434L24.6679 12.2556L39.1917 20.0434L33.7172 22.9791ZM42.0673 31.8728C41.9149 31.8443 41.7586 31.8443 41.6062 31.8728V30.3711L41.8367 30.2381L42.0673 30.3713V31.8728ZM39.4892 46.5291C39.4892 46.8606 39.3575 47.1785 39.1231 47.4129C38.8886 47.6474 38.5707 47.7791 38.2392 47.7791H10.1142C9.78266 47.7791 9.46472 47.6474 9.2303 47.4129C8.99588 47.1785 8.86418 46.8606 8.86418 46.5291C8.86418 46.1975 8.99588 45.8796 9.2303 45.6452C9.46472 45.4108 9.78266 45.2791 10.1142 45.2791H38.2392C38.5707 45.2791 38.8886 45.4108 39.1231 45.6452C39.3575 45.8796 39.4892 46.1975 39.4892 46.5291ZM39.4892 52.9744C39.4892 53.3059 39.3575 53.6238 39.1231 53.8583C38.8886 54.0927 38.5707 54.2244 38.2392 54.2244H10.1142C9.78266 54.2244 9.46472 54.0927 9.2303 53.8583C8.99588 53.6238 8.86418 53.3059 8.86418 52.9744C8.86418 52.6429 8.99588 52.3249 9.2303 52.0905C9.46472 51.8561 9.78266 51.7244 10.1142 51.7244H38.2392C38.5707 51.7244 38.8886 51.8561 39.1231 52.0905C39.3575 52.3249 39.4892 52.6429 39.4892 52.9744Z" fill="#050505"/>
</g>
<defs>
<linearGradient id="paint0_linear_3_528" x1="16" y1="11.8571" x2="20.421" y2="31.4529" gradientUnits="userSpaceOnUse">
<stop stop-color="#F0C001"/>
<stop offset="0.5" stop-color="#4BB567"/>
<stop offset="1" stop-color="#0BC4FE"/>
</linearGradient>
<clipPath id="clip0_3_528">
<rect width="80" height="80" fill="white"/>
</clipPath>
</defs>
</svg>
