<svg width="82" height="60" viewBox="0 0 82 60" fill="none" xmlns="http://www.w3.org/2000/svg">
<path d="M9.95479 35.7264L10.8652 35.0592C11.2839 35.2673 11.7203 35.4378 12.1691 35.5687L12.387 36.6751C12.5367 37.4385 13.2141 37.9835 13.9918 37.9662L15.1975 37.941C15.9754 37.9258 16.6293 37.3529 16.747 36.5839L16.9187 35.4691C17.3617 35.3196 17.7905 35.131 18.2001 34.9055L19.1377 35.5341C19.7835 35.9671 20.6469 35.8738 21.1852 35.3128L22.0202 34.4422C22.5594 33.8812 22.6166 33.0136 22.1557 32.3866L21.4888 31.4765C21.697 31.0578 21.8675 30.6215 21.9983 30.1726L23.1046 29.9547C23.8681 29.805 24.4131 29.1277 24.3958 28.3499L24.3706 27.1436C24.3553 26.3658 23.7825 25.7118 23.0135 25.5942L21.8993 25.4224C21.7497 24.9794 21.5611 24.5506 21.3357 24.141L21.9639 23.2037C22.398 22.5581 22.3045 21.6938 21.7424 21.1559L20.8718 20.321C20.3104 19.7827 19.4434 19.7255 18.8162 20.1855L17.906 20.8524C17.4874 20.6442 17.051 20.4737 16.6021 20.3428L16.3842 19.2365C16.2346 18.4731 15.5572 17.9281 14.7794 17.9453L13.5732 17.9705C12.7954 17.9858 12.1414 18.5586 12.0238 19.3277L11.852 20.4419C11.409 20.5914 10.9802 20.78 10.5706 21.0055L9.63302 20.3769C8.98738 19.9431 8.12322 20.0367 7.5855 20.5988L6.75056 21.4694C6.21143 22.0302 6.15409 22.8977 6.61479 23.5247C6.78056 23.7509 7.09836 23.7999 7.32461 23.6341C7.55087 23.4684 7.59987 23.1506 7.4341 22.9243C7.35259 22.8132 7.31287 22.6769 7.32192 22.5393C7.33097 22.4018 7.38821 22.2719 7.48357 22.1724L8.31851 21.3018C8.41391 21.2022 8.54138 21.1395 8.67847 21.1247C8.81556 21.1098 8.95349 21.1438 9.068 21.2206L10.2678 22.0255C10.3479 22.0793 10.4416 22.1092 10.5381 22.1117C10.6345 22.1142 10.7297 22.0891 10.8124 22.0395C11.3235 21.7297 11.873 21.4881 12.4467 21.3207C12.5399 21.2938 12.6235 21.2407 12.6874 21.1678C12.7514 21.0949 12.7932 21.0052 12.8078 20.9093L13.0274 19.4827C13.0484 19.3464 13.1168 19.222 13.2205 19.1312C13.3242 19.0404 13.4566 18.9891 13.5944 18.9862L14.8007 18.961C14.9385 18.9581 15.0729 19.0038 15.1803 19.0902C15.2877 19.1766 15.3613 19.2981 15.388 19.4333L15.6665 20.8495C15.6851 20.9447 15.7306 21.0326 15.7975 21.1028C15.8645 21.173 15.9502 21.2225 16.0444 21.2455C16.6249 21.3886 17.1843 21.607 17.7082 21.895C17.793 21.9416 17.8893 21.9631 17.9858 21.9568C18.0824 21.9505 18.1751 21.9168 18.2531 21.8596L19.418 21.0056C19.5289 20.9242 19.6649 20.8845 19.8022 20.8934C19.9394 20.9022 20.0692 20.9591 20.1688 21.054L21.0394 21.8889C21.1388 21.9844 21.2014 22.1118 21.2162 22.2488C21.231 22.3858 21.197 22.5237 21.1203 22.6381L20.3154 23.838C20.2617 23.9181 20.2319 24.0119 20.2295 24.1083C20.2271 24.2047 20.2522 24.2998 20.3019 24.3825C20.6116 24.8939 20.8533 25.4435 21.0207 26.0174C21.0476 26.1106 21.1007 26.1941 21.1736 26.2581C21.2465 26.3221 21.3363 26.3639 21.4322 26.3785L22.8585 26.5978C22.9947 26.6189 23.1192 26.6872 23.21 26.7909C23.3008 26.8947 23.3521 27.0271 23.3549 27.1649L23.3801 28.3711C23.3831 28.5089 23.3373 28.6433 23.2509 28.7508C23.1645 28.8582 23.0431 28.9317 22.9078 28.9584L21.4917 29.2369C21.3965 29.2555 21.3086 29.301 21.2384 29.3679C21.1682 29.4349 21.1187 29.5206 21.0957 29.6149C20.9524 30.1953 20.734 30.7545 20.4458 31.2783C20.3992 31.3631 20.3778 31.4594 20.3841 31.556C20.3904 31.6525 20.4241 31.7452 20.4813 31.8233L21.3356 32.9884C21.4169 33.0993 21.4566 33.2353 21.4478 33.3726C21.4389 33.5099 21.3821 33.6397 21.2872 33.7392L20.4522 34.6098C20.3568 34.7094 20.2294 34.7721 20.0923 34.7869C19.9552 34.8018 19.8172 34.7678 19.7027 34.691L18.5029 33.8861C18.4228 33.8323 18.3291 33.8024 18.2327 33.7999C18.1362 33.7974 18.0411 33.8225 17.9583 33.8721C17.4471 34.1817 16.8975 34.4232 16.3237 34.5906C16.2305 34.6175 16.147 34.6706 16.083 34.7435C16.019 34.8164 15.9773 34.9061 15.9627 35.002L15.743 36.4286C15.722 36.5649 15.6536 36.6893 15.5499 36.7801C15.4462 36.8709 15.3138 36.9222 15.176 36.9251L13.9698 36.9503C13.832 36.9532 13.6975 36.9075 13.5901 36.8211C13.4827 36.7347 13.4092 36.6132 13.3825 36.478L13.104 35.0618C13.0854 34.9666 13.0399 34.8787 12.9729 34.8085C12.9059 34.7383 12.8203 34.6888 12.726 34.6658C12.1457 34.5225 11.5866 34.3042 11.0628 34.0163C10.978 33.9697 10.8818 33.9484 10.7853 33.9547C10.6888 33.961 10.5961 33.9948 10.5182 34.052L9.35304 34.9062C9.24206 34.9876 9.10598 35.0274 8.96864 35.0185C8.83131 35.0096 8.70149 34.9526 8.60194 34.8576L7.73135 34.0226C7.63179 33.9272 7.56908 33.7998 7.55424 33.6627C7.53939 33.5256 7.57337 33.3877 7.6502 33.2732C7.80637 33.0402 7.74413 32.7247 7.51114 32.5685C7.27816 32.4124 6.96268 32.4746 6.80651 32.7076C6.37237 33.3533 6.46601 34.2179 7.02836 34.7557L7.89896 35.5906C8.4603 36.1291 9.32748 36.1864 9.95479 35.7264Z" fill="black"/>
<path d="M4.64136 30.4674L9.30567 30.4398C9.60621 30.4372 9.90373 30.4998 10.1777 30.6233C10.4518 30.7468 10.6957 30.9282 10.8929 31.155C12.6563 33.1693 15.7187 33.3726 17.7329 31.6091C17.9468 31.4219 18.1438 31.2162 18.3216 30.9945C18.4621 30.8219 18.5376 30.6054 18.5348 30.3828C18.528 29.8412 18.0842 29.4074 17.5426 29.4128L15.5439 29.4352C15.1379 29.44 14.805 29.1148 14.8002 28.7088L14.8002 28.7084L14.7831 27.1907C14.7787 26.7848 15.104 26.4521 15.5099 26.4475L17.5086 26.4251C18.0501 26.4182 18.484 25.9744 18.4785 25.4328C18.4765 25.2101 18.3962 24.9952 18.2517 24.8256C16.5301 22.7756 13.4726 22.5093 11.4225 24.2309C11.2047 24.4138 11.0034 24.6155 10.821 24.8337C10.6294 25.0645 10.3901 25.2511 10.1196 25.3806C9.8491 25.5101 9.55375 25.5795 9.25387 25.584L4.59261 25.6118C4.31211 25.6135 4.0861 25.8422 4.08776 26.1227C4.08943 26.4032 4.31816 26.6292 4.59865 26.6276L9.26268 26.5997C9.70963 26.5938 10.15 26.4912 10.5535 26.2989C10.957 26.1067 11.3141 25.8292 11.6001 25.4858C12.957 23.8619 15.3734 23.6455 16.9973 25.0023C17.1469 25.1273 17.2867 25.2635 17.4155 25.4098L15.4997 25.4321C15.2697 25.4341 15.0424 25.4817 14.8308 25.5721C14.6193 25.6626 14.4279 25.7941 14.2675 25.9591L14.2556 25.9715C13.9375 26.3012 13.7623 26.7432 13.7683 27.2014L13.7854 28.7192C13.7963 29.686 14.5889 30.4609 15.5558 30.45L17.4715 30.4277C16.1095 32.0472 13.6924 32.2559 12.0728 30.8939C11.9236 30.7683 11.7842 30.6316 11.6557 30.4849C11.3625 30.1483 10.9998 29.8791 10.5925 29.696C10.1853 29.5129 9.7433 29.4202 9.29684 29.4242L4.63529 29.4517C4.3548 29.4534 4.12878 29.6821 4.13045 29.9626C4.13214 30.2431 4.36087 30.4691 4.64136 30.4674Z" fill="black"/>
<path fill-rule="evenodd" clip-rule="evenodd" d="M44.3485 47.3644H46.8499C47.2791 47.3644 47.6291 47.7144 47.6291 48.1436V52.2957C47.6291 52.7249 47.2791 53.0749 46.8499 53.0749H44.3485C43.9193 53.0749 43.5693 52.7249 43.5693 52.2957V48.1436C43.5693 47.7145 43.9193 47.3644 44.3485 47.3644ZM61.642 43.2839H64.1434C64.5726 43.2839 64.9226 43.6338 64.9226 44.0631V52.2958C64.9226 52.725 64.5726 53.075 64.1434 53.075H61.642C61.2128 53.075 60.8628 52.725 60.8628 52.2958V44.0631C60.8628 43.6338 61.2128 43.2839 61.642 43.2839ZM70.2888 37.1899H72.7901C73.2193 37.1899 73.5693 37.5399 73.5693 37.9691V52.2958C73.5693 52.725 73.2193 53.075 72.7901 53.075H70.2888C69.8596 53.075 69.5096 52.725 69.5096 52.2958V37.9691C69.5096 37.5399 69.8596 37.1899 70.2888 37.1899ZM52.9953 40.5152H55.4965C55.9257 40.5152 56.2757 40.8652 56.2757 41.2944V52.2958C56.2757 52.725 55.9257 53.075 55.4965 53.075H52.9953C52.5661 53.075 52.2161 52.725 52.2161 52.2958V41.2944C52.2161 40.8652 52.5661 40.5152 52.9953 40.5152Z" fill="url(#paint0_linear_3_194)"/>
<path fill-rule="evenodd" clip-rule="evenodd" d="M68.1904 31.3532C67.9063 31.3487 67.6353 31.2327 67.436 31.0301C67.2366 30.8276 67.1249 30.5548 67.1249 30.2707C67.1249 29.9865 67.2366 29.7137 67.436 29.5112C67.6353 29.3087 67.9063 29.1926 68.1904 29.1881L71.5696 29.1758C72.2537 29.1758 72.7614 29.8007 72.6322 30.4657L71.9799 33.7814C71.9525 33.9213 71.8979 34.0545 71.8191 34.1733C71.7404 34.2921 71.6389 34.3942 71.5207 34.4738C71.4024 34.5535 71.2696 34.609 71.1299 34.6373C70.9902 34.6656 70.8463 34.6661 70.7063 34.6388C70.5664 34.6115 70.4333 34.5569 70.3144 34.4781C70.1956 34.3993 70.0935 34.2979 70.0139 34.1796C69.9343 34.0614 69.8787 33.9286 69.8504 33.7889C69.8221 33.6491 69.8216 33.5052 69.8489 33.3653L69.867 33.2739L64.1343 38.4892C63.9807 38.6429 63.7845 38.747 63.5711 38.788C63.3577 38.829 63.1369 38.805 62.9373 38.7192L54.4694 35.078L49.3774 38.9444C49.1486 39.1137 48.8623 39.186 48.5805 39.1456C48.2988 39.1052 48.0443 38.9554 47.8723 38.7286C47.7003 38.5019 47.6245 38.2165 47.6615 37.9342C47.6985 37.652 47.8453 37.3958 48.0699 37.221L53.6676 32.9707C53.8199 32.855 54.0003 32.7818 54.1902 32.7586C54.38 32.7354 54.5727 32.763 54.7485 32.8385L63.1537 36.4483L68.7566 31.3509L68.1904 31.3532Z" fill="black"/>
<path d="M77.566 59.9442H5.70159C4.62307 59.9431 3.58904 59.5142 2.82641 58.7516C2.06378 57.989 1.63487 56.9549 1.63379 55.8764V4.351C1.63487 3.27248 2.06378 2.23845 2.82641 1.47582C3.58904 0.713196 4.62307 0.28428 5.70159 0.283203H77.566C78.6445 0.28428 79.6785 0.713196 80.4412 1.47582C81.2038 2.23845 81.6327 3.27248 81.6338 4.351V55.8764C81.6327 56.9549 81.2038 57.989 80.4412 58.7516C79.6785 59.5142 78.6445 59.9431 77.566 59.9442ZM5.70159 2.99507C5.34197 2.99507 4.99708 3.13792 4.7428 3.39221C4.48851 3.6465 4.34565 3.99138 4.34565 4.351V55.8764C4.34565 56.236 4.48851 56.5809 4.7428 56.8352C4.99708 57.0895 5.34197 57.2324 5.70159 57.2324H77.566C77.9256 57.2324 78.2705 57.0895 78.5248 56.8352C78.7791 56.5809 78.9219 56.236 78.9219 55.8764V4.351C78.9219 3.99138 78.7791 3.6465 78.5248 3.39221C78.2705 3.13792 77.9256 2.99507 77.566 2.99507H5.70159Z" fill="black"/>
<path d="M80.2779 15.1986H2.98972C2.63011 15.1986 2.28522 15.0557 2.03093 14.8014C1.77665 14.5471 1.63379 14.2022 1.63379 13.8426C1.63379 13.483 1.77665 13.1381 2.03093 12.8838C2.28522 12.6295 2.63011 12.4867 2.98972 12.4867H80.2779C80.6375 12.4867 80.9824 12.6295 81.2366 12.8838C81.4909 13.1381 81.6338 13.483 81.6338 13.8426C81.6338 14.2022 81.4909 14.5471 81.2366 14.8014C80.9824 15.0557 80.6375 15.1986 80.2779 15.1986ZM74.1762 9.77483C73.7739 9.77483 73.3807 9.65554 73.0462 9.43205C72.7117 9.20857 72.451 8.89091 72.2971 8.51927C72.1432 8.14762 72.1029 7.73867 72.1814 7.34414C72.2598 6.9496 72.4535 6.58719 72.738 6.30275C73.0224 6.0183 73.3848 5.82459 73.7794 5.74611C74.1739 5.66763 74.5829 5.70791 74.9545 5.86185C75.3261 6.01579 75.6438 6.27649 75.8673 6.61096C76.0908 6.94543 76.2101 7.33866 76.2101 7.74093C76.2101 8.28035 75.9958 8.79768 75.6143 9.17911C75.2329 9.56054 74.7156 9.77483 74.1762 9.77483ZM68.0745 9.77483C67.6722 9.77483 67.279 9.65554 66.9445 9.43205C66.61 9.20857 66.3493 8.89091 66.1954 8.51927C66.0415 8.14762 66.0012 7.73867 66.0797 7.34414C66.1581 6.9496 66.3518 6.58719 66.6363 6.30275C66.9207 6.0183 67.2831 5.82459 67.6777 5.74611C68.0722 5.66763 68.4812 5.70791 68.8528 5.86185C69.2244 6.01579 69.5421 6.27649 69.7656 6.61096C69.9891 6.94543 70.1084 7.33866 70.1084 7.74093C70.1084 8.28035 69.8941 8.79768 69.5127 9.17911C69.1312 9.56054 68.6139 9.77483 68.0745 9.77483ZM61.9728 9.77483C61.5705 9.77483 61.1773 9.65554 60.8428 9.43205C60.5083 9.20857 60.2476 8.89091 60.0937 8.51927C59.9398 8.14762 59.8995 7.73867 59.978 7.34414C60.0564 6.9496 60.2501 6.58719 60.5346 6.30275C60.819 6.0183 61.1814 5.82459 61.576 5.74611C61.9705 5.66763 62.3795 5.70791 62.7511 5.86185C63.1228 6.01579 63.4404 6.27649 63.6639 6.61096C63.8874 6.94543 64.0067 7.33866 64.0067 7.74093C64.0067 8.28035 63.7924 8.79768 63.411 9.17911C63.0295 9.56054 62.5122 9.77483 61.9728 9.77483Z" fill="black"/>
<defs>
<linearGradient id="paint0_linear_3_194" x1="43.5693" y1="37.9041" x2="49.2028" y2="58.4964" gradientUnits="userSpaceOnUse">
<stop stop-color="#F0C001"/>
<stop offset="0.5" stop-color="#4BB567"/>
<stop offset="1" stop-color="#0BC4FE"/>
</linearGradient>
</defs>
</svg>
