<svg width="80" height="60" viewBox="0 0 80 60" fill="none" xmlns="http://www.w3.org/2000/svg">
<path d="M1.19262 58.4684C1.95525 59.231 2.98928 59.6599 4.0678 59.661H17.2224C17.9713 59.661 18.5784 59.0539 18.5784 58.3051C18.5784 57.5562 17.9713 56.9492 17.2224 56.9492H4.0678C3.70818 56.9492 3.36329 56.8063 3.10901 56.552C2.85472 56.2977 2.71186 55.9528 2.71186 55.5932V4.0678C2.71186 3.70818 2.85472 3.36329 3.10901 3.10901C3.36329 2.85472 3.70818 2.71186 4.0678 2.71186H75.9322C76.2918 2.71186 76.6367 2.85472 76.891 3.10901C77.1453 3.36329 77.2881 3.70818 77.2881 4.0678V55.5932C77.2881 55.9528 77.1453 56.2977 76.891 56.552C76.6367 56.8063 76.2918 56.9492 75.9322 56.9492H63.1614C62.4126 56.9492 61.8055 57.5562 61.8055 58.3051C61.8055 59.0539 62.4126 59.661 63.1614 59.661H75.9322C77.0107 59.6599 78.0448 59.231 78.8074 58.4684C79.57 57.7058 79.9989 56.6717 80 55.5932V4.0678C79.9989 2.98928 79.57 1.95525 78.8074 1.19262C78.0448 0.429993 77.0107 0.0010769 75.9322 0H4.0678C2.98928 0.0010769 1.95525 0.429993 1.19262 1.19262C0.429993 1.95525 0.0010769 2.98928 0 4.0678V55.5932C0.0010769 56.6717 0.429993 57.7058 1.19262 58.4684Z" fill="black"/>
<path d="M78.6441 14.9154H1.35593C0.996317 14.9154 0.65143 14.7725 0.397143 14.5182C0.142857 14.2639 0 13.919 0 13.5594C0 13.1998 0.142857 12.8549 0.397143 12.6006C0.65143 12.3463 0.996317 12.2035 1.35593 12.2035H78.6441C79.0037 12.2035 79.3486 12.3463 79.6029 12.6006C79.8571 12.8549 80 13.1998 80 13.5594C80 13.919 79.8571 14.2639 79.6029 14.5182C79.3486 14.7725 79.0037 14.9154 78.6441 14.9154ZM72.5424 9.49163C72.1401 9.49163 71.7469 9.37234 71.4124 9.14885C71.0779 8.92536 70.8172 8.60771 70.6633 8.23607C70.5094 7.86442 70.4691 7.45547 70.5476 7.06093C70.626 6.6664 70.8197 6.30399 71.1042 6.01954C71.3886 5.7351 71.751 5.54139 72.1456 5.46291C72.5401 5.38443 72.9491 5.42471 73.3207 5.57865C73.6924 5.73259 74.01 5.99328 74.2335 6.32775C74.457 6.66223 74.5763 7.05546 74.5763 7.45773C74.5763 7.99715 74.362 8.51448 73.9806 8.89591C73.5991 9.27734 73.0818 9.49163 72.5424 9.49163ZM66.4407 9.49163C66.0384 9.49163 65.6452 9.37234 65.3107 9.14885C64.9762 8.92536 64.7155 8.60771 64.5616 8.23607C64.4077 7.86442 64.3674 7.45547 64.4459 7.06093C64.5243 6.6664 64.718 6.30399 65.0025 6.01954C65.2869 5.7351 65.6493 5.54139 66.0439 5.46291C66.4384 5.38443 66.8474 5.42471 67.219 5.57865C67.5907 5.73259 67.9083 5.99328 68.1318 6.32775C68.3553 6.66223 68.4746 7.05546 68.4746 7.45773C68.4746 7.99715 68.2603 8.51448 67.8789 8.89591C67.4974 9.27734 66.9801 9.49163 66.4407 9.49163ZM60.339 9.49163C59.9367 9.49163 59.5435 9.37234 59.209 9.14885C58.8745 8.92536 58.6138 8.60771 58.4599 8.23607C58.306 7.86442 58.2657 7.45547 58.3442 7.06093C58.4226 6.6664 58.6164 6.30399 58.9008 6.01954C59.1852 5.7351 59.5476 5.54139 59.9422 5.46291C60.3367 5.38443 60.7457 5.42471 61.1173 5.57865C61.489 5.73259 61.8066 5.99328 62.0301 6.32775C62.2536 6.66223 62.3729 7.05546 62.3729 7.45773C62.3729 7.99715 62.1586 8.51448 61.7772 8.89591C61.3957 9.27734 60.8784 9.49163 60.339 9.49163Z" fill="black"/>
<mask id="mask0_3_220" style="mask-type:luminance" maskUnits="userSpaceOnUse" x="20" y="18" width="41" height="41">
<path d="M20.4404 18.8047H60.4404V58.8047H20.4404V18.8047Z" fill="white"/>
</mask>
<g mask="url(#mask0_3_220)">
<path d="M20.7373 25.1058C20.7373 21.5949 23.6087 18.7547 27.1312 18.8054C30.5433 18.8545 33.3178 21.6528 33.3394 25.0651C33.3514 26.976 32.5125 28.6912 31.1796 29.8546C31.0389 29.9773 31.0592 30.2013 31.2199 30.2964L32.4071 30.9989C32.5991 31.1125 32.5186 31.4067 32.2955 31.4067L26.9191 31.4054C23.4942 31.3417 20.7373 28.5459 20.7373 25.1058Z" fill="url(#paint0_linear_3_220)"/>
<path d="M32.4075 30.999L31.2202 30.2965C31.0604 30.202 31.0382 29.9783 31.1781 29.8562C32.5263 28.6805 33.3696 26.9405 33.3391 25.004C33.2861 21.6546 30.5752 18.9051 27.2267 18.8076C26.7624 18.7937 26.298 18.8309 25.8418 18.9185C28.7362 19.4733 30.9419 22.0245 30.9611 25.0652C30.9704 26.5378 30.4745 27.894 29.6364 28.9712C29.1304 29.6216 29.2948 30.5647 30.0041 30.9844L30.0289 30.999C30.2188 31.1113 30.1417 31.4 29.9243 31.4062L32.2959 31.4069C32.5189 31.4069 32.5995 31.1126 32.4075 30.999Z" fill="url(#paint1_linear_3_220)"/>
<path d="M51.4405 41.6764H37.1463C33.5761 41.6764 31.6225 37.5158 33.9027 34.7687L34.0295 34.6158C35.034 33.4056 35.5839 31.8822 35.5839 30.3094V27.5529C35.5839 22.7215 39.5004 18.8049 44.3318 18.8049C49.1633 18.8049 53.0798 22.7215 53.0798 27.5529V30.4024C53.0798 31.9917 53.6412 33.5299 54.6649 34.7456C56.9736 37.4872 55.0247 41.6764 51.4405 41.6764Z" fill="#C59191"/>
<path d="M58.9546 48.7601V58.2101H29.6328V48.8312C29.6328 46.7077 30.9054 44.7913 32.8617 43.9679L37.5953 41.9101L39.189 41.2171C40.3984 40.6913 41.1804 39.4984 41.1804 38.1796V37.5679H47.4062V38.1484C47.4062 39.4726 48.196 40.6702 49.414 41.1921L55.8163 43.9366C57.7241 44.782 58.9546 46.6726 58.9546 48.7601Z" fill="white"/>
<path d="M37.5934 44.1632C39.8284 44.8311 42.153 45.1505 44.4854 45.1101C46.6945 45.0712 48.8861 44.7099 50.9908 44.0377L51.7627 42.1997L49.4121 41.1922C48.8164 40.9369 48.3087 40.5124 47.952 39.9713C47.5952 39.4302 47.405 38.7963 47.405 38.1482V37.5682H41.1792V38.1797C41.1792 38.8249 40.9907 39.4561 40.637 39.9956C40.2832 40.5352 39.7795 40.9597 39.1879 41.2169L37.2842 42.0447L37.5934 44.1632Z" fill="#FFCEBF"/>
<path d="M55.8158 43.9364L50.993 41.8693L50.9922 58.2101H58.9545V48.7602C58.9545 46.6731 57.7241 44.782 55.8158 43.9364Z" fill="url(#paint2_linear_3_220)"/>
<path d="M37.5934 41.9101V58.2101H29.6309V48.8312C29.6309 46.7077 30.9034 44.7913 32.8598 43.9679L37.5934 41.9101Z" fill="url(#paint3_linear_3_220)"/>
<path d="M46.4516 40.9855C47.1453 40.9862 47.8322 40.8491 48.4725 40.5821C48.1364 40.272 47.8681 39.8957 47.6847 39.4768C47.5012 39.058 47.4064 38.6057 47.4064 38.1484V37.5684H41.1805V38.1799C41.1806 38.6467 41.0818 39.1082 40.8906 39.534C41.8334 40.4327 43.1087 40.9855 44.514 40.9855H46.4516Z" fill="#FFB09E"/>
<path d="M50.5152 28.2025V33.3529C50.5152 36.2544 48.1631 38.6066 45.2616 38.6066H43.324C40.4225 38.6066 38.0703 36.2544 38.0703 33.3529V28.2025C38.0703 26.3149 39.6005 24.7847 41.488 24.7847H47.0974C48.985 24.7847 50.5152 26.3149 50.5152 28.2025Z" fill="#FFCEBF"/>
<path d="M50.5152 30.8819C50.5129 30.889 50.51 30.8959 50.5079 30.9032C50.3179 31.559 49.8196 32.798 48.615 33.7268C48.0541 34.1593 47.4144 34.4719 46.7136 34.6558C46.5631 34.6976 46.4351 34.797 46.3573 34.9325C46.2795 35.0679 46.2582 35.2285 46.2978 35.3796C46.3374 35.5307 46.4349 35.6601 46.5692 35.7399C46.7034 35.8197 46.8637 35.8435 47.0154 35.8061C47.8711 35.5815 48.6536 35.1988 49.3413 34.6686C49.7812 34.3289 50.1747 33.933 50.5117 33.4911C50.5129 33.445 50.5152 33.3991 50.5152 33.3527V30.8819Z" fill="url(#paint4_linear_3_220)"/>
<path d="M46.0618 36.2999H44.6683C44.034 36.2999 43.5198 35.7856 43.5198 35.1514C43.5198 34.5171 44.034 34.0029 44.6683 34.0029H46.0618C46.6961 34.0029 47.2103 34.5171 47.2103 35.1514C47.2103 35.7856 46.6961 36.2999 46.0618 36.2999Z" fill="url(#paint5_linear_3_220)"/>
<path d="M45.5343 23.4217C45.6678 21.7389 47.2788 20.6221 48.8207 20.0437C51.3715 21.5721 53.0792 24.3628 53.0792 27.5527V28.1541C52.9399 28.1837 52.7998 28.2091 52.6591 28.2303C51.8096 28.3572 51.0862 28.3023 50.5921 28.2303C47.4075 27.8061 45.3731 25.4541 45.5343 23.4217Z" fill="#B98080"/>
<path d="M44.331 18.8046C46.3066 18.8046 48.1291 19.4597 49.5935 20.5643C48.863 21.8355 47.1855 24.3488 44.0399 26.2094C41.7048 27.5907 39.5029 28.0549 38.1469 28.2301H35.583V27.5525C35.583 22.7211 39.4996 18.8046 44.331 18.8046Z" fill="#C59191"/>
<path d="M54.1098 58.2101H35.0743L34.0243 48.3057C33.9499 47.6032 34.5006 46.991 35.207 46.991H53.9771C54.6835 46.991 55.2343 47.6032 55.1596 48.3057L54.1098 58.2101Z" fill="#EFEDEF"/>
<path d="M53.9772 46.991H51.5986C52.3051 46.991 52.8558 47.6032 52.7813 48.3057L51.7314 58.2101H54.11L55.1599 48.3057C55.2343 47.6032 54.6836 46.991 53.9772 46.991Z" fill="#E5E1E5"/>
<path d="M46.2568 52.6007C46.2568 53.5204 45.5113 54.2657 44.5918 54.2657C43.6722 54.2657 42.9268 53.5204 42.9268 52.6007C42.9268 51.6811 43.6722 50.9357 44.5918 50.9357C45.5113 50.9357 46.2568 51.6811 46.2568 52.6007Z" fill="#C9BFC8"/>
<path d="M25.2547 25.1056C25.2547 25.1837 25.2393 25.261 25.2094 25.3331C25.1796 25.4053 25.1358 25.4708 25.0806 25.5261C25.0253 25.5813 24.9598 25.6251 24.8876 25.655C24.8155 25.6848 24.7382 25.7002 24.6601 25.7002C24.582 25.7002 24.5047 25.6848 24.4325 25.6549C24.3604 25.625 24.2948 25.5812 24.2396 25.526C24.1844 25.4708 24.1406 25.4053 24.1107 25.3331C24.0808 25.261 24.0654 25.1836 24.0654 25.1055C24.0654 25.0275 24.0808 24.9501 24.1107 24.878C24.1406 24.8058 24.1844 24.7403 24.2396 24.6851C24.2948 24.6298 24.3604 24.586 24.4325 24.5562C24.5047 24.5263 24.582 24.5109 24.6601 24.5109C24.7382 24.5109 24.8155 24.5263 24.8876 24.5562C24.9598 24.5861 25.0253 24.6299 25.0806 24.6851C25.1358 24.7403 25.1796 24.8059 25.2094 24.878C25.2393 24.9502 25.2547 25.0275 25.2547 25.1056Z" fill="white"/>
<path d="M27.6326 25.1057C27.6326 25.1838 27.6173 25.2611 27.5874 25.3333C27.5575 25.4054 27.5137 25.471 27.4585 25.5262C27.4033 25.5814 27.3377 25.6252 27.2656 25.6551C27.1934 25.685 27.1161 25.7003 27.038 25.7003C26.9599 25.7003 26.8826 25.6849 26.8104 25.6551C26.7383 25.6252 26.6727 25.5814 26.6175 25.5261C26.5623 25.4709 26.5185 25.4054 26.4886 25.3332C26.4587 25.2611 26.4434 25.1838 26.4434 25.1057C26.4434 25.0276 26.4587 24.9503 26.4886 24.8781C26.5185 24.806 26.5623 24.7404 26.6175 24.6852C26.6727 24.63 26.7383 24.5862 26.8104 24.5563C26.8826 24.5264 26.9599 24.511 27.038 24.511C27.1957 24.511 27.347 24.5737 27.4585 24.6852C27.57 24.7968 27.6326 24.948 27.6326 25.1057Z" fill="white"/>
<path d="M30.0126 25.1056C30.0126 25.1837 29.9972 25.261 29.9673 25.3332C29.9375 25.4053 29.8937 25.4709 29.8384 25.5261C29.7832 25.5813 29.7177 25.6251 29.6455 25.655C29.5734 25.6848 29.496 25.7002 29.4179 25.7002C29.3003 25.7002 29.1853 25.6653 29.0875 25.6C28.9897 25.5346 28.9135 25.4417 28.8685 25.3331C28.8235 25.2244 28.8117 25.1048 28.8347 24.9895C28.8576 24.8741 28.9143 24.7681 28.9974 24.685C29.0806 24.6018 29.1866 24.5452 29.302 24.5222C29.4173 24.4993 29.5369 24.5111 29.6456 24.5561C29.7542 24.6011 29.8471 24.6774 29.9124 24.7752C29.9778 24.873 30.0126 24.988 30.0126 25.1056Z" fill="white"/>
</g>
<defs>
<linearGradient id="paint0_linear_3_220" x1="20.7373" y1="30.8402" x2="27.8978" y2="16.9806" gradientUnits="userSpaceOnUse">
<stop stop-color="#F0C001"/>
<stop offset="0.5" stop-color="#4BB567"/>
<stop offset="1" stop-color="#0BC4FE"/>
</linearGradient>
<linearGradient id="paint1_linear_3_220" x1="25.8418" y1="30.8403" x2="34.5347" y2="20.8296" gradientUnits="userSpaceOnUse">
<stop stop-color="#F0C001"/>
<stop offset="0.5" stop-color="#4BB567"/>
<stop offset="1" stop-color="#0BC4FE"/>
</linearGradient>
<linearGradient id="paint2_linear_3_220" x1="50.9922" y1="57.4755" x2="62.3569" y2="46.7572" gradientUnits="userSpaceOnUse">
<stop stop-color="#F0C001"/>
<stop offset="0.5" stop-color="#4BB567"/>
<stop offset="1" stop-color="#0BC4FE"/>
</linearGradient>
<linearGradient id="paint3_linear_3_220" x1="29.6309" y1="57.4773" x2="40.9689" y2="46.7573" gradientUnits="userSpaceOnUse">
<stop stop-color="#F0C001"/>
<stop offset="0.5" stop-color="#4BB567"/>
<stop offset="1" stop-color="#0BC4FE"/>
</linearGradient>
<linearGradient id="paint4_linear_3_220" x1="46.2783" y1="35.6012" x2="49.322" y2="30.5501" gradientUnits="userSpaceOnUse">
<stop stop-color="#F0C001"/>
<stop offset="0.5" stop-color="#4BB567"/>
<stop offset="1" stop-color="#0BC4FE"/>
</linearGradient>
<linearGradient id="paint5_linear_3_220" x1="43.5198" y1="36.1966" x2="44.4525" y2="33.2961" gradientUnits="userSpaceOnUse">
<stop stop-color="#F0C001"/>
<stop offset="0.5" stop-color="#4BB567"/>
<stop offset="1" stop-color="#0BC4FE"/>
</linearGradient>
</defs>
</svg>
