<svg width="80" height="80" viewBox="0 0 80 80" fill="none" xmlns="http://www.w3.org/2000/svg">
<path fill-rule="evenodd" clip-rule="evenodd" d="M54 15H48V21.5L41.5 21.5V27.5H48V34H54V27.5H60.5V21.5L54 21.5V15Z" fill="url(#paint0_linear_3_517)"/>
<path d="M35.4528 33.8191C41.0146 39.2923 47.5337 43.3601 50.0784 44.8548L50.0789 44.8551C50.4223 45.0566 50.799 45.1576 51.1759 45.1576C51.5529 45.1576 51.93 45.0566 52.274 44.8548C54.819 43.3598 61.3387 39.2915 66.9004 33.8181C72.7159 28.0952 75.7109 22.6229 75.8025 17.5532C75.9078 11.7287 72.9095 6.82399 67.9775 4.75289C62.6262 2.50571 56.2835 4.01711 51.176 8.68414C46.0681 4.01696 39.725 2.50571 34.3736 4.75336C29.4412 6.82508 26.4432 11.7305 26.5496 17.5555C26.6423 22.6249 29.6378 28.0966 35.4528 33.8191ZM35.342 7.05836C36.6656 6.50227 38.0696 6.23149 39.5054 6.23149C43.1715 6.23149 47.0415 7.99852 50.2851 11.2965C50.4015 11.4147 50.5402 11.5087 50.6932 11.5728C50.8462 11.6369 51.0105 11.6699 51.1764 11.6699C51.3423 11.6699 51.5065 11.6369 51.6595 11.5728C51.8125 11.5087 51.9513 11.4147 52.0676 11.2965C56.581 6.70696 62.3064 5.08274 67.0098 7.05789C71.0382 8.74946 73.3909 12.6562 73.3031 17.508C73.1409 26.4805 61.3217 36.6052 51.1762 42.5999C41.0312 36.6057 29.2132 26.4823 29.0495 17.5099C28.9609 12.6577 31.3132 8.75055 35.342 7.05836ZM77.9534 45.3677C77.2142 44.1335 74.1798 40.4695 66.1692 45.1349L52.0389 53.3652C51.326 53.7802 50.6014 54.0727 49.8443 54.2463C50.1271 53.7984 50.3482 53.2901 50.4992 52.727C51.221 50.0329 49.6198 47.2202 46.8537 46.3235C46.8001 46.3063 46.7455 46.2926 46.6901 46.2824C42.6287 45.5499 38.6204 44.1009 35.3998 42.9365C34.2807 42.532 33.2239 42.1499 32.3251 41.8585C28.7065 40.6848 25.4382 42.1376 22.7179 43.7135L12.2039 49.8051L11.442 48.4588V48.459C11.005 47.6866 10.2914 47.1302 9.43246 46.8923C8.57371 46.6541 7.67543 46.764 6.90324 47.201L2.9384 49.4446C1.34027 50.3491 0.775899 52.3852 1.68043 53.9835L13.3365 74.579C13.7736 75.3512 14.4873 75.9076 15.3461 76.1456C15.6431 76.2277 15.9448 76.2685 16.2445 76.2685C16.8111 76.2685 17.3703 76.1227 17.8754 75.8368L21.8403 73.593C23.4384 72.6885 24.0028 70.6524 23.0982 69.0541L21.6615 66.5157L24.0621 65.1291L42.1618 69.9791C43.1837 70.2529 44.1864 70.3896 45.1678 70.3896C47.1243 70.3896 48.9951 69.846 50.7554 68.7624L76.3985 52.9723C78.7348 51.5341 79.4757 47.9095 77.9534 45.3677ZM20.6084 71.4171L16.6437 73.6609C16.5489 73.7144 16.4443 73.7487 16.3362 73.7615C16.228 73.7744 16.1183 73.7657 16.0136 73.7359C15.9084 73.7074 15.8099 73.6584 15.7239 73.5917C15.6378 73.525 15.5658 73.4418 15.512 73.3471L3.8559 52.7518C3.63418 52.3601 3.77777 51.8418 4.16949 51.6199L8.13434 49.3763C8.25741 49.3066 8.39647 49.27 8.53793 49.2701C8.61456 49.2701 8.69084 49.2806 8.76465 49.3012C8.86978 49.3296 8.96824 49.3786 9.0543 49.4453C9.14037 49.512 9.21234 49.5952 9.26605 49.6899L20.9221 70.2852C21.1439 70.677 21.0001 71.1952 20.6084 71.4171ZM75.0881 50.8434L49.445 66.6335C47.4104 67.8862 45.1779 68.1991 42.8092 67.5643L24.2092 62.5804C24.0506 62.5378 23.8852 62.5269 23.7224 62.5484C23.5597 62.5698 23.4027 62.6232 23.2606 62.7054L20.4298 64.3398L13.4351 51.9807L23.9711 45.8765C26.3273 44.5113 28.8765 43.3673 31.5537 44.2365C32.4129 44.5149 33.4031 44.8731 34.5496 45.2876C37.8354 46.4756 41.9193 47.952 46.1559 48.7263C47.6348 49.2429 48.4615 50.6713 48.0842 52.0801C47.5935 53.9109 46.0562 54.136 44.8334 53.9955C42.624 53.552 40.6189 52.9832 38.521 52.3884C37.5821 52.1221 36.611 51.8466 35.59 51.5731C35.2716 51.4929 34.9345 51.5412 34.6515 51.7075C34.3685 51.8738 34.1622 52.1447 34.0772 52.4618C33.9923 52.7789 34.0354 53.1167 34.1974 53.4022C34.3594 53.6878 34.6272 53.8981 34.9429 53.9879C35.9465 54.2568 36.9086 54.5296 37.8389 54.7934C40.5439 55.5606 43.099 56.2852 46.1711 56.777C48.7979 57.197 51.1289 56.7877 53.2968 55.5256L67.4273 47.2952C71.497 44.9249 74.6303 44.6848 75.8087 46.6523C76.6209 48.0084 76.2573 50.1237 75.0881 50.8434ZM9.05355 52.9457C9.08046 53.1296 9.07087 53.3171 9.02534 53.4973C8.97981 53.6775 8.89922 53.847 8.78818 53.996C8.67713 54.1451 8.53782 54.2709 8.37818 54.3661C8.21854 54.4613 8.0417 54.5241 7.85777 54.551C7.58072 54.5916 7.29787 54.549 7.04499 54.4288C6.79212 54.3086 6.58057 54.1161 6.4371 53.8756C6.29364 53.6352 6.22471 53.3576 6.23902 53.0779C6.25333 52.7983 6.35025 52.5292 6.51752 52.3047C6.68478 52.0801 6.91488 51.9102 7.17871 51.8164C7.44254 51.7227 7.72826 51.7092 7.99972 51.7779C8.27118 51.8465 8.5162 51.9941 8.70378 52.2019C8.89136 52.4098 9.01308 52.6686 9.05355 52.9457ZM41.6421 28.9176H46.7034V33.979C46.7034 34.3105 46.8351 34.6285 47.0695 34.8629C47.3039 35.0973 47.6219 35.229 47.9534 35.229H54.399C54.7305 35.229 55.0485 35.0973 55.2829 34.8629C55.5173 34.6285 55.649 34.3105 55.649 33.979V28.9176H60.7104C61.0419 28.9176 61.3599 28.7859 61.5943 28.5515C61.8287 28.317 61.9604 27.9991 61.9604 27.6676V21.222C61.9604 20.8904 61.8287 20.5725 61.5943 20.3381C61.3599 20.1037 61.0419 19.972 60.7104 19.972H55.649V14.9107C55.649 14.5792 55.5173 14.2612 55.2829 14.0268C55.0485 13.7924 54.7305 13.6607 54.399 13.6607H47.9534C47.6219 13.6607 47.3039 13.7924 47.0695 14.0268C46.8351 14.2612 46.7034 14.5792 46.7034 14.9107V19.972H41.6421C41.3106 19.972 40.9927 20.1037 40.7583 20.3381C40.5238 20.5725 40.3921 20.8904 40.3921 21.222V27.6676C40.3921 27.9991 40.5238 28.317 40.7583 28.5515C40.9927 28.7859 41.3106 28.9176 41.6421 28.9176ZM42.8921 22.472H47.9534C48.2849 22.472 48.6029 22.3403 48.8373 22.1058C49.0717 21.8714 49.2034 21.5535 49.2034 21.222V16.1607H53.149V21.222C53.149 21.5535 53.2807 21.8714 53.5151 22.1058C53.7496 22.3403 54.0675 22.472 54.399 22.472H59.4604V26.4176H54.399C54.0675 26.4176 53.7496 26.5493 53.5151 26.7837C53.2807 27.0181 53.149 27.3361 53.149 27.6676V32.729H49.2034V27.6676C49.2034 27.3361 49.0717 27.0181 48.8373 26.7837C48.6029 26.5493 48.2849 26.4176 47.9534 26.4176H42.8921V22.472Z" fill="#050505"/>
<defs>
<linearGradient id="paint0_linear_3_517" x1="46.25" y1="16.3571" x2="53.3988" y2="34.0642" gradientUnits="userSpaceOnUse">
<stop stop-color="#F0C001"/>
<stop offset="0.5" stop-color="#4BB567"/>
<stop offset="1" stop-color="#0BC4FE"/>
</linearGradient>
</defs>
</svg>
