<svg width="90" height="90" viewBox="0 0 90 90" fill="none" xmlns="http://www.w3.org/2000/svg">
<g clip-path="url(#clip0_3_561)">
<ellipse cx="14" cy="28" rx="5" ry="2" fill="url(#paint0_linear_3_561)"/>
<ellipse cx="32" cy="27" rx="5" ry="2" fill="url(#paint1_linear_3_561)"/>
<ellipse cx="54.3301" cy="40.2321" rx="5" ry="2" transform="rotate(30 54.3301 40.2321)" fill="url(#paint2_linear_3_561)"/>
<ellipse cx="70.3301" cy="50.2321" rx="5" ry="2" transform="rotate(30 70.3301 50.2321)" fill="url(#paint3_linear_3_561)"/>
<path d="M36.1508 41.2936C35.9812 40.9157 35.7385 40.5752 35.4366 40.2916C35.1348 40.008 34.7798 39.7869 34.3921 39.6411C33.6036 39.3442 32.7484 39.3695 31.9802 39.7163C31.6025 39.8852 31.2621 40.1273 30.9786 40.4286C30.6951 40.7299 30.4741 41.0844 30.3286 41.4717C29.8288 42.7837 28.9659 43.9089 27.8328 44.7236C26.7006 45.5384 25.3568 45.9993 23.9458 46.0562C22.5332 46.1242 21.1593 45.7649 19.9654 45.0442C18.7698 44.3252 17.8125 43.2699 17.213 42.0101C17.0363 41.6355 16.7871 41.2997 16.4798 41.022C16.1725 40.7444 15.8132 40.5303 15.4227 40.3924C15.0329 40.2519 14.6191 40.1903 14.2053 40.2113C13.7915 40.2322 13.386 40.3353 13.0124 40.5144C11.4421 41.2602 10.7715 43.1448 11.5158 44.7148L11.5173 44.7171C12.6545 47.0974 14.4534 49.0768 16.7194 50.4427C18.8297 51.7136 21.217 52.3778 23.6564 52.3778C23.8386 52.3778 24.0207 52.374 24.2037 52.3668C26.8318 52.259 29.3567 51.3849 31.5058 49.8394C33.6531 48.293 35.2851 46.1733 36.2259 43.706C36.3734 43.3189 36.4427 42.9064 36.4299 42.4923C36.417 42.0782 36.3221 41.6708 36.1508 41.2936ZM33.952 42.8424C33.1824 44.8616 31.845 46.598 30.0855 47.8648C28.3238 49.1317 26.2556 49.8483 24.105 49.9362C21.9514 50.0313 19.8341 49.4785 17.9757 48.359C16.1189 47.241 14.6454 45.6194 13.7134 43.6714C13.6321 43.4986 13.6226 43.3007 13.6868 43.1209C13.751 42.9411 13.8838 42.794 14.0562 42.7118C14.1415 42.6709 14.2341 42.6474 14.3286 42.6427C14.423 42.6379 14.5175 42.652 14.6065 42.684C14.6962 42.7157 14.7786 42.7649 14.8491 42.8288C14.9195 42.8927 14.9764 42.97 15.0166 43.0562C15.8275 44.753 17.1046 46.1608 18.7096 47.1285C20.3131 48.0937 22.1572 48.5657 24.0447 48.4873C25.9325 48.4105 27.733 47.7921 29.2533 46.6985C30.7744 45.6043 31.9321 44.0959 32.6027 42.3356C32.6358 42.2469 32.6862 42.1656 32.7511 42.0966C32.816 42.0275 32.8939 41.9721 32.9804 41.9334C33.0665 41.8941 33.1597 41.8724 33.2543 41.8696C33.3489 41.8668 33.4432 41.8829 33.5315 41.9169C33.6202 41.9501 33.7014 42.0006 33.7704 42.0654C33.8394 42.1302 33.8949 42.2081 33.9337 42.2945C34.013 42.4694 34.0186 42.665 33.952 42.8424ZM14.2012 31.8387C15.7127 31.777 17.1411 31.4103 18.2211 30.807C19.56 30.0596 20.2702 29.0128 20.2236 27.8615C20.1769 26.7087 19.3827 25.7245 17.9875 25.0885C16.8607 24.5747 15.407 24.3332 13.8962 24.3877C10.3767 24.5318 7.78815 26.2413 7.87375 28.3649C7.92051 29.5178 8.71469 30.502 10.1099 31.1378C11.1234 31.6003 12.4014 31.8473 13.7491 31.8473C13.8987 31.8475 14.05 31.8441 14.2012 31.8387ZM11.1187 28.9248C10.5122 28.6484 10.3087 28.3617 10.3046 28.2668C10.2911 27.9335 11.539 26.9184 13.996 26.8185C15.1117 26.7695 16.2044 26.9484 16.9789 27.3016C17.5853 27.5779 17.7889 27.8646 17.7929 27.9604C17.7968 28.0562 17.6171 28.3587 17.036 28.6834C16.2924 29.0982 15.2235 29.3628 14.1015 29.408C12.9818 29.4553 11.893 29.2779 11.1187 28.9248ZM31.9314 31.1055C32.0843 31.1055 32.2393 31.1023 32.3961 31.096C35.9156 30.9519 38.5042 29.2424 38.4186 27.1179C38.3307 24.995 35.6148 23.4945 32.0913 23.645C28.5716 23.7882 25.9826 25.4986 26.068 27.6231C26.1518 29.6518 28.639 31.1055 31.9314 31.1055ZM32.191 26.0759C34.6431 25.9674 35.9741 26.8852 35.9877 27.2169C36.0012 27.5501 34.7533 28.5653 32.2963 28.6651C29.8378 28.7641 28.5122 27.8558 28.4987 27.5241C28.4853 27.1908 29.7332 26.1757 32.191 26.0759ZM89.9019 42.3666C89.8272 42.1928 89.7132 42.0389 89.5688 41.9168C89.4243 41.7948 89.2535 41.7081 89.0698 41.6634C82.6894 40.1225 75.9131 37.3426 69.4724 33.6243C63.0318 29.906 57.2358 25.4274 52.7122 20.6718C52.5811 20.536 52.4205 20.4321 52.2428 20.3681C52.0652 20.3041 51.8752 20.2818 51.6876 20.3029C51.4998 20.3252 51.3198 20.391 51.1618 20.4951C51.0039 20.5991 50.8724 20.7385 50.7777 20.9023L45.7894 29.5428L45.0657 11.814C45.0578 11.6251 45.006 11.4406 44.9145 11.2751C44.823 11.1097 44.6942 10.9677 44.5384 10.8606C44.3823 10.754 44.2035 10.6851 44.0162 10.6594C43.8289 10.6337 43.6381 10.6519 43.4591 10.7126C37.2457 12.8228 30.0333 14.0992 22.6012 14.4024C15.1687 14.7086 7.87621 14.0222 1.51241 12.4243C1.1394 12.3301 0.746703 12.418 0.44893 12.6602C0.151156 12.9025 -0.0142537 13.2707 0.000687676 13.6539L1.16067 42.0758C1.65549 54.1889 11.6671 63.7073 23.6821 63.7073C23.991 63.7073 24.3021 63.701 24.6132 63.6883C27.8833 63.5545 31.0904 62.6978 33.991 61.1996C34.0877 61.6816 34.1986 62.1629 34.3271 62.6422C35.8901 68.4762 39.6132 73.342 44.8091 76.3414C48.2621 78.3351 52.1031 79.3534 56.0044 79.3534C57.9728 79.3534 59.9572 79.0936 61.9145 78.5696C67.7494 77.0065 72.6142 73.2835 75.6144 68.0876L89.8369 43.4536C89.9314 43.2899 89.9864 43.1064 89.9977 42.9178C90.009 42.7291 89.9762 42.5404 89.9019 42.3666ZM24.5137 61.2574C13.4348 61.7231 4.04471 53.0599 3.59172 41.9762L2.49661 15.1576C8.69729 16.5432 15.6454 17.1212 22.7013 16.8329C29.7578 16.5447 36.6339 15.4014 42.7008 13.5161L43.5155 33.4815L36.5556 45.5368C34.2385 49.5497 33.2406 54.087 33.6257 58.633C30.8477 60.2215 27.714 61.1268 24.5137 61.2574ZM73.5084 66.8714C70.8328 71.505 66.4921 74.8251 61.2852 76.2203C56.076 77.6139 50.6584 76.9092 46.0255 74.2352C41.3919 71.5605 38.0717 67.2198 36.6766 62.0128C35.2814 56.8058 35.9861 51.3868 38.6617 46.753L52.082 23.5079C56.5803 27.995 62.1404 32.2004 68.2564 35.7303C74.3723 39.2617 80.7931 41.9744 86.9287 43.6269L73.5084 66.8714ZM53.0481 43.8623C54.5319 44.7191 56.0269 45.145 57.2947 45.145C58.6336 45.145 59.7183 44.6691 60.264 43.7238C61.3265 41.8828 59.8277 39.1661 56.7768 37.4051C53.7259 35.6433 50.6229 35.7036 49.5603 37.5437C48.9839 38.5421 49.128 39.7988 49.9665 41.0823C50.6433 42.1187 51.7377 43.1061 53.0481 43.8623ZM51.6663 38.7599C51.7328 38.6451 52.0267 38.5461 52.4906 38.5461C53.1905 38.5461 54.2793 38.7718 55.5604 39.5114C57.6896 40.7409 58.3239 42.2194 58.1576 42.5075C57.9897 42.7949 56.3943 42.9858 54.2642 41.7561C53.2926 41.1946 52.4684 40.4646 52.0028 39.752C51.6378 39.1937 51.6189 38.843 51.6663 38.7599ZM65.3307 46.6479C64.7534 47.6463 64.8975 48.903 65.736 50.1873C66.413 51.2237 67.5074 52.2112 68.8178 52.9672C70.1283 53.7241 71.5314 54.1778 72.7673 54.246C72.8773 54.2524 72.9858 54.2547 73.0919 54.2547C74.4618 54.2547 75.4998 53.7542 76.0343 52.8278C77.0969 50.9885 75.5972 48.2718 72.5465 46.5092C69.4955 44.7475 66.394 44.8069 65.3307 46.6479ZM71.3301 48.6154C73.4593 49.8459 74.0942 51.3235 73.928 51.6116C73.8796 51.6948 73.5622 51.8507 72.9009 51.8174C72.0504 51.7707 71.0061 51.4216 70.0337 50.861C69.0622 50.2996 68.2379 49.5696 67.7723 48.8569C67.4081 48.2987 67.3882 47.9471 67.4365 47.864C67.503 47.7492 67.7969 47.6502 68.2608 47.6502C68.9611 47.6502 70.049 47.8759 71.3301 48.6154ZM57.1314 56.3848C54.8534 55.0689 52.2522 54.455 49.61 54.6143C46.9694 54.7711 44.457 55.6896 42.3436 57.27L42.3404 57.2723C40.9524 58.3168 40.6721 60.2978 41.7173 61.6874C42.7625 63.0762 44.7435 63.3557 46.1301 62.313C47.2528 61.4721 48.5831 60.9836 49.9774 60.9013C51.3758 60.8245 52.7519 61.1483 53.9736 61.853C55.1962 62.5593 56.1718 63.5909 56.7965 64.8381C57.4212 66.0857 57.6652 67.4895 57.498 68.8747C57.2882 70.5993 58.5211 72.1741 60.2472 72.3856C60.3754 72.4007 60.503 72.4086 60.6297 72.4086C62.2007 72.4086 63.5642 71.2328 63.7581 69.6334C64.0708 67.0141 63.6101 64.379 62.4255 62.0129C61.2401 59.6453 59.4095 57.6991 57.1314 56.3848ZM61.3431 69.3427C61.2947 69.7378 60.9289 70.0205 60.541 69.9706C60.351 69.947 60.1781 69.8489 60.0603 69.6979C59.9426 69.5469 59.8896 69.3553 59.9131 69.1653C60.1356 67.2974 59.8101 65.4249 58.9709 63.7486C58.134 62.0755 56.8258 60.6914 55.19 59.7468C53.7189 58.8979 52.0743 58.4562 50.4012 58.4562C50.2119 58.4562 50.0228 58.4616 49.8334 58.4736C47.9624 58.5836 46.1777 59.2384 44.67 60.3667C44.5175 60.4817 44.3255 60.5314 44.1363 60.5048C43.9471 60.4783 43.7762 60.3776 43.6612 60.2251C43.5466 60.0724 43.4971 59.8805 43.5237 59.6914C43.5502 59.5023 43.6506 59.3314 43.8029 59.2163C45.533 57.9225 47.591 57.1702 49.7542 57.042C51.9173 56.9105 54.0504 57.4141 55.9153 58.491C57.78 59.5671 59.2789 61.1618 60.2513 63.1024C61.2211 65.0408 61.5988 67.2001 61.3431 69.3427Z" fill="#050505"/>
</g>
<defs>
<linearGradient id="paint0_linear_3_561" x1="11.5" y1="26.2857" x2="12.1823" y2="30.5109" gradientUnits="userSpaceOnUse">
<stop stop-color="#F0C001"/>
<stop offset="0.5" stop-color="#4BB567"/>
<stop offset="1" stop-color="#0BC4FE"/>
</linearGradient>
<linearGradient id="paint1_linear_3_561" x1="29.5" y1="25.2857" x2="30.1823" y2="29.5109" gradientUnits="userSpaceOnUse">
<stop stop-color="#F0C001"/>
<stop offset="0.5" stop-color="#4BB567"/>
<stop offset="1" stop-color="#0BC4FE"/>
</linearGradient>
<linearGradient id="paint2_linear_3_561" x1="51.8301" y1="38.5178" x2="52.5125" y2="42.743" gradientUnits="userSpaceOnUse">
<stop stop-color="#F0C001"/>
<stop offset="0.5" stop-color="#4BB567"/>
<stop offset="1" stop-color="#0BC4FE"/>
</linearGradient>
<linearGradient id="paint3_linear_3_561" x1="67.8301" y1="48.5178" x2="68.5125" y2="52.743" gradientUnits="userSpaceOnUse">
<stop stop-color="#F0C001"/>
<stop offset="0.5" stop-color="#4BB567"/>
<stop offset="1" stop-color="#0BC4FE"/>
</linearGradient>
<clipPath id="clip0_3_561">
<rect width="90" height="90" fill="white"/>
</clipPath>
</defs>
</svg>
