<svg width="1556" height="823" viewBox="0 0 1556 823" fill="none" xmlns="http://www.w3.org/2000/svg">
<g opacity="0.07">
<path d="M1646.08 758.522C1653.64 697.486 1593.39 645.893 1532.61 636.451C1471.83 627.008 1410.88 646.539 1350.67 659.07C1290.46 671.6 1222.71 675.765 1172.41 640.364C1108.1 595.108 1093.22 499.91 1027 457.4C975.442 424.261 908.32 434.17 855.488 458.818C825.617 472.767 800.233 496.212 771.671 512.53C642.204 586.599 633.443 737.95 523.471 760.515C404.433 784.911 339.807 726.784 317.331 686.572C288.608 634.979 240.534 501.13 358.171 408.105C405.959 370.316 453.154 330.032 488.303 280.27C540.938 205.77 540.579 91.8846 473.278 30.3281C427.142 -11.8764 356.286 -27.2969 324.943 -81.3855C303.885 -117.756 306.758 -164.628 324.943 -202.542C343.128 -240.456 374.579 -270.435 408.849 -294.76" stroke="white" stroke-miterlimit="10"/>
<path d="M1643.35 761.556C1648.58 698.725 1588.66 644.511 1526.06 633.722C1465.02 623.184 1403 642.698 1342.79 656.449C1283.28 670.128 1217.13 676.339 1167.06 644.17C1103.03 602.988 1085.02 512.619 1018.94 470.666C966.305 437.419 900.26 443.613 846.172 465.155C815.097 477.524 787.56 499.622 757.652 516.192C630.913 586.419 620.483 732.851 512.88 755.111C397.127 779.005 332.86 724.037 309.505 684.417C279.902 634.153 234.108 505.223 345.265 413.346C391.078 375.432 436.531 334.359 471.124 284.937C522.215 212.197 522.682 102.35 459.151 41.3324C415.187 -0.890048 346.88 -18.0877 315.662 -71.4762C294.246 -107.99 295.574 -154.198 311.39 -192.399C327.367 -230.942 356.485 -262.644 389.408 -288.746" stroke="white" stroke-miterlimit="10"/>
<path d="M1640.63 764.608C1643.5 700.071 1583.92 643.147 1519.51 631.029C1458.11 619.468 1395.14 638.694 1334.91 653.864C1276.1 668.674 1211.71 676.95 1161.73 647.993C1097.95 610.905 1076.89 525.222 1010.81 483.968C957.186 450.506 892.058 453.02 836.676 471.51C804.363 482.281 774.743 503.087 743.489 519.89C619.622 586.437 607.325 727.789 502.11 749.672C389.732 773.009 325.824 721.183 301.589 682.209C271.197 633.345 227.556 509.173 332.251 418.319C376.125 380.261 419.837 338.47 453.856 289.318C503.384 218.355 504.677 112.529 444.88 52.0856C403.106 9.80927 337.349 -9.14771 306.274 -61.854C284.499 -98.4935 284.248 -144.055 297.783 -182.508C311.606 -221.75 338.318 -255.104 369.913 -283.037" stroke="white" stroke-miterlimit="10"/>
<path d="M1637.9 767.66C1638.44 701.364 1579.18 641.818 1512.95 628.336C1451.24 615.77 1387.29 634.763 1327.03 651.261C1268.92 667.184 1206.21 677.56 1156.38 651.835C1092.87 618.822 1068.72 537.895 1002.68 497.271C948.013 463.647 883.799 462.408 827.377 477.883C793.789 487.092 762.122 506.606 729.486 523.57C608.509 586.616 594.364 722.726 491.536 744.376C382.515 767.193 318.984 718.454 293.834 680.109C262.687 632.627 221.201 513.158 319.433 423.597C361.368 385.342 403.16 342.814 436.765 293.985C484.553 224.656 486.851 122.959 430.877 63.1079C391.258 20.7598 328.193 0.00755259 297.119 -51.9268C275.074 -88.7638 273.153 -133.679 284.445 -172.347C296.095 -212.29 320.348 -247.278 350.669 -276.97" stroke="white" stroke-miterlimit="10"/>
<path d="M1635.17 770.694C1633.37 702.657 1574.44 640.49 1506.4 625.644C1444.36 612.108 1379.39 630.832 1319.15 648.676C1261.7 665.676 1200.66 678.17 1151.05 655.659C1087.78 626.721 1060.53 550.605 994.542 510.591C938.892 476.806 875.486 471.725 817.969 484.238C783.089 491.831 749.429 510.052 715.393 527.322C597.378 586.94 581.221 717.664 480.871 738.991C375.207 761.251 312.125 715.654 286.005 677.955C254.105 631.819 214.719 516.982 306.506 428.749C346.538 390.278 386.499 346.979 419.602 298.563C465.774 230.957 468.987 133.21 416.766 74.0407C379.318 31.5669 318.821 9.09129 287.872 -42.1071C265.486 -79.1235 261.914 -123.428 270.98 -162.294C280.458 -202.955 302.413 -239.486 331.316 -271.028" stroke="white" stroke-miterlimit="10"/>
<path d="M1632.44 773.745C1628.31 703.949 1569.61 639.108 1499.85 622.951C1437.48 608.464 1371.53 626.864 1311.26 646.091C1254.57 664.15 1195.17 678.889 1145.7 659.501C1082.65 634.763 1052.35 563.297 986.41 523.893C929.647 489.965 867.139 480.989 808.58 490.611C772.372 496.553 736.774 513.535 701.319 530.966C586.428 587.407 568.243 712.602 470.19 733.623C367.865 755.345 305.178 712.835 278.107 675.783C245.47 630.904 208.095 520.662 293.527 433.901C331.639 395.161 369.786 351.198 402.333 303.105C446.907 237.24 451 143.424 402.548 84.9375C367.255 42.338 309.361 18.175 278.502 -32.3053C255.793 -69.4833 250.551 -113.232 257.408 -152.259C264.697 -193.673 284.336 -231.875 311.856 -265.121" stroke="white" stroke-miterlimit="10"/>
<path d="M1629.71 776.797C1623.23 705.242 1564.96 637.905 1493.28 620.258C1430.59 604.838 1363.63 622.897 1303.35 643.488C1247.37 662.624 1189.64 679.517 1140.35 663.324C1077.51 642.698 1044.12 576.007 978.259 537.196C920.437 503.087 858.755 490.198 799.155 496.966C761.618 501.238 724.063 517.054 687.208 534.664C575.566 587.981 555.155 707.558 459.508 728.256C360.576 749.439 298.266 710.035 270.333 673.647C236.978 630.204 201.613 524.252 280.655 439.071C318.86 398.059 353.816 354.136 385.206 307.701C428.182 243.559 433.191 153.603 388.473 95.8701C355.334 53.0911 300.025 27.2765 269.292 -22.4857C246.242 -59.8253 239.312 -103.017 243.998 -142.206C249.042 -184.41 266.312 -224.155 292.467 -259.197" stroke="white" stroke-miterlimit="10"/>
<path d="M1626.98 779.849C1618.17 706.534 1560.22 636.63 1486.74 617.565C1423.73 601.229 1355.78 618.912 1295.49 640.902C1240.21 661.062 1184.18 680.145 1135.01 667.148C1072.49 650.632 1035.94 588.735 970.146 550.462C911.282 516.264 850.39 499.317 789.785 503.284C750.883 505.852 711.425 520.536 673.098 538.308C564.706 588.573 542.051 702.441 448.827 722.834C353.252 743.479 291.373 707.162 262.47 671.438C228.362 629.324 194.99 527.645 267.73 444.169C303.958 402.383 337.453 358.303 368.009 312.206C409.405 249.824 415.347 163.674 374.328 106.749C343.361 63.7722 290.619 36.3599 259.993 -12.7202C237.957 -48.4918 227.645 -90.2535 230.498 -132.171C233.299 -175.255 248.253 -216.544 273.152 -253.309" stroke="white" stroke-miterlimit="10"/>
<path d="M1624.22 782.883C1613.07 707.826 1555.43 635.391 1480.15 614.89C1416.8 597.639 1347.87 614.89 1287.57 638.317C1232.98 659.5 1178.64 680.755 1129.59 670.989C1067.32 658.567 1027.64 601.462 961.923 563.8C901.983 529.476 841.916 508.455 780.288 509.693C740.058 510.501 698.679 524.055 658.97 542.006C553.881 589.399 528.964 697.379 438.164 717.467C345.946 737.555 284.533 704.344 254.661 669.266C219.942 628.498 188.329 531.038 254.823 449.339C287.136 409.558 319.898 363.889 350.846 316.766C390.663 256.143 397.521 173.744 360.217 117.681C331.494 74.4534 281.23 45.4614 250.712 -2.90058C228.277 -38.5843 216.586 -79.9705 217.034 -122.118C217.737 -166.428 230.436 -209.718 253.781 -247.385" stroke="white" stroke-miterlimit="10"/>
<path d="M1621.52 786.025C1608.02 709.209 1550.72 634.243 1473.64 612.288C1409.96 594.138 1340.02 610.977 1279.76 635.804C1225.9 658.011 1173.22 681.474 1124.37 674.903C1062.38 666.592 1019.57 614.298 953.917 577.21C892.881 542.743 833.641 517.592 771.025 516.174C729.431 515.223 686.167 527.807 645.004 545.848C543.253 590.422 516.021 692.478 427.554 712.261C338.693 731.81 277.729 701.669 246.888 667.274C211.487 627.78 181.616 534.287 241.969 454.653C272.487 414.406 303.31 368.306 333.703 321.505C371.958 262.624 379.839 183.905 346.143 128.758C319.557 85.2606 271.895 54.7427 241.521 7.08083C218.641 -28.5561 205.569 -69.5988 203.624 -111.903C201.858 -157.043 212.533 -201.799 234.483 -241.281" stroke="white" stroke-miterlimit="10"/>
<path d="M1618.83 788.987C1603 710.43 1546 632.932 1467.12 609.469C1403.11 590.44 1332.18 606.812 1271.88 633.094C1218.67 656.287 1167.76 681.958 1119.04 678.619C1057.3 674.383 1011.33 626.918 945.785 590.387C883.726 555.811 825.257 526.478 761.618 522.385C718.677 519.621 673.547 531.253 630.911 549.313C532.554 591.158 502.969 687.182 416.891 706.642C331.386 725.653 270.907 698.6 239.061 664.886C203.014 626.739 174.74 537.088 229.044 459.572C257.605 418.822 286.687 372.327 316.523 325.832C353.216 268.727 362.12 193.617 332.015 139.457C307.654 95.6367 262.488 63.6108 232.239 16.667C207.807 -21.283 193.822 -62.3206 190.142 -102.084C185.892 -147.978 194.501 -194.15 215.005 -235.429" stroke="white" stroke-miterlimit="10"/>
<path d="M1616.07 792.02C1597.9 711.722 1541.19 631.729 1460.53 606.812C1396.18 586.922 1324.24 602.809 1263.96 630.544C1211.43 654.707 1162.21 682.604 1113.65 682.479C1052.2 682.335 1003.09 639.7 937.617 603.724C874.48 569.042 816.837 535.508 752.193 528.776C707.906 524.18 660.908 534.897 616.801 553.118C521.854 592.289 489.864 682.227 406.191 701.382C324.044 719.854 264.049 695.853 231.18 662.839C194.522 625.985 167.72 540.085 216.1 464.85C242.669 423.561 269.956 376.689 299.307 330.517C334.438 275.172 344.419 203.634 317.833 150.479C295.752 106.3 253.045 72.8377 222.94 26.612C198.149 -11.4816 182.315 -52.1064 176.642 -91.8695C169.893 -138.628 176.502 -186.342 195.707 -229.505" stroke="white" stroke-miterlimit="10"/>
<path d="M1613.34 795C1592.84 712.943 1536.43 630.473 1453.98 604.048C1389.35 583.313 1316.34 598.662 1256.08 627.87C1204.22 653.002 1156.72 683.143 1108.32 686.249C1047.14 690.162 994.865 652.392 929.485 616.955C865.271 582.165 808.472 544.358 742.786 535.077C697.171 528.615 648.307 538.488 602.763 556.727C511.209 593.331 476.903 677.255 395.564 695.943C316.828 714.02 257.336 692.927 223.407 660.614C186.121 625.033 160.576 542.761 203.229 469.93C227.787 427.959 253.494 380.872 282.217 335.005C315.786 281.437 326.899 213.4 303.759 161.34C284.012 116.748 243.674 81.8856 213.713 36.3241C188.581 -1.89514 170.88 -41.9993 163.215 -81.924C153.95 -129.484 158.523 -178.704 176.391 -223.743" stroke="white" stroke-miterlimit="10"/>
<path d="M1610.61 798.124C1587.76 714.307 1531.62 629.378 1447.43 601.427C1382.37 579.885 1308.45 594.659 1248.16 625.356C1196.97 651.44 1151.22 683.825 1102.93 690.144C1042.02 698.151 986.607 665.227 921.317 630.347C856.026 595.467 800.089 553.334 733.362 541.504C686.418 533.174 635.705 542.24 588.581 560.497C500.618 594.605 463.745 672.264 384.811 690.647C309.414 708.186 250.389 690.126 215.491 658.513C177.576 624.208 153.27 545.417 190.232 475.154C212.672 432.483 236.745 385.216 264.912 339.655C296.956 287.846 309.252 223.291 289.541 172.326C272.128 127.321 234.178 91.0769 204.36 46.2155C178.851 7.85265 159.284 -31.7309 149.643 -71.7992C137.876 -120.115 140.409 -170.809 156.932 -217.711" stroke="white" stroke-miterlimit="10"/>
<path d="M1607.88 801.176C1582.75 715.6 1526.88 628.211 1440.93 598.734C1375.51 576.312 1300.56 590.566 1240.37 622.771C1189.84 649.789 1145.79 684.418 1097.69 693.986C1037.05 706.049 978.457 677.991 913.274 643.721C846.853 608.733 791.849 562.292 724.045 547.949C675.791 537.716 623.228 546.046 574.579 564.267C490.098 595.88 450.712 667.274 374.237 685.333C302.215 702.334 243.692 687.308 207.753 656.431C169.247 623.382 145.892 548.02 177.397 480.396C197.646 436.935 220.23 389.542 247.821 344.286C278.339 294.273 291.893 233.129 275.503 183.331C260.531 137.859 224.843 100.286 195.169 56.107C169.3 17.5826 147.848 -21.4445 136.269 -61.6744C121.968 -110.73 122.448 -162.913 137.652 -211.697" stroke="white" stroke-miterlimit="10"/>
<path d="M1605.15 804.21C1577.63 716.892 1522.09 627.062 1434.32 595.969C1368.55 572.722 1292.5 586.383 1232.44 620.097C1182.55 648.065 1140.24 684.938 1092.29 697.738C1031.92 713.894 970.217 690.701 905.088 656.88C837.626 621.82 783.465 571.034 714.603 554.16C665.038 542.024 610.626 549.69 560.451 567.803C479.471 597.029 437.661 662.068 363.502 679.822C294.855 696.266 236.853 684.256 199.855 654.133C160.774 622.305 138.172 550.3 164.436 485.387C182.387 441.118 203.571 393.671 230.588 348.684C259.562 300.466 274.48 242.769 261.321 194.084C248.881 148.128 215.365 109.244 185.924 65.765C159.679 27.1149 136.305 -11.4275 122.806 -51.783C105.988 -101.572 104.419 -155.248 118.3 -205.935" stroke="white" stroke-miterlimit="10"/>
<path d="M1602.42 807.261C1572.55 718.185 1517.3 625.949 1427.77 593.348C1361.64 569.293 1284.64 582.326 1224.56 617.583C1175.32 646.468 1134.8 685.602 1086.96 701.651C1026.84 721.829 961.942 703.554 896.957 670.254C828.399 635.122 775.172 579.957 705.196 560.587C654.357 546.53 598.096 553.603 546.359 571.573C468.915 598.501 424.611 657.059 352.84 674.526C287.531 690.414 230.086 681.402 192.028 652.051C152.354 621.443 130.292 552.742 151.511 490.629C166.949 445.48 186.983 398.034 213.408 353.352C240.875 306.911 257.229 252.553 247.194 205.106C237.374 158.665 205.905 118.471 176.571 75.6743C149.949 36.8806 124.691 -1.03341 109.252 -41.6402C89.918 -92.1478 86.2952 -147.318 98.8585 -199.921" stroke="white" stroke-miterlimit="10"/>
<path d="M1599.69 810.313C1567.49 719.495 1512.5 624.818 1421.22 590.655C1354.8 565.792 1276.69 578.197 1216.68 614.998C1168.06 644.78 1129.2 686.105 1081.61 705.475C1021.72 729.602 953.701 716.354 888.824 683.556C819.171 648.37 766.895 588.789 695.806 566.959C643.746 550.946 585.583 557.517 532.266 575.253C458.359 599.865 411.505 651.853 342.175 669.158C280.188 684.364 223.317 678.457 184.2 649.896C143.952 620.491 122.195 555.093 138.603 495.799C151.862 447.57 171.227 401.233 196.228 357.911C222.186 313.283 240.048 262.318 233.065 216.093C225.884 169.167 196.497 127.68 167.29 85.5475C140.362 46.6282 113.111 9.3065 95.7877 -31.4978C73.9168 -82.7109 68.2292 -139.387 79.4876 -193.925" stroke="white" stroke-miterlimit="10"/>
<path d="M1596.97 813.347C1562.43 720.788 1507.69 623.705 1414.65 587.963C1347.8 562.292 1268.74 574.032 1208.78 612.395C1160.81 643.093 1123.7 686.715 1076.28 709.334C1016.64 737.537 945.462 729.081 880.602 696.894C809.854 661.637 758.53 597.639 686.31 573.332C632.922 555.38 572.999 561.538 518.103 578.969C447.714 601.337 398.364 646.809 331.404 663.791C272.792 678.457 216.514 675.531 176.266 647.742C135.443 619.54 113.794 557.517 125.588 500.969C136.134 452.312 154.188 405.593 179.102 362.489C203.57 319.656 223.03 272.12 218.991 226.953C214.754 179.561 187.127 136.746 158.081 95.2953C130.704 56.2503 101.586 19.521 82.3601 -21.5166C57.9772 -73.4223 50.2276 -131.594 60.1718 -188.073" stroke="white" stroke-miterlimit="10"/>
<path d="M1594.24 816.399C1557.35 722.08 1502.9 622.664 1408.1 585.288C1340.87 558.791 1260.75 569.885 1200.9 609.81C1153.54 641.405 1118.19 687.326 1070.93 713.14C1011.56 745.453 937.15 742.078 872.56 710.178C800.645 675.011 750.38 606.435 677.011 579.687C622.366 559.761 560.612 565.595 504.1 582.649C437.266 602.809 385.385 641.728 320.831 658.405C265.576 672.533 209.8 672.533 168.529 645.57C127.257 618.606 105.356 559.994 112.771 506.121C119.359 458.297 137.293 410.977 161.869 367.049C184.847 326.029 205.976 281.976 204.809 237.796C203.534 190.009 177.558 145.865 148.746 105.043C120.92 65.9084 89.9537 29.6459 68.8245 -11.5354C41.9152 -64.1105 32.0995 -123.778 40.7482 -182.202" stroke="white" stroke-miterlimit="10"/>
<path d="M1591.51 819.451C1552.29 723.373 1498.02 621.658 1401.62 582.595C1333.96 555.417 1252.83 565.703 1193.09 607.225C1146.41 639.7 1112.77 688.008 1065.63 716.982C1006.52 753.334 928.983 754.824 864.465 723.481C791.473 688.206 742.177 615.25 667.642 586.042C611.776 564.159 548.191 569.886 490.045 586.329C426.729 604.281 372.354 636.594 310.205 653.038C258.306 666.61 203.087 669.536 160.739 643.416C118.785 617.53 96.6509 562.633 99.8822 511.273C102.952 462.696 120.796 415.231 144.762 371.609C166.304 332.402 189.12 291.903 190.736 248.801C192.531 200.654 168.224 155.039 139.555 114.935C111.371 75.6564 78.5196 40.1299 55.4337 -1.41041C25.9794 -54.637 14.0627 -115.797 21.3793 -176.188" stroke="white" stroke-miterlimit="10"/>
<path d="M1588.78 822.502C1547.22 724.665 1493.26 620.438 1394.9 579.903C1326.9 551.826 1244.66 561.52 1185.05 604.622C1138.89 637.994 1107.12 688.546 1060.16 720.806C1001.31 761.251 920.636 767.57 856.207 736.783C782.138 701.4 733.848 624.064 658.127 592.415C601.023 568.539 535.643 574.104 475.845 590.027C416.048 605.951 359.159 631.604 299.398 647.67C250.928 660.703 196.211 666.52 152.786 641.262C110.258 616.524 87.6391 565.631 86.8492 516.425C86.0593 467.22 104.155 419.486 127.42 376.186C147.472 338.793 172.084 301.92 176.446 259.715C181.455 211.246 158.656 164.158 130.113 124.754C101.57 85.3503 66.7074 50.4521 41.7904 8.64254C9.84354 -45.2545 -4.12059 -107.921 1.91965 -170.282" stroke="white" stroke-miterlimit="10"/>
</g>
</svg>
