<svg width="1920" height="315" viewBox="0 0 1920 315" fill="none" xmlns="http://www.w3.org/2000/svg">
<path fill-rule="evenodd" clip-rule="evenodd" d="M1168.16 92.4243C1045.98 129.044 888.167 164.223 656.823 122.633C300.841 58.6364 15.1651 224.624 -81.8585 314.248L-109 284.865C-5.16004 188.945 292.689 16.5295 663.9 83.2642C887.05 123.381 1038.19 89.6202 1156.67 54.1084C1173.24 49.1428 1189.4 44.0594 1205.18 39.0985C1245.31 26.4796 1282.92 14.6536 1318.18 7.57742C1368.33 -2.48524 1416.65 -3.70589 1466.67 15.3147C1557.16 49.7258 1665.45 88.3316 1761.66 112.936C1809.79 125.246 1854.29 133.888 1891.67 136.872C1929.79 139.916 1957.42 136.78 1974.05 128.467L1991.94 164.244C1965.16 177.635 1928.32 179.925 1888.48 176.745C1847.91 173.506 1800.96 164.274 1751.75 151.689C1653.27 126.503 1543.25 87.2315 1452.45 52.7026C1411.82 37.2532 1371.74 37.6284 1326.05 46.7956C1293.01 53.4261 1258.53 64.269 1219.36 76.5856C1203.17 81.6777 1186.18 87.0218 1168.16 92.4243Z" fill="url(#paint0_linear_1_632)"/>
<defs>
<linearGradient id="paint0_linear_1_632" x1="-109" y1="157.324" x2="1991.94" y2="157.324" gradientUnits="userSpaceOnUse">
<stop stop-color="#F0C001"/>
<stop offset="0.5" stop-color="#4BB567"/>
<stop offset="1" stop-color="#0BC4FE"/>
</linearGradient>
</defs>
</svg>
