<svg width="449" height="93" viewBox="0 0 449 93" fill="none" xmlns="http://www.w3.org/2000/svg">
<mask id="path-1-outside-1_0_204" maskUnits="userSpaceOnUse" x="0.370117" y="0.24292" width="448" height="93" fill="black">
<rect fill="white" x="0.370117" y="0.24292" width="448" height="93"/>
<path d="M236.521 55.6117C234.676 58.0764 232.664 60.3969 230.498 62.5787C215.351 55.9744 204.858 46.9686 201.259 35.8582C184.75 -15.1066 283.988 -7.80328 236.521 55.6117Z"/>
</mask>
<path d="M0.370117 53.6322L3.05242 61.8665L8.84246 55.4264L0.370117 53.6322ZM230.498 62.5787L230.798 61.8912L230.328 61.6861L229.966 62.0504L230.498 62.5787ZM4.92711 58.7353C14.7796 66.4364 30.6466 73.7564 49.6458 79.6122C68.6598 85.4727 90.8693 89.8845 113.448 91.7381C136.025 93.5916 158.997 92.8894 179.526 88.5047C200.051 84.1211 218.189 76.045 231.031 63.1071L229.966 62.0504C217.399 74.7116 199.568 82.6906 179.213 87.0378C158.863 91.384 136.045 92.0882 113.571 90.2432C91.0993 88.3984 68.9969 84.0069 50.0876 78.1788C31.1634 72.346 15.4954 65.092 5.85086 57.5535L4.92711 58.7353ZM230.199 63.2662C254.87 74.0233 291.716 78.4202 331.185 75.2624C370.666 72.1034 412.861 61.378 448.243 41.8043L447.517 40.4917C412.359 59.9414 370.38 70.6215 331.065 73.7671C291.736 76.9138 255.162 72.5144 230.798 61.8912L230.199 63.2662ZM230.498 62.5787L229.899 63.9537L230.84 64.364L231.563 63.6354L230.498 62.5787ZM236.521 55.6117L237.722 56.5106V56.5106L236.521 55.6117ZM201.259 35.8582L199.832 36.3204V36.3204L201.259 35.8582ZM231.563 63.6354C233.776 61.4058 235.834 59.0327 237.722 56.5106L235.32 54.7129C233.518 57.1201 231.552 59.388 229.434 61.522L231.563 63.6354ZM237.722 56.5106C249.713 40.491 252.707 27.6639 250.163 18.2152C247.606 8.71635 239.598 3.14279 230.795 1.37197C222.018 -0.393745 212.142 1.54441 205.488 7.40006C198.724 13.3527 195.554 23.1118 199.832 36.3204L202.686 35.3959C198.71 23.1221 201.754 14.6824 207.47 9.65222C213.296 4.52513 222.168 2.69666 230.203 4.31305C238.213 5.92435 245.082 10.8816 247.266 18.995C249.464 27.1585 247.063 39.0249 235.32 54.7129L237.722 56.5106ZM199.832 36.3204C203.624 48.028 214.586 57.2771 229.899 63.9537L231.098 61.2037C216.117 54.6718 206.092 45.9093 202.686 35.3959L199.832 36.3204Z" fill="#050505" mask="url(#path-1-outside-1_0_204)"/>
</svg>
