<svg width="449" height="93" viewBox="0 0 449 93" fill="none" xmlns="http://www.w3.org/2000/svg">
<mask id="path-1-outside-1_0_312" maskUnits="userSpaceOnUse" x="0.254883" y="-0.352539" width="448" height="93" fill="black">
<rect fill="white" x="0.254883" y="-0.352539" width="448" height="93"/>
<path d="M212.104 55.0163C213.949 57.4809 215.961 59.8014 218.127 61.9833C233.274 55.379 243.767 46.3732 247.366 35.2627C263.875 -15.7021 164.637 -8.39874 212.104 55.0163Z"/>
</mask>
<path d="M448.255 53.0367L445.573 61.2711L439.783 54.831L448.255 53.0367ZM218.127 61.9833L217.827 61.2958L218.297 61.0906L218.659 61.4549L218.127 61.9833ZM443.698 58.1398C433.845 65.841 417.978 73.1609 398.979 79.0168C379.965 84.8772 357.756 89.2891 335.177 91.1427C312.6 92.9961 289.628 92.2939 269.099 87.9093C248.574 83.5257 230.436 75.4495 217.594 62.5116L218.659 61.4549C231.226 74.1161 249.057 82.0951 269.412 86.4423C289.762 90.7885 312.58 91.4927 335.054 89.6477C357.526 87.8029 379.628 83.4115 398.537 77.5833C417.462 71.7506 433.13 64.4966 442.774 56.958L443.698 58.1398ZM218.426 62.6708C193.755 73.4278 156.909 77.8248 117.44 74.6669C77.9591 71.508 35.7643 60.7825 0.381775 41.2088L1.10785 39.8963C36.2662 59.346 78.2445 70.026 117.56 73.1717C156.889 76.3184 193.463 71.919 217.827 61.2958L218.426 62.6708ZM218.127 61.9833L218.726 63.3582L217.785 63.7685L217.062 63.04L218.127 61.9833ZM212.104 55.0163L210.903 55.9151V55.9151L212.104 55.0163ZM247.366 35.2627L248.793 35.7249V35.7249L247.366 35.2627ZM217.062 63.04C214.849 60.8103 212.791 58.4372 210.903 55.9151L213.305 54.1174C215.107 56.5246 217.073 58.7925 219.191 60.9266L217.062 63.04ZM210.903 55.9151C198.912 39.8956 195.918 27.0685 198.462 17.6197C201.019 8.12089 209.027 2.54734 217.83 0.776514C226.607 -0.989204 236.483 0.948947 243.137 6.8046C249.901 12.7572 253.071 22.5163 248.793 35.7249L245.939 34.8005C249.915 22.5266 246.871 14.0869 241.155 9.05676C235.329 3.92967 226.457 2.1012 218.422 3.71759C210.412 5.32889 203.543 10.2862 201.359 18.3995C199.161 26.563 201.562 38.4294 213.305 54.1174L210.903 55.9151ZM248.793 35.7249C245.001 47.4325 234.039 56.6816 218.726 63.3582L217.527 60.6083C232.508 54.0763 242.533 45.3138 245.939 34.8005L248.793 35.7249Z" fill="url(#paint0_linear_0_312)" mask="url(#path-1-outside-1_0_312)"/>
<defs>
<linearGradient id="paint0_linear_0_312" x1="448.255" y1="46.5001" x2="0.74481" y2="46.5001" gradientUnits="userSpaceOnUse">
<stop stop-color="#F0C001"/>
<stop offset="0.5" stop-color="#4BB567"/>
<stop offset="1" stop-color="#0BC4FE"/>
</linearGradient>
</defs>
</svg>
