<svg width="277" height="36" viewBox="0 0 277 36" fill="none" xmlns="http://www.w3.org/2000/svg">
<mask id="mask0_1_125" style="mask-type:luminance" maskUnits="userSpaceOnUse" x="108" y="0" width="37" height="36">
<path d="M126.535 5.70724e-06C122.976 0.00189535 119.496 1.0593 116.537 3.03852C113.578 5.01775 111.273 7.82991 109.912 11.1194C108.551 14.4089 108.196 18.0281 108.892 21.5192C109.588 25.0104 111.304 28.2168 113.822 30.733C116.34 33.2492 119.548 34.9622 123.04 35.6554C126.531 36.3486 130.15 35.9909 133.439 34.6275C136.727 33.2641 139.538 30.9563 141.514 27.9958C143.491 25.0353 144.546 21.5551 144.545 17.9952C144.545 15.6308 144.079 13.2897 143.174 11.1054C142.269 8.92122 140.942 6.93681 139.269 5.26561C137.597 3.59442 135.611 2.26919 133.426 1.36569C131.241 0.462185 128.9 -0.00187725 126.535 5.70724e-06ZM126.535 28.1561C124.526 28.157 122.561 27.5619 120.889 26.446C119.217 25.33 117.914 23.7435 117.145 21.8869C116.375 20.0303 116.173 17.9872 116.564 16.0159C116.956 14.0446 117.923 12.2336 119.344 10.8121C120.765 9.39063 122.575 8.42243 124.547 8.02998C126.518 7.63754 128.561 7.83848 130.418 8.60739C132.275 9.3763 133.862 10.6786 134.979 12.3497C136.095 14.0207 136.691 15.9854 136.691 17.9952C136.691 20.6892 135.622 23.2729 133.717 25.1783C131.813 27.0837 129.229 28.1548 126.535 28.1561Z" fill="white"/>
</mask>
<g mask="url(#mask0_1_125)">
<path d="M126.533 -2.31689C122.744 -2.31689 119.041 -1.19342 115.89 0.911477C112.74 3.01637 110.285 6.00814 108.835 9.50845C107.385 13.0088 107.006 16.8604 107.745 20.5763C108.484 24.2922 110.308 27.7055 112.988 30.3845C115.667 33.0636 119.08 34.888 122.796 35.6271C126.512 36.3663 130.363 35.9869 133.864 34.5371C137.364 33.0872 140.356 30.6319 142.461 27.4817C144.565 24.3315 145.689 20.6279 145.689 16.8392C145.689 11.7587 143.671 6.88624 140.078 3.29379C136.486 -0.29867 131.613 -2.31689 126.533 -2.31689ZM126.533 27.6497C124.395 27.6497 122.305 27.0156 120.527 25.8278C118.749 24.6399 117.364 22.9515 116.545 20.9762C115.727 19.0008 115.513 16.8272 115.93 14.7301C116.347 12.6331 117.377 10.7069 118.889 9.19497C120.401 7.6831 122.327 6.65349 124.424 6.23636C126.521 5.81924 128.695 6.03332 130.67 6.85154C132.645 7.66977 134.334 9.05538 135.521 10.8332C136.709 12.6109 137.343 14.701 137.343 16.8392C137.342 19.7059 136.203 22.4549 134.176 24.4819C132.149 26.509 129.4 27.6484 126.533 27.6497Z" fill="url(#paint0_linear_1_125)"/>
<path d="M129.521 3.00024C126.141 3.00024 122.836 4.00268 120.025 5.88082C117.214 7.75895 115.024 10.4284 113.73 13.5516C112.436 16.6749 112.098 20.1116 112.757 23.4271C113.417 26.7427 115.045 29.7883 117.435 32.1787C119.825 34.5691 122.871 36.197 126.187 36.8565C129.502 37.516 132.939 37.1775 136.062 35.8839C139.185 34.5902 141.855 32.3994 143.733 29.5886C145.611 26.7778 146.614 23.4731 146.614 20.0926C146.614 15.5594 144.813 11.2119 141.607 8.00647C138.402 4.80103 134.054 3.00024 129.521 3.00024ZM129.521 29.7518C127.612 29.7528 125.746 29.1875 124.158 28.1276C122.571 27.0676 121.333 25.5606 120.602 23.7971C119.871 22.0337 119.68 20.0931 120.052 18.2208C120.424 16.3485 121.343 14.6286 122.693 13.2788C124.043 11.929 125.763 11.0098 127.635 10.6377C129.507 10.2655 131.448 10.457 133.211 11.1879C134.975 11.9189 136.482 13.1564 137.542 14.7441C138.602 16.3317 139.167 18.198 139.166 20.1069C139.162 22.6624 138.144 25.112 136.336 26.9176C134.528 28.7233 132.077 29.7375 129.521 29.7375V29.7518Z" fill="url(#paint1_linear_1_125)"/>
<path d="M125.108 4.09888C121.548 4.09983 118.068 5.15643 115.108 7.13508C112.149 9.11373 109.843 11.9256 108.481 15.215C107.12 18.5044 106.764 22.1237 107.459 25.6152C108.155 29.1067 109.87 32.3135 112.388 34.8302C114.906 37.3469 118.114 39.0604 121.606 39.754C125.098 40.4476 128.717 40.0901 132.005 38.7269C135.294 37.3636 138.105 35.0558 140.082 32.0952C142.059 29.1346 143.114 25.6542 143.113 22.0941C143.113 19.73 142.648 17.3889 141.743 15.2047C140.839 13.0205 139.512 11.036 137.84 9.36478C136.168 7.69352 134.183 6.36823 131.998 5.46467C129.813 4.56111 127.472 4.097 125.108 4.09888ZM125.108 32.2549C123.098 32.2549 121.134 31.659 119.463 30.5425C117.792 29.4261 116.49 27.8391 115.721 25.9825C114.951 24.1258 114.75 22.0828 115.142 20.1118C115.534 18.1408 116.502 16.3303 117.923 14.9093C119.344 13.4883 121.155 12.5206 123.126 12.1285C125.097 11.7365 127.14 11.9377 128.996 12.7067C130.853 13.4758 132.44 14.7781 133.556 16.4491C134.673 18.12 135.269 20.0845 135.269 22.0941C135.269 23.4286 135.007 24.7502 134.497 25.9832C133.986 27.2163 133.238 28.3367 132.294 29.2803C131.35 30.224 130.23 30.9724 128.997 31.4828C127.764 31.9932 126.442 32.2556 125.108 32.2549Z" fill="url(#paint2_linear_1_125)"/>
<path style="mix-blend-mode:color-burn" d="M121.5 2.11646C117.596 2.11551 113.779 3.27237 110.532 5.44072C107.285 7.60908 104.755 10.6915 103.26 14.2983C101.765 17.905 101.374 21.874 102.135 25.7032C102.896 29.5325 104.775 33.0501 107.536 35.8111C110.296 38.5721 113.813 40.4525 117.642 41.2145C121.471 41.9765 125.441 41.5859 129.048 40.0921C132.655 38.5982 135.738 36.0683 137.907 32.8221C140.076 29.576 141.234 25.7595 141.234 21.8553C141.234 16.6211 139.155 11.6011 135.454 7.89953C131.753 4.19791 126.734 2.11772 121.5 2.11646ZM121.5 32.9907C119.296 32.9916 117.142 32.3389 115.309 31.1152C113.476 29.8915 112.047 28.1517 111.204 26.1159C110.36 24.0801 110.139 21.8398 110.569 19.6784C110.998 17.5169 112.059 15.5315 113.618 13.9733C115.176 12.415 117.161 11.3539 119.323 10.9242C121.484 10.4945 123.725 10.7156 125.76 11.5593C127.796 12.4031 129.536 13.8317 130.76 15.6644C131.983 17.4971 132.636 19.6516 132.635 21.8553C132.637 23.3191 132.35 24.7688 131.792 26.1217C131.233 27.4747 130.413 28.7042 129.379 29.7401C128.345 30.7761 127.117 31.598 125.765 32.159C124.413 32.7201 122.963 33.0091 121.5 33.0098V32.9907Z" fill="url(#paint3_radial_1_125)"/>
<path style="mix-blend-mode:color-burn" d="M132.37 1.51465C128.466 1.51465 124.649 2.67244 121.403 4.84159C118.157 7.01073 115.627 10.0938 114.133 13.7009C112.639 17.308 112.249 21.277 113.011 25.1061C113.773 28.9352 115.653 32.4523 118.414 35.2127C121.175 37.973 124.693 39.8526 128.522 40.6137C132.351 41.3748 136.32 40.9832 139.927 39.4885C143.534 37.9937 146.616 35.463 148.785 32.2164C150.953 28.9697 152.11 25.1529 152.109 21.2487C152.109 18.6568 151.598 16.0903 150.606 13.6957C149.614 11.3012 148.16 9.12548 146.327 7.29294C144.494 5.4604 142.318 4.00689 139.923 3.01544C137.529 2.02399 134.962 1.51402 132.37 1.51465ZM132.37 32.3889C130.167 32.3889 128.013 31.7355 126.181 30.5114C124.349 29.2873 122.921 27.5475 122.078 25.5119C121.235 23.4763 121.014 21.2364 121.444 19.0754C121.874 16.9144 122.935 14.9294 124.493 13.3715C126.051 11.8135 128.036 10.7525 130.197 10.3227C132.358 9.89282 134.598 10.1134 136.633 10.9566C138.669 11.7998 140.409 13.2276 141.633 15.0596C142.857 16.8916 143.51 19.0454 143.51 21.2487C143.51 22.7117 143.222 24.1603 142.662 25.5119C142.102 26.8635 141.282 28.0915 140.247 29.126C139.213 30.1605 137.985 30.981 136.633 31.5409C135.282 32.1007 133.833 32.3889 132.37 32.3889Z" fill="url(#paint4_radial_1_125)"/>
<path style="mix-blend-mode:color-dodge" d="M123.367 -7.21802C119.463 -7.21707 115.647 -6.05848 112.401 -3.88876C109.156 -1.71904 106.627 1.36435 105.133 4.97151C103.64 8.57868 103.25 12.5476 104.013 16.3764C104.775 20.2052 106.656 23.7218 109.417 26.4817C112.179 29.2416 115.696 31.1206 119.525 31.8813C123.355 32.642 127.323 32.2502 130.93 30.7553C134.536 29.2605 137.618 26.7297 139.786 23.4832C141.955 20.2366 143.111 16.42 143.11 12.5161C143.11 9.92374 142.6 7.35682 141.607 4.96195C140.615 2.56708 139.161 0.391185 137.327 -1.44142C135.494 -3.27402 133.317 -4.72742 130.922 -5.71859C128.526 -6.70976 125.959 -7.21927 123.367 -7.21802ZM123.367 23.6562C121.164 23.6552 119.01 23.0011 117.179 21.7764C115.348 20.5517 113.92 18.8116 113.078 16.7759C112.236 14.7402 112.016 12.5005 112.446 10.3398C112.876 8.17914 113.938 6.19461 115.496 4.63711C117.054 3.07962 119.039 2.01911 121.2 1.58965C123.361 1.16019 125.6 1.38107 127.636 2.22438C129.671 3.06769 131.411 4.49556 132.635 6.32744C133.858 8.15932 134.512 10.313 134.512 12.5161C134.512 13.9794 134.223 15.4284 133.663 16.7803C133.103 18.1322 132.282 19.3605 131.247 20.395C130.212 21.4295 128.984 22.25 127.631 22.8096C126.279 23.3691 124.83 23.6568 123.367 23.6562Z" fill="url(#paint5_radial_1_125)"/>
<path style="mix-blend-mode:color-dodge" d="M125.686 7.74854C122.574 7.74854 119.533 8.67125 116.946 10.4C114.359 12.1287 112.343 14.5859 111.152 17.4606C109.962 20.3353 109.65 23.4985 110.258 26.5501C110.865 29.6018 112.364 32.4047 114.564 34.6045C116.765 36.8044 119.568 38.3022 122.62 38.9086C125.672 39.5151 128.835 39.2029 131.709 38.0115C134.584 36.8201 137.04 34.8031 138.768 32.2156C140.496 29.628 141.418 26.5861 141.417 23.4746C141.417 21.4091 141.01 19.3637 140.219 17.4554C139.429 15.5471 138.27 13.8133 136.809 12.3529C135.348 10.8925 133.614 9.73428 131.706 8.94425C129.797 8.15422 127.752 7.74791 125.686 7.74854ZM125.686 32.3505C123.93 32.3505 122.214 31.8299 120.755 30.8546C119.295 29.8793 118.158 28.4931 117.486 26.8713C116.814 25.2494 116.638 23.4648 116.981 21.7431C117.323 20.0213 118.169 18.4398 119.41 17.1985C120.651 15.9572 122.233 15.1119 123.954 14.7694C125.676 14.4269 127.461 14.6027 129.083 15.2745C130.704 15.9463 132.091 17.0839 133.066 18.5435C134.041 20.0031 134.562 21.7192 134.562 23.4746C134.562 25.8287 133.627 28.0863 131.962 29.7508C130.298 31.4153 128.04 32.3505 125.686 32.3505Z" fill="url(#paint6_radial_1_125)"/>
</g>
<g style="mix-blend-mode:multiply" opacity="0.5">
<mask id="mask1_1_125" style="mask-type:luminance" maskUnits="userSpaceOnUse" x="108" y="0" width="37" height="36">
<path d="M126.535 5.70724e-06C122.976 0.00189535 119.496 1.0593 116.537 3.03852C113.578 5.01775 111.273 7.82991 109.912 11.1194C108.551 14.4089 108.196 18.0281 108.892 21.5192C109.588 25.0104 111.304 28.2168 113.822 30.733C116.34 33.2492 119.548 34.9622 123.04 35.6554C126.531 36.3486 130.15 35.9909 133.439 34.6275C136.727 33.2641 139.538 30.9563 141.514 27.9958C143.491 25.0353 144.546 21.5551 144.545 17.9952C144.545 15.6308 144.079 13.2897 143.174 11.1054C142.269 8.92122 140.942 6.93681 139.269 5.26561C137.597 3.59442 135.611 2.26919 133.426 1.36569C131.241 0.462185 128.9 -0.00187725 126.535 5.70724e-06ZM126.535 28.1561C124.526 28.157 122.561 27.5619 120.889 26.446C119.217 25.33 117.914 23.7435 117.145 21.8869C116.375 20.0303 116.173 17.9872 116.564 16.0159C116.956 14.0446 117.923 12.2336 119.344 10.8121C120.765 9.39063 122.575 8.42243 124.547 8.02998C126.518 7.63754 128.561 7.83848 130.418 8.60739C132.275 9.3763 133.862 10.6786 134.979 12.3497C136.095 14.0207 136.691 15.9854 136.691 17.9952C136.691 20.6892 135.622 23.2729 133.717 25.1783C131.813 27.0837 129.229 28.1548 126.535 28.1561Z" fill="white"/>
</mask>
<g mask="url(#mask1_1_125)">
<path d="M126.533 -2.31689C122.744 -2.31689 119.041 -1.19342 115.89 0.911477C112.74 3.01637 110.285 6.00814 108.835 9.50845C107.385 13.0088 107.006 16.8604 107.745 20.5763C108.484 24.2922 110.308 27.7055 112.988 30.3845C115.667 33.0636 119.08 34.888 122.796 35.6271C126.512 36.3663 130.363 35.9869 133.864 34.5371C137.364 33.0872 140.356 30.6319 142.461 27.4817C144.565 24.3315 145.689 20.6279 145.689 16.8392C145.689 11.7587 143.671 6.88624 140.078 3.29379C136.486 -0.29867 131.613 -2.31689 126.533 -2.31689ZM126.533 27.6497C124.395 27.6497 122.305 27.0156 120.527 25.8278C118.749 24.6399 117.364 22.9515 116.545 20.9762C115.727 19.0008 115.513 16.8272 115.93 14.7301C116.347 12.6331 117.377 10.7069 118.889 9.19497C120.401 7.6831 122.327 6.65349 124.424 6.23636C126.521 5.81924 128.695 6.03332 130.67 6.85154C132.645 7.66977 134.334 9.05538 135.521 10.8332C136.709 12.6109 137.343 14.701 137.343 16.8392C137.342 19.7059 136.203 22.4549 134.176 24.4819C132.149 26.509 129.4 27.6484 126.533 27.6497Z" fill="url(#paint7_linear_1_125)"/>
<path d="M129.521 3.00024C126.141 3.00024 122.836 4.00268 120.025 5.88082C117.214 7.75895 115.024 10.4284 113.73 13.5516C112.436 16.6749 112.098 20.1116 112.757 23.4271C113.417 26.7427 115.045 29.7883 117.435 32.1787C119.825 34.5691 122.871 36.197 126.187 36.8565C129.502 37.516 132.939 37.1775 136.062 35.8839C139.185 34.5902 141.855 32.3994 143.733 29.5886C145.611 26.7778 146.614 23.4731 146.614 20.0926C146.614 15.5594 144.813 11.2119 141.607 8.00647C138.402 4.80103 134.054 3.00024 129.521 3.00024ZM129.521 29.7518C127.612 29.7528 125.746 29.1875 124.158 28.1276C122.571 27.0676 121.333 25.5606 120.602 23.7971C119.871 22.0337 119.68 20.0931 120.052 18.2208C120.424 16.3485 121.343 14.6286 122.693 13.2788C124.043 11.929 125.763 11.0098 127.635 10.6377C129.507 10.2655 131.448 10.457 133.211 11.1879C134.975 11.9189 136.482 13.1564 137.542 14.7441C138.602 16.3317 139.167 18.198 139.166 20.1069C139.162 22.6624 138.144 25.112 136.336 26.9176C134.528 28.7233 132.077 29.7375 129.521 29.7375V29.7518Z" fill="url(#paint8_linear_1_125)"/>
<path d="M125.108 4.09888C121.548 4.09983 118.068 5.15643 115.108 7.13508C112.149 9.11373 109.843 11.9256 108.481 15.215C107.12 18.5044 106.764 22.1237 107.459 25.6152C108.155 29.1067 109.87 32.3135 112.388 34.8302C114.906 37.3469 118.114 39.0604 121.606 39.754C125.098 40.4476 128.717 40.0901 132.005 38.7269C135.294 37.3636 138.105 35.0558 140.082 32.0952C142.059 29.1346 143.114 25.6542 143.113 22.0941C143.113 19.73 142.648 17.3889 141.743 15.2047C140.839 13.0205 139.512 11.036 137.84 9.36478C136.168 7.69352 134.183 6.36823 131.998 5.46467C129.813 4.56111 127.472 4.097 125.108 4.09888ZM125.108 32.2549C123.098 32.2549 121.134 31.659 119.463 30.5425C117.792 29.4261 116.49 27.8391 115.721 25.9825C114.951 24.1258 114.75 22.0828 115.142 20.1118C115.534 18.1408 116.502 16.3303 117.923 14.9093C119.344 13.4883 121.155 12.5206 123.126 12.1285C125.097 11.7365 127.14 11.9377 128.996 12.7067C130.853 13.4758 132.44 14.7781 133.556 16.4491C134.673 18.12 135.269 20.0845 135.269 22.0941C135.269 23.4286 135.007 24.7502 134.497 25.9832C133.986 27.2163 133.238 28.3367 132.294 29.2803C131.35 30.224 130.23 30.9724 128.997 31.4828C127.764 31.9932 126.442 32.2556 125.108 32.2549Z" fill="url(#paint9_linear_1_125)"/>
<path style="mix-blend-mode:color-burn" d="M121.5 2.11646C117.596 2.11551 113.779 3.27237 110.532 5.44072C107.285 7.60908 104.755 10.6915 103.26 14.2983C101.765 17.905 101.374 21.874 102.135 25.7032C102.896 29.5325 104.775 33.0501 107.536 35.8111C110.296 38.5721 113.813 40.4525 117.642 41.2145C121.471 41.9765 125.441 41.5859 129.048 40.0921C132.655 38.5982 135.738 36.0683 137.907 32.8221C140.076 29.576 141.234 25.7595 141.234 21.8553C141.234 16.6211 139.155 11.6011 135.454 7.89953C131.753 4.19791 126.734 2.11772 121.5 2.11646ZM121.5 32.9907C119.296 32.9916 117.142 32.3389 115.309 31.1152C113.476 29.8915 112.047 28.1517 111.204 26.1159C110.36 24.0801 110.139 21.8398 110.569 19.6784C110.998 17.5169 112.059 15.5315 113.618 13.9733C115.176 12.415 117.161 11.3539 119.323 10.9242C121.484 10.4945 123.725 10.7156 125.76 11.5593C127.796 12.4031 129.536 13.8317 130.76 15.6644C131.983 17.4971 132.636 19.6516 132.635 21.8553C132.637 23.3191 132.35 24.7688 131.792 26.1217C131.233 27.4747 130.413 28.7042 129.379 29.7401C128.345 30.7761 127.117 31.598 125.765 32.159C124.413 32.7201 122.963 33.0091 121.5 33.0098V32.9907Z" fill="url(#paint10_radial_1_125)"/>
<path style="mix-blend-mode:color-burn" d="M132.37 1.51465C128.466 1.51465 124.649 2.67244 121.403 4.84159C118.157 7.01073 115.627 10.0938 114.133 13.7009C112.639 17.308 112.249 21.277 113.011 25.1061C113.773 28.9352 115.653 32.4523 118.414 35.2127C121.175 37.973 124.693 39.8526 128.522 40.6137C132.351 41.3748 136.32 40.9832 139.927 39.4885C143.534 37.9937 146.616 35.463 148.785 32.2164C150.953 28.9697 152.11 25.1529 152.109 21.2487C152.109 18.6568 151.598 16.0903 150.606 13.6957C149.614 11.3012 148.16 9.12548 146.327 7.29294C144.494 5.4604 142.318 4.00689 139.923 3.01544C137.529 2.02399 134.962 1.51402 132.37 1.51465ZM132.37 32.3889C130.167 32.3889 128.013 31.7355 126.181 30.5114C124.349 29.2873 122.921 27.5475 122.078 25.5119C121.235 23.4763 121.014 21.2364 121.444 19.0754C121.874 16.9144 122.935 14.9294 124.493 13.3715C126.051 11.8135 128.036 10.7525 130.197 10.3227C132.358 9.89282 134.598 10.1134 136.633 10.9566C138.669 11.7998 140.409 13.2276 141.633 15.0596C142.857 16.8916 143.51 19.0454 143.51 21.2487C143.51 22.7117 143.222 24.1603 142.662 25.5119C142.102 26.8635 141.282 28.0915 140.247 29.126C139.213 30.1605 137.985 30.981 136.633 31.5409C135.282 32.1007 133.833 32.3889 132.37 32.3889Z" fill="url(#paint11_radial_1_125)"/>
<path style="mix-blend-mode:color-dodge" d="M123.367 -7.21802C119.463 -7.21707 115.647 -6.05848 112.401 -3.88876C109.156 -1.71904 106.627 1.36435 105.133 4.97151C103.64 8.57868 103.25 12.5476 104.013 16.3764C104.775 20.2052 106.656 23.7218 109.417 26.4817C112.179 29.2416 115.696 31.1206 119.525 31.8813C123.355 32.642 127.323 32.2502 130.93 30.7553C134.536 29.2605 137.618 26.7297 139.786 23.4832C141.955 20.2366 143.111 16.42 143.11 12.5161C143.11 9.92374 142.6 7.35682 141.607 4.96195C140.615 2.56708 139.161 0.391185 137.327 -1.44142C135.494 -3.27402 133.317 -4.72742 130.922 -5.71859C128.526 -6.70976 125.959 -7.21927 123.367 -7.21802ZM123.367 23.6562C121.164 23.6552 119.01 23.0011 117.179 21.7764C115.348 20.5517 113.92 18.8116 113.078 16.7759C112.236 14.7402 112.016 12.5005 112.446 10.3398C112.876 8.17914 113.938 6.19461 115.496 4.63711C117.054 3.07962 119.039 2.01911 121.2 1.58965C123.361 1.16019 125.6 1.38107 127.636 2.22438C129.671 3.06769 131.411 4.49556 132.635 6.32744C133.858 8.15932 134.512 10.313 134.512 12.5161C134.512 13.9794 134.223 15.4284 133.663 16.7803C133.103 18.1322 132.282 19.3605 131.247 20.395C130.212 21.4295 128.984 22.25 127.631 22.8096C126.279 23.3691 124.83 23.6568 123.367 23.6562Z" fill="url(#paint12_radial_1_125)"/>
<path style="mix-blend-mode:color-dodge" d="M125.686 7.74854C122.574 7.74854 119.533 8.67125 116.946 10.4C114.359 12.1287 112.343 14.5859 111.152 17.4606C109.962 20.3353 109.65 23.4985 110.258 26.5501C110.865 29.6018 112.364 32.4047 114.564 34.6045C116.765 36.8044 119.568 38.3022 122.62 38.9086C125.672 39.5151 128.835 39.2029 131.709 38.0115C134.584 36.8201 137.04 34.8031 138.768 32.2156C140.496 29.628 141.418 26.5861 141.417 23.4746C141.417 21.4091 141.01 19.3637 140.219 17.4554C139.429 15.5471 138.27 13.8133 136.809 12.3529C135.348 10.8925 133.614 9.73428 131.706 8.94425C129.797 8.15422 127.752 7.74791 125.686 7.74854ZM125.686 32.3505C123.93 32.3505 122.214 31.8299 120.755 30.8546C119.295 29.8793 118.158 28.4931 117.486 26.8713C116.814 25.2494 116.638 23.4648 116.981 21.7431C117.323 20.0213 118.169 18.4398 119.41 17.1985C120.651 15.9572 122.233 15.1119 123.954 14.7694C125.676 14.4269 127.461 14.6027 129.083 15.2745C130.704 15.9463 132.091 17.0839 133.066 18.5435C134.041 20.0031 134.562 21.7192 134.562 23.4746C134.562 25.8287 133.627 28.0863 131.962 29.7508C130.298 31.4153 128.04 32.3505 125.686 32.3505Z" fill="url(#paint13_radial_1_125)"/>
</g>
</g>
<path d="M35.7946 35.1403H29.4172L25.9347 26.852H9.69268L6.16242 35.1403H0L15.086 0.568604H20.6752L35.7946 35.1403ZM17.7994 7.7772L11.9188 21.5065H23.7325L17.7994 7.7772Z" fill="white"/>
<path d="M66.6791 32.1735C65.7067 32.9119 64.6634 33.552 63.5645 34.0843C62.4004 34.6397 61.1733 35.052 59.91 35.312C58.4664 35.6007 56.9968 35.74 55.5247 35.7276C53.1219 35.7574 50.739 35.2889 48.5263 34.3518C46.4527 33.4786 44.5741 32.2008 43.0001 30.5932C41.4261 28.9855 40.1883 27.0803 39.3591 24.9888C38.4643 22.7765 38.0131 20.41 38.031 18.0238C38.016 15.6576 38.4572 13.3106 39.3304 11.1114C40.1657 8.99511 41.4154 7.06704 43.006 5.44033C44.5966 3.81361 46.4962 2.52103 48.5931 1.63843C50.86 0.683995 53.2994 0.207506 55.7587 0.238747C57.2013 0.227637 58.6413 0.358849 60.0581 0.630471C61.2785 0.871552 62.4699 1.24146 63.6122 1.73397C64.6636 2.19522 65.6655 2.7618 66.6027 3.42505C67.5188 4.08254 68.3872 4.8041 69.2014 5.58429L65.3272 10.0461C64.0236 8.82008 62.5557 7.78146 60.9657 6.96009C59.3344 6.15036 57.5319 5.74563 55.711 5.78015C54.1468 5.7655 52.5982 6.09152 51.1727 6.73557C49.8117 7.35451 48.5874 8.23786 47.5708 9.33428C46.5434 10.4528 45.7435 11.7605 45.2157 13.1846C44.65 14.713 44.3683 16.332 44.3845 17.9617C44.3732 19.591 44.6548 21.209 45.2157 22.7388C45.7435 24.1772 46.543 25.5006 47.5708 26.6368C48.5824 27.7449 49.8076 28.637 51.1727 29.2595C52.5982 29.9035 54.1468 30.2295 55.711 30.2149C57.5806 30.2652 59.4335 29.8516 61.1043 29.011C62.727 28.1238 64.2269 27.0286 65.5661 25.7531L69.4403 29.6751C68.5911 30.5833 67.6675 31.419 66.6791 32.1735Z" fill="white"/>
<path d="M101.871 32.1735C100.899 32.9119 99.8555 33.552 98.7566 34.0843C97.5926 34.6397 96.3655 35.052 95.1022 35.312C93.6569 35.601 92.1858 35.7402 90.712 35.7276C88.322 35.7528 85.9525 35.2844 83.7518 34.3518C81.6835 33.4777 79.8084 32.2032 78.2343 30.6018C76.6618 28.987 75.4203 27.0802 74.5799 24.9887C72.8314 20.5282 72.8314 15.5719 74.5799 11.1113C75.4117 9.00976 76.6448 7.09028 78.2104 5.46008C79.8024 3.82909 81.7021 2.53013 83.7996 1.63843C86.0665 0.683995 88.5058 0.207506 90.9652 0.238747C92.4077 0.227885 93.8478 0.359095 95.2646 0.630471C96.485 0.871552 97.6764 1.24146 98.8187 1.73397C99.8701 2.19522 100.872 2.7618 101.809 3.42504C102.725 4.08254 103.594 4.8041 104.408 5.58429L100.534 10.0461C99.23 8.82008 97.7621 7.78146 96.1722 6.96009C94.5408 6.15054 92.7384 5.74582 90.9174 5.78015C89.3549 5.76604 87.808 6.09206 86.384 6.73557C85.023 7.3545 83.7986 8.23786 82.7821 9.33428C81.753 10.4515 80.9529 11.7596 80.427 13.1846C79.8576 14.7122 79.5742 16.3315 79.591 17.9617C79.5789 19.5915 79.8622 21.2099 80.427 22.7388C80.9524 24.1783 81.7523 25.5021 82.7821 26.6368C83.7937 27.7449 85.0189 28.6369 86.384 29.2594C87.808 29.903 89.3549 30.229 90.9174 30.2149C92.7886 30.2656 94.6432 29.852 96.3155 29.011C97.9382 28.1238 99.4381 27.0286 100.777 25.7531L104.652 29.6751C103.796 30.5841 102.866 31.4199 101.871 32.1735Z" fill="white"/>
<path d="M173.684 35.1404L165.224 23.1738H157.643V35.1404H151.662V0.817096H166.949C168.75 0.794089 170.543 1.05031 172.266 1.57665C173.737 2.01961 175.104 2.75211 176.288 3.73111C177.383 4.66641 178.248 5.84179 178.815 7.16583C179.887 9.84208 179.982 12.8104 179.083 15.5496C178.695 16.6362 178.123 17.6479 177.391 18.54C176.666 19.4122 175.801 20.158 174.831 20.747C173.799 21.3665 172.684 21.8377 171.52 22.1467L180.788 35.1404H173.684ZM171.716 7.71041C170.468 6.75499 168.716 6.27728 166.462 6.27728H157.643V17.8474H166.519C168.684 17.8474 170.406 17.3235 171.683 16.2757C172.308 15.7654 172.805 15.1172 173.137 14.3819C173.468 13.6466 173.625 12.8444 173.594 12.0384C173.584 10.1212 172.957 8.67856 171.712 7.71041H171.716Z" fill="white"/>
<path d="M212.511 6.25798H193.092V15.0812H210.289V20.5271H193.092V29.6943H212.754V35.1401H187.111V0.816895H212.511V6.25798Z" fill="white"/>
<path d="M225.359 11.5511C225.65 12.1117 226.083 12.5861 226.615 12.9269C227.392 13.4335 228.236 13.829 229.123 14.102C230.184 14.4651 231.54 14.8377 233.179 15.2294C234.802 15.6337 236.397 16.1411 237.956 16.7485C239.216 17.2285 240.387 17.9163 241.419 18.7836C242.313 19.5509 243.027 20.5049 243.512 21.5782C244.009 22.7661 244.252 24.0453 244.223 25.3329C244.25 26.8353 243.943 28.3248 243.325 29.6944C242.741 30.9473 241.884 32.0539 240.817 32.9333C239.677 33.8508 238.367 34.5342 236.962 34.9444C235.355 35.4139 233.687 35.6441 232.013 35.6275C229.42 35.6368 226.845 35.1805 224.413 34.2804C221.93 33.3423 219.649 31.9363 217.696 30.1387L221.327 25.8393C222.841 27.1807 224.542 28.2957 226.376 29.1498C228.204 29.9456 230.182 30.3382 232.176 30.3011C234.039 30.3011 235.518 29.9094 236.613 29.1259C237.134 28.7765 237.557 28.3011 237.845 27.744C238.132 27.1869 238.274 26.5662 238.257 25.9396C238.267 25.3677 238.158 24.7999 237.937 24.2724C237.673 23.7245 237.265 23.2587 236.757 22.9253C236.025 22.4373 235.231 22.0486 234.397 21.7693C233.114 21.3276 231.81 20.9513 230.489 20.6419C228.831 20.264 227.197 19.7854 225.598 19.2087C224.302 18.755 223.09 18.0917 222.01 17.2454C221.057 16.4778 220.299 15.4956 219.798 14.3791C219.254 13.0931 218.993 11.7049 219.034 10.309C219.014 8.89604 219.313 7.4967 219.908 6.2151C220.474 5.0056 221.288 3.92829 222.297 3.05268C223.378 2.13553 224.632 1.44367 225.984 1.01765C227.503 0.530732 229.09 0.290413 230.685 0.305861C232.997 0.271684 235.296 0.645232 237.478 1.40936C239.526 2.16602 241.438 3.25019 243.139 4.61956L239.905 9.18167C238.471 8.11211 236.905 7.23072 235.247 6.55905C233.766 5.96428 232.186 5.65628 230.59 5.6514C228.822 5.6514 227.451 6.05268 226.467 6.85045C226.012 7.18911 225.642 7.62925 225.386 8.13592C225.131 8.6426 224.997 9.20183 224.996 9.76924C224.982 10.3828 225.106 10.9917 225.359 11.5511Z" fill="white"/>
<path d="M265.127 35.1404H259.046V6.41584H248.159V0.82666H276.014V6.41584H265.127V35.1404Z" fill="white"/>
<defs>
<linearGradient id="paint0_linear_1_125" x1="84.8482" y1="61.1178" x2="139.197" y2="3.38215" gradientUnits="userSpaceOnUse">
<stop stop-color="#FF001C"/>
<stop offset="0.22" stop-color="#FF009D"/>
<stop offset="0.26" stop-color="#F9049F"/>
<stop offset="0.31" stop-color="#E80FA3"/>
<stop offset="0.37" stop-color="#CC22AA"/>
<stop offset="0.44" stop-color="#A53CB4"/>
<stop offset="0.51" stop-color="#735DC0"/>
<stop offset="0.58" stop-color="#3785CF"/>
<stop offset="0.64" stop-color="#00AADD"/>
<stop offset="0.9" stop-color="#E9D013"/>
<stop offset="1" stop-color="#FFD400"/>
</linearGradient>
<linearGradient id="paint1_linear_1_125" x1="88.0562" y1="64.1372" x2="142.405" y2="6.40152" gradientUnits="userSpaceOnUse">
<stop stop-color="#FF001C"/>
<stop offset="0.22" stop-color="#FF009D"/>
<stop offset="0.26" stop-color="#F9049F"/>
<stop offset="0.31" stop-color="#E80FA3"/>
<stop offset="0.37" stop-color="#CC22AA"/>
<stop offset="0.44" stop-color="#A53CB4"/>
<stop offset="0.51" stop-color="#735DC0"/>
<stop offset="0.58" stop-color="#3785CF"/>
<stop offset="0.64" stop-color="#00AADD"/>
<stop offset="0.9" stop-color="#E9D013"/>
<stop offset="1" stop-color="#FFD400"/>
</linearGradient>
<linearGradient id="paint2_linear_1_125" x1="86.7194" y1="62.8807" x2="141.068" y2="5.1403" gradientUnits="userSpaceOnUse">
<stop stop-color="#FF001C"/>
<stop offset="0.22" stop-color="#FF009D"/>
<stop offset="0.26" stop-color="#F9049F"/>
<stop offset="0.31" stop-color="#E80FA3"/>
<stop offset="0.37" stop-color="#CC22AA"/>
<stop offset="0.44" stop-color="#A53CB4"/>
<stop offset="0.51" stop-color="#735DC0"/>
<stop offset="0.58" stop-color="#3785CF"/>
<stop offset="0.64" stop-color="#00AADD"/>
<stop offset="0.9" stop-color="#E9D013"/>
<stop offset="1" stop-color="#FFD400"/>
</linearGradient>
<radialGradient id="paint3_radial_1_125" cx="0" cy="0" r="1" gradientUnits="userSpaceOnUse" gradientTransform="translate(121.5 21.8744) scale(19.7341)">
<stop offset="0.72" stop-color="white"/>
<stop offset="0.82" stop-color="#FBFBFB"/>
<stop offset="0.94" stop-color="#EEEEEE"/>
<stop offset="1" stop-color="#E3E3E3"/>
</radialGradient>
<radialGradient id="paint4_radial_1_125" cx="0" cy="0" r="1" gradientUnits="userSpaceOnUse" gradientTransform="translate(132.37 21.2487) scale(19.7341 19.7341)">
<stop offset="0.72" stop-color="white"/>
<stop offset="0.82" stop-color="#FBFBFB"/>
<stop offset="0.94" stop-color="#EEEEEE"/>
<stop offset="1" stop-color="#E3E3E3"/>
</radialGradient>
<radialGradient id="paint5_radial_1_125" cx="0" cy="0" r="1" gradientUnits="userSpaceOnUse" gradientTransform="translate(123.367 12.5161) scale(19.7341)">
<stop offset="0.77"/>
<stop offset="1" stop-color="#575757"/>
</radialGradient>
<radialGradient id="paint6_radial_1_125" cx="0" cy="0" r="1" gradientUnits="userSpaceOnUse" gradientTransform="translate(125.686 23.4746) scale(15.7261)">
<stop offset="0.77"/>
<stop offset="1" stop-color="#333333"/>
</radialGradient>
<linearGradient id="paint7_linear_1_125" x1="84.8482" y1="61.1178" x2="139.197" y2="3.38215" gradientUnits="userSpaceOnUse">
<stop stop-color="#FF001C"/>
<stop offset="0.22" stop-color="#FF009D"/>
<stop offset="0.26" stop-color="#F9049F"/>
<stop offset="0.31" stop-color="#E80FA3"/>
<stop offset="0.37" stop-color="#CC22AA"/>
<stop offset="0.44" stop-color="#A53CB4"/>
<stop offset="0.51" stop-color="#735DC0"/>
<stop offset="0.58" stop-color="#3785CF"/>
<stop offset="0.64" stop-color="#00AADD"/>
<stop offset="0.9" stop-color="#E9D013"/>
<stop offset="1" stop-color="#FFD400"/>
</linearGradient>
<linearGradient id="paint8_linear_1_125" x1="88.0562" y1="64.1372" x2="142.405" y2="6.40152" gradientUnits="userSpaceOnUse">
<stop stop-color="#FF001C"/>
<stop offset="0.22" stop-color="#FF009D"/>
<stop offset="0.26" stop-color="#F9049F"/>
<stop offset="0.31" stop-color="#E80FA3"/>
<stop offset="0.37" stop-color="#CC22AA"/>
<stop offset="0.44" stop-color="#A53CB4"/>
<stop offset="0.51" stop-color="#735DC0"/>
<stop offset="0.58" stop-color="#3785CF"/>
<stop offset="0.64" stop-color="#00AADD"/>
<stop offset="0.9" stop-color="#E9D013"/>
<stop offset="1" stop-color="#FFD400"/>
</linearGradient>
<linearGradient id="paint9_linear_1_125" x1="86.7194" y1="62.8807" x2="141.068" y2="5.1403" gradientUnits="userSpaceOnUse">
<stop stop-color="#FF001C"/>
<stop offset="0.22" stop-color="#FF009D"/>
<stop offset="0.26" stop-color="#F9049F"/>
<stop offset="0.31" stop-color="#E80FA3"/>
<stop offset="0.37" stop-color="#CC22AA"/>
<stop offset="0.44" stop-color="#A53CB4"/>
<stop offset="0.51" stop-color="#735DC0"/>
<stop offset="0.58" stop-color="#3785CF"/>
<stop offset="0.64" stop-color="#00AADD"/>
<stop offset="0.9" stop-color="#E9D013"/>
<stop offset="1" stop-color="#FFD400"/>
</linearGradient>
<radialGradient id="paint10_radial_1_125" cx="0" cy="0" r="1" gradientUnits="userSpaceOnUse" gradientTransform="translate(121.5 21.8744) scale(19.7341)">
<stop offset="0.72" stop-color="white"/>
<stop offset="0.82" stop-color="#FBFBFB"/>
<stop offset="0.94" stop-color="#EEEEEE"/>
<stop offset="1" stop-color="#E3E3E3"/>
</radialGradient>
<radialGradient id="paint11_radial_1_125" cx="0" cy="0" r="1" gradientUnits="userSpaceOnUse" gradientTransform="translate(132.37 21.2487) scale(19.7341 19.7341)">
<stop offset="0.72" stop-color="white"/>
<stop offset="0.82" stop-color="#FBFBFB"/>
<stop offset="0.94" stop-color="#EEEEEE"/>
<stop offset="1" stop-color="#E3E3E3"/>
</radialGradient>
<radialGradient id="paint12_radial_1_125" cx="0" cy="0" r="1" gradientUnits="userSpaceOnUse" gradientTransform="translate(123.367 12.5161) scale(19.7341)">
<stop offset="0.77"/>
<stop offset="1" stop-color="#575757"/>
</radialGradient>
<radialGradient id="paint13_radial_1_125" cx="0" cy="0" r="1" gradientUnits="userSpaceOnUse" gradientTransform="translate(125.686 23.4746) scale(15.7261)">
<stop offset="0.77"/>
<stop offset="1" stop-color="#333333"/>
</radialGradient>
</defs>
</svg>
