<?xml version="1.0" encoding="UTF-8"?>
<svg xmlns="http://www.w3.org/2000/svg" xmlns:xlink="http://www.w3.org/1999/xlink" viewBox="0 0 577.78 102.21">
  <defs>
    <style>
      .cls-1 {
        fill: url(#linear-gradient-2);
      }

      .cls-2 {
        fill: url(#radial-gradient-2);
      }

      .cls-2, .cls-3, .cls-4 {
        mix-blend-mode: color-burn;
      }

      .cls-5 {
        isolation: isolate;
      }

      .cls-6 {
        fill: url(#radial-gradient-3);
      }

      .cls-6, .cls-7 {
        mix-blend-mode: color-dodge;
      }

      .cls-8 {
        clip-path: url(#clippath-1);
      }

      .cls-3 {
        fill: url(#radial-gradient);
      }

      .cls-9 {
        mix-blend-mode: multiply;
        opacity: .5;
      }

      .cls-10 {
        fill: url(#linear-gradient-5);
      }

      .cls-11 {
        clip-path: url(#clippath);
      }

      .cls-7 {
        fill: url(#radial-gradient-4);
      }

      .cls-12 {
        fill: none;
      }

      .cls-4 {
        fill: url(#radial-gradient-5);
      }

      .cls-13 {
        fill: url(#linear-gradient-3);
      }

      .cls-14 {
        fill: url(#linear-gradient);
      }

      .cls-15 {
        fill: url(#linear-gradient-4);
      }
    </style>
    <clipPath id="clippath">
      <path class="cls-12" d="M264.87,15.11c-20.81,0-37.68,16.87-37.68,37.68s16.87,37.68,37.68,37.68,37.68-16.87,37.68-37.68-16.87-37.68-37.68-37.68Zm0,58.94c-11.74,0-21.26-9.52-21.26-21.26s9.52-21.26,21.26-21.26,21.26,9.52,21.26,21.26-9.52,21.26-21.26,21.26Z"/>
    </clipPath>
    <linearGradient id="linear-gradient" x1="177.61" y1="143.06" x2="291.39" y2="22.19" gradientUnits="userSpaceOnUse">
      <stop offset="0" stop-color="#ff001c"/>
      <stop offset=".22" stop-color="#ff009d"/>
      <stop offset=".26" stop-color="#f9039e"/>
      <stop offset=".31" stop-color="#e80fa2"/>
      <stop offset=".37" stop-color="#cc21a9"/>
      <stop offset=".44" stop-color="#a53bb3"/>
      <stop offset=".51" stop-color="#725dc0"/>
      <stop offset=".58" stop-color="#3685cf"/>
      <stop offset=".64" stop-color="#0ad"/>
      <stop offset=".9" stop-color="#e9d013"/>
      <stop offset="1" stop-color="#ffd400"/>
    </linearGradient>
    <linearGradient id="linear-gradient-2" x1="184.32" y1="149.37" x2="298.1" y2="28.51" xlink:href="#linear-gradient"/>
    <linearGradient id="linear-gradient-3" x1="181.52" y1="146.74" x2="295.3" y2="25.87" xlink:href="#linear-gradient"/>
    <radialGradient id="radial-gradient" cx="254.34" cy="60.9" fx="254.34" fy="60.9" r="41.31" gradientUnits="userSpaceOnUse">
      <stop offset=".72" stop-color="#fff"/>
      <stop offset=".82" stop-color="#fafafa"/>
      <stop offset=".94" stop-color="#ededed"/>
      <stop offset="1" stop-color="#e3e3e3"/>
    </radialGradient>
    <radialGradient id="radial-gradient-2" cx="277.09" cy="59.59" fx="277.09" fy="59.59" r="41.31" xlink:href="#radial-gradient"/>
    <radialGradient id="radial-gradient-3" cx="258.25" cy="41.31" fx="258.25" fy="41.31" r="41.31" gradientUnits="userSpaceOnUse">
      <stop offset=".77" stop-color="#000"/>
      <stop offset="1" stop-color="#575757"/>
    </radialGradient>
    <radialGradient id="radial-gradient-4" cx="263.1" cy="64.26" fx="263.1" fy="64.26" r="32.92" gradientUnits="userSpaceOnUse">
      <stop offset=".77" stop-color="#000"/>
      <stop offset="1" stop-color="#333"/>
    </radialGradient>
    <clipPath id="clippath-1">
      <path class="cls-12" d="M264.87,15.11c-20.81,0-37.68,16.87-37.68,37.68s16.87,37.68,37.68,37.68,37.68-16.87,37.68-37.68-16.87-37.68-37.68-37.68Zm0,58.94c-11.74,0-21.26-9.52-21.26-21.26s9.52-21.26,21.26-21.26,21.26,9.52,21.26,21.26-9.52,21.26-21.26,21.26Z"/>
    </clipPath>
    <linearGradient id="linear-gradient-4" x1="184.32" y1="149.37" x2="298.1" y2="28.51" xlink:href="#linear-gradient"/>
    <linearGradient id="linear-gradient-5" x1="181.52" y1="146.74" x2="295.3" y2="25.87" xlink:href="#linear-gradient"/>
    <radialGradient id="radial-gradient-5" cx="277.09" cy="59.59" fx="277.09" fy="59.59" r="41.31" xlink:href="#radial-gradient"/>
  </defs>
  <g class="cls-5">
    <g id="Layer_1" data-name="Layer 1">
      <g>
        <g>
          <g class="cls-11">
            <path class="cls-14" d="M264.87,10.26c-22.15,0-40.1,17.95-40.1,40.1s17.95,40.1,40.1,40.1,40.1-17.95,40.1-40.1-17.95-40.1-40.1-40.1Zm0,62.73c-12.5,0-22.63-10.13-22.63-22.63s10.13-22.63,22.63-22.63,22.63,10.13,22.63,22.63-10.13,22.63-22.63,22.63Z"/>
            <path class="cls-1" d="M271.12,21.39c-19.76,0-35.78,16.02-35.78,35.78s16.02,35.78,35.78,35.78,35.78-16.02,35.78-35.78-16.02-35.78-35.78-35.78Zm0,55.97c-11.15,0-20.19-9.04-20.19-20.19s9.04-20.19,20.19-20.19,20.19,9.04,20.19,20.19-9.04,20.19-20.19,20.19Z"/>
            <path class="cls-13" d="M261.89,23.69c-20.81,0-37.68,16.87-37.68,37.68s16.87,37.68,37.68,37.68,37.68-16.87,37.68-37.68-16.87-37.68-37.68-37.68Zm0,58.94c-11.74,0-21.26-9.52-21.26-21.26s9.52-21.26,21.26-21.26,21.26,9.52,21.26,21.26-9.52,21.26-21.26,21.26Z"/>
            <path class="cls-3" d="M254.34,19.58c-22.82,0-41.31,18.5-41.31,41.31s18.5,41.31,41.31,41.31,41.31-18.5,41.31-41.31-18.5-41.31-41.31-41.31Zm0,64.63c-12.88,0-23.32-10.44-23.32-23.32s10.44-23.32,23.32-23.32,23.32,10.44,23.32,23.32-10.44,23.32-23.32,23.32Z"/>
            <path class="cls-2" d="M277.09,18.28c-22.82,0-41.31,18.5-41.31,41.31s18.5,41.31,41.31,41.31,41.32-18.5,41.32-41.31-18.5-41.31-41.32-41.31Zm0,64.63c-12.88,0-23.32-10.44-23.32-23.32s10.44-23.32,23.32-23.32,23.32,10.44,23.32,23.32-10.44,23.32-23.32,23.32Z"/>
            <path class="cls-6" d="M258.25,0c-22.82,0-41.31,18.5-41.31,41.31s18.5,41.31,41.31,41.31,41.31-18.5,41.31-41.31S281.07,0,258.25,0Zm0,64.63c-12.88,0-23.32-10.44-23.32-23.32s10.44-23.32,23.32-23.32,23.32,10.44,23.32,23.32-10.44,23.32-23.32,23.32Z"/>
            <path class="cls-7" d="M263.1,31.34c-18.18,0-32.92,14.74-32.92,32.92s14.74,32.92,32.92,32.92,32.92-14.74,32.92-32.92-14.74-32.92-32.92-32.92Zm0,51.5c-10.26,0-18.58-8.32-18.58-18.58s8.32-18.58,18.58-18.58,18.58,8.32,18.58,18.58-8.32,18.58-18.58,18.58Z"/>
          </g>
          <g class="cls-9">
            <g class="cls-8">
              <path class="cls-14" d="M264.87,10.26c-22.15,0-40.1,17.95-40.1,40.1s17.95,40.1,40.1,40.1,40.1-17.95,40.1-40.1-17.95-40.1-40.1-40.1Zm0,62.73c-12.5,0-22.63-10.13-22.63-22.63s10.13-22.63,22.63-22.63,22.63,10.13,22.63,22.63-10.13,22.63-22.63,22.63Z"/>
              <path class="cls-15" d="M271.12,21.39c-19.76,0-35.78,16.02-35.78,35.78s16.02,35.78,35.78,35.78,35.78-16.02,35.78-35.78-16.02-35.78-35.78-35.78Zm0,55.97c-11.15,0-20.19-9.04-20.19-20.19s9.04-20.19,20.19-20.19,20.19,9.04,20.19,20.19-9.04,20.19-20.19,20.19Z"/>
              <path class="cls-10" d="M261.89,23.69c-20.81,0-37.68,16.87-37.68,37.68s16.87,37.68,37.68,37.68,37.68-16.87,37.68-37.68-16.87-37.68-37.68-37.68Zm0,58.94c-11.74,0-21.26-9.52-21.26-21.26s9.52-21.26,21.26-21.26,21.26,9.52,21.26,21.26-9.52,21.26-21.26,21.26Z"/>
              <path class="cls-3" d="M254.34,19.58c-22.82,0-41.31,18.5-41.31,41.31s18.5,41.31,41.31,41.31,41.31-18.5,41.31-41.31-18.5-41.31-41.31-41.31Zm0,64.63c-12.88,0-23.32-10.44-23.32-23.32s10.44-23.32,23.32-23.32,23.32,10.44,23.32,23.32-10.44,23.32-23.32,23.32Z"/>
              <path class="cls-4" d="M277.09,18.28c-22.82,0-41.31,18.5-41.31,41.31s18.5,41.31,41.31,41.31,41.32-18.5,41.32-41.31-18.5-41.31-41.32-41.31Zm0,64.63c-12.88,0-23.32-10.44-23.32-23.32s10.44-23.32,23.32-23.32,23.32,10.44,23.32,23.32-10.44,23.32-23.32,23.32Z"/>
              <path class="cls-6" d="M258.25,0c-22.82,0-41.31,18.5-41.31,41.31s18.5,41.31,41.31,41.31,41.31-18.5,41.31-41.31S281.07,0,258.25,0Zm0,64.63c-12.88,0-23.32-10.44-23.32-23.32s10.44-23.32,23.32-23.32,23.32,10.44,23.32,23.32-10.44,23.32-23.32,23.32Z"/>
              <path class="cls-7" d="M263.1,31.34c-18.18,0-32.92,14.74-32.92,32.92s14.74,32.92,32.92,32.92,32.92-14.74,32.92-32.92-14.74-32.92-32.92-32.92Zm0,51.5c-10.26,0-18.58-8.32-18.58-18.58s8.32-18.58,18.58-18.58,18.58,8.32,18.58,18.58-8.32,18.58-18.58,18.58Z"/>
            </g>
          </g>
        </g>
        <g>
          <path d="M74.93,88.67h-13.34l-7.29-17.35H20.32l-7.39,17.35H0L31.61,16.3h11.7l31.61,72.36ZM37.26,31.39l-12.32,28.74h24.74l-12.42-28.74Z"/>
          <path d="M139.54,82.46c-2.02,1.54-4.19,2.87-6.52,4-2.33,1.13-4.88,1.99-7.65,2.57s-5.83,.87-9.19,.87c-5.27,0-10.13-.96-14.58-2.87-4.45-1.92-8.3-4.53-11.55-7.85-3.25-3.32-5.8-7.24-7.65-11.75-1.85-4.52-2.77-9.37-2.77-14.58s.91-9.96,2.72-14.47c1.81-4.52,4.36-8.47,7.65-11.86,3.28-3.39,7.19-6.06,11.7-8.01,4.52-1.95,9.51-2.93,14.99-2.93,3.28,0,6.28,.27,8.98,.82,2.7,.55,5.18,1.32,7.44,2.31,2.26,.99,4.34,2.17,6.26,3.54,1.92,1.37,3.73,2.87,5.44,4.52l-8.11,9.34c-2.87-2.67-5.92-4.82-9.14-6.47-3.22-1.64-6.88-2.46-10.98-2.46-3.42,0-6.59,.67-9.49,2-2.91,1.33-5.42,3.15-7.54,5.44-2.12,2.29-3.76,4.98-4.93,8.06-1.16,3.08-1.74,6.4-1.74,9.96s.58,6.9,1.74,10.01c1.16,3.11,2.81,5.83,4.93,8.16,2.12,2.33,4.63,4.16,7.54,5.49,2.91,1.33,6.07,2,9.49,2,4.38,0,8.14-.84,11.29-2.51,3.15-1.68,6.26-3.95,9.34-6.83l8.11,8.21c-1.85,1.99-3.78,3.75-5.8,5.29Z"/>
          <path d="M213.24,82.46c-2.02,1.54-4.19,2.87-6.52,4-2.33,1.13-4.88,1.99-7.65,2.57s-5.83,.87-9.19,.87c-5.27,0-10.13-.96-14.58-2.87-4.45-1.92-8.3-4.53-11.55-7.85-3.25-3.32-5.8-7.24-7.65-11.75-1.85-4.52-2.77-9.37-2.77-14.58s.91-9.96,2.72-14.47c1.81-4.52,4.36-8.47,7.65-11.86,3.28-3.39,7.19-6.06,11.7-8.01,4.52-1.95,9.51-2.93,14.99-2.93,3.28,0,6.28,.27,8.98,.82,2.7,.55,5.18,1.32,7.44,2.31,2.26,.99,4.34,2.17,6.26,3.54,1.92,1.37,3.73,2.87,5.44,4.52l-8.11,9.34c-2.87-2.67-5.92-4.82-9.14-6.47-3.22-1.64-6.88-2.46-10.98-2.46-3.42,0-6.59,.67-9.49,2-2.91,1.33-5.42,3.15-7.54,5.44-2.12,2.29-3.76,4.98-4.93,8.06-1.16,3.08-1.74,6.4-1.74,9.96s.58,6.9,1.74,10.01c1.16,3.11,2.81,5.83,4.93,8.16,2.12,2.33,4.63,4.16,7.54,5.49,2.91,1.33,6.07,2,9.49,2,4.38,0,8.14-.84,11.29-2.51,3.15-1.68,6.26-3.95,9.34-6.83l8.11,8.21c-1.85,1.99-3.78,3.75-5.8,5.29Z"/>
          <path d="M363.57,88.67l-17.71-25.05h-15.85v25.05h-12.52V16.82h32.02c4.11,0,7.82,.53,11.14,1.59,3.32,1.06,6.12,2.57,8.42,4.52s4.05,4.35,5.29,7.19c1.23,2.84,1.85,6,1.85,9.49,0,3.01-.43,5.7-1.28,8.06s-2.04,4.45-3.54,6.26c-1.51,1.81-3.3,3.35-5.39,4.62-2.09,1.27-4.4,2.24-6.93,2.93l19.4,27.2h-14.88Zm-4.12-57.42c-2.61-2.03-6.28-3.04-11.02-3.04h-18.43v24.22h18.53c4.53,0,8.13-1.1,10.81-3.3,2.68-2.2,4.02-5.15,4.02-8.87,0-3.99-1.31-6.99-3.91-9.02Z"/>
          <path d="M444.86,28.21h-40.65v18.48h36.03v11.39h-36.03v19.19h41.16v11.39h-53.68V16.82h53.17v11.39Z"/>
          <path d="M471.75,39.3c.48,1.03,1.35,1.99,2.62,2.87,1.27,.89,3.02,1.71,5.25,2.46,2.23,.75,5.06,1.54,8.49,2.36,3.77,.96,7.12,2.02,10.03,3.18,2.92,1.16,5.33,2.58,7.25,4.26,1.92,1.68,3.38,3.63,4.37,5.85,.99,2.22,1.49,4.84,1.49,7.85,0,3.42-.63,6.47-1.88,9.14s-3,4.93-5.24,6.77c-2.24,1.85-4.93,3.25-8.07,4.21-3.14,.96-6.6,1.44-10.36,1.44-5.54,0-10.85-.94-15.91-2.82-5.07-1.88-9.75-4.77-14.06-8.67l7.6-9.03c3.49,3.01,7.01,5.32,10.57,6.93,3.56,1.61,7.6,2.41,12.11,2.41,3.9,0,7-.82,9.29-2.46,2.29-1.64,3.44-3.86,3.44-6.67,0-1.3-.22-2.46-.67-3.49-.45-1.03-1.27-1.97-2.47-2.82-1.2-.85-2.85-1.66-4.94-2.41-2.09-.75-4.82-1.54-8.18-2.36-3.84-.89-7.26-1.88-10.24-2.98-2.99-1.09-5.49-2.46-7.51-4.11-2.02-1.64-3.57-3.63-4.63-5.95-1.06-2.33-1.59-5.17-1.59-8.52,0-3.15,.61-6,1.83-8.57,1.22-2.57,2.9-4.77,5.04-6.62,2.14-1.85,4.71-3.27,7.71-4.26,3-.99,6.29-1.49,9.84-1.49,5.27,0,10.01,.77,14.22,2.31,4.21,1.54,8.16,3.78,11.86,6.72l-6.77,9.55c-3.29-2.39-6.54-4.22-9.75-5.49-3.22-1.27-6.47-1.9-9.75-1.9-3.7,0-6.57,.84-8.62,2.52-2.05,1.68-3.08,3.71-3.08,6.11,0,1.44,.24,2.67,.72,3.69Z"/>
          <path d="M555,88.67h-12.73V28.52h-22.79v-11.7h58.3v11.7h-22.79v60.15Z"/>
        </g>
      </g>
    </g>
  </g>
</svg>